SplineFontDB: 3.0
FontName: ThiruValluvar-Bold
FullName: ThiruValluvar Bold
FamilyName: ThiruValluvar
Weight: Bold
Copyright: Copyright (c) 1995-2015, NLCI (http://www.nlci.in/fonts/) Derived from TAM ThiruValluvar Bold by ttfbuilder v0.33
Version: 1.0 Thu Apr 27 12:48:57 1995
ItalicAngle: 0
UnderlinePosition: -532
UnderlineWidth: 40
Ascent: 1638
Descent: 410
InvalidEm: 0
sfntRevision: 0x00010000
LayerCount: 2
Layer: 0 0 "Back" 1
Layer: 1 0 "Fore" 0
XUID: [1021 64 1884828337 204469]
StyleMap: 0x0020
FSType: 0
OS2Version: 1
OS2_WeightWidthSlopeOnly: 0
OS2_UseTypoMetrics: 0
CreationTime: 1547921071
ModificationTime: 1547921083
PfmFamily: 17
TTFWeight: 700
TTFWidth: 5
LineGap: 0
VLineGap: 0
Panose: 2 0 0 3 0 0 0 0 0 0
OS2TypoAscent: 1952
OS2TypoAOffset: 0
OS2TypoDescent: -745
OS2TypoDOffset: 0
OS2TypoLinegap: 0
OS2WinAscent: 1952
OS2WinAOffset: 0
OS2WinDescent: 745
OS2WinDOffset: 0
HheadAscent: 1952
HheadAOffset: 0
HheadDescent: -745
HheadDOffset: 0
OS2SubXSize: 1434
OS2SubYSize: 1331
OS2SubXOff: 0
OS2SubYOff: 293
OS2SupXSize: 1434
OS2SupYSize: 1331
OS2SupXOff: 0
OS2SupYOff: 928
OS2StrikeYSize: 102
OS2StrikeYPos: 530
OS2Vendor: 'Alts'
OS2CodePages: 20000001.00000000
OS2UnicodeRanges: a01080ff.520021cb.08000028.00000000
Lookup: 260 0 0 "_holdAnchorsbase" { "_someAnchorsbase"  } []
DEI: 91125
ShortTable: maxp 16
  1
  0
  243
  193
  12
  298
  16
  1
  0
  0
  0
  0
  3
  0
  3
  2
EndShort

StartChar: .notdef
Encoding: 0 -1 0
Width: 1024
Flags: HW
LayerCount: 2
Fore
SplineSet
64 0 m 1
 64 1536 l 1
 960 1536 l 1
 960 0 l 1
 64 0 l 1
896 64 m 1
 896 1472 l 1
 128 1472 l 1
 128 64 l 1
 896 64 l 1
EndSplineSet
EndChar

StartChar: exclam.taml
Encoding: 4 -1 4
Width: 686
Flags: HW
LayerCount: 2
Fore
SplineSet
482 762 m 1
 464.666666667 642.666666667 448.666666667 524 434 406 c 2
 400 135 l 1
 361 135 l 1
 327 405 l 2
 312.333333333 523.666666667 296.333333333 642 279 760 c 1
 279 868 312.333333333 922 379 922 c 0
 447.666666667 922 482 868.666666667 482 762 c 1
477 -51 m 0
 477 -80.3333333333 467.833333333 -104.833333333 449.5 -124.5 c 128
 431.166666667 -144.166666667 407.666666667 -154 379 -154 c 0
 353 -154 330.166666667 -144.166666667 310.5 -124.5 c 128
 290.833333333 -104.833333333 281 -80.3333333333 281 -51 c 0
 281 -26.3333333333 290.166666667 -4.83333333333 308.5 13.5 c 128
 326.833333333 31.8333333333 349.666666667 41 377 41 c 0
 405 41 428.666666667 32.3333333333 448 15 c 128
 467.333333333 -2.33333333333 477 -24.3333333333 477 -51 c 0
EndSplineSet
EndChar

StartChar: quoteleft.taml
Encoding: 5 -1 5
Width: 573
Flags: HW
LayerCount: 2
Fore
SplineSet
446 1323 m 1
 380 1302.33333333 326 1266.33333333 284 1215 c 0
 250 1173.66666667 233 1138.33333333 233 1109 c 0
 233 1101 234.666666667 1096 238 1094 c 0
 246 1088.66666667 254 1086 262 1086 c 0
 268.666666667 1086 286.333333333 1094.33333333 315 1111 c 0
 329 1119 341.666666667 1123 353 1123 c 0
 365 1123 378.333333333 1118.66666667 393 1110 c 0
 414.333333333 1097.33333333 431 1080 443 1058 c 128
 455 1036 461 1013.33333333 461 990 c 0
 461 964.666666667 453.333333333 940.666666667 438 918 c 0
 426 898 410.166666667 883.5 390.5 874.5 c 128
 370.833333333 865.5 348 861 322 861 c 0
 308.666666667 861 295 862 281 864 c 0
 236.333333333 869.333333333 200.333333333 893 173 935 c 0
 148.333333333 973 136 1015.33333333 136 1062 c 0
 136 1070.66666667 136.333333333 1077.66666667 137 1083 c 128
 137.666666667 1088.33333333 139 1096 141 1106 c 0
 155.666666667 1174.66666667 189 1233 241 1281 c 0
 277.666666667 1314.33333333 323 1342 377 1364 c 0
 413.666666667 1378.66666667 436.666666667 1386 446 1386 c 1
 446 1323 l 1
EndSplineSet
EndChar

StartChar: u20A8
Encoding: 6 8360 6
Width: 1669
Flags: HW
LayerCount: 2
Fore
SplineSet
1506 187 m 0
 1506 129 1483.33333333 79.8333333333 1438 39.5 c 128
 1392.66666667 -0.833333333333 1340 -21 1280 -21 c 0
 1254 -21 1224.33333333 -15.8333333333 1191 -5.5 c 128
 1157.66666667 4.83333333333 1136.33333333 10 1127 10 c 0
 1113.66666667 10 1104 3.33333333333 1098 -10 c 1
 1053 -10 l 1
 1053 240 l 1
 1100 240 l 1
 1118 170 1141.66666667 121.666666667 1171 95 c 128
 1200.33333333 68.3333333333 1238 53 1284 49 c 0
 1306 49 1326.5 57.8333333333 1345.5 75.5 c 128
 1364.5 93.1666666667 1374 111.666666667 1374 131 c 0
 1374 159.666666667 1361.83333333 183.166666667 1337.5 201.5 c 128
 1313.16666667 219.833333333 1275 240.666666667 1223 264 c 0
 1189.66666667 281.333333333 1162.16666667 297 1140.5 311 c 128
 1118.83333333 325 1101.66666667 338.333333333 1089 351 c 0
 1063.66666667 375 1051 411 1051 459 c 0
 1051 497 1059.5 530.166666667 1076.5 558.5 c 128
 1093.5 586.833333333 1117.66666667 609 1149 625 c 128
 1180.33333333 641 1214.66666667 649 1252 649 c 0
 1274.66666667 649 1299.33333333 644.666666667 1326 636 c 128
 1352.66666667 627.333333333 1370.33333333 623 1379 623 c 0
 1395 623 1404.33333333 631.666666667 1407 649 c 1
 1458 649 l 1
 1458 414 l 1
 1405 414 l 1
 1392.33333333 478 1373.66666667 522 1349 546 c 128
 1324.33333333 570 1290.33333333 582 1247 582 c 0
 1225.66666667 582 1206 576.166666667 1188 564.5 c 128
 1170 552.833333333 1161 536.666666667 1161 516 c 0
 1161 499.333333333 1165.16666667 484.833333333 1173.5 472.5 c 128
 1181.83333333 460.166666667 1195 448.333333333 1213 437 c 0
 1226.33333333 429 1237.33333333 422.833333333 1246 418.5 c 128
 1254.66666667 414.166666667 1261.33333333 411 1266 409 c 2
 1329 381 l 2
 1384.33333333 353.666666667 1427.66666667 325.5 1459 296.5 c 128
 1490.33333333 267.5 1506 231 1506 187 c 0
975 0 m 1
 705 0 l 1
 393 420 l 1
 320 420 l 1
 320 174 l 2
 320 124.666666667 325.666666667 91.8333333333 337 75.5 c 128
 348.333333333 59.1666666667 368.666666667 51 398 51 c 2
 453 51 l 1
 453 0 l 1
 27 0 l 1
 27 51 l 1
 74 51 l 2
 103.333333333 51 124.333333333 59.3333333333 137 76 c 0
 151 92 158 124.666666667 158 174 c 2
 158 758 l 2
 158 802 151.666666667 832.166666667 139 848.5 c 128
 126.333333333 864.833333333 104.666666667 873 74 873 c 2
 27 873 l 1
 27 924 l 1
 373 924 l 2
 510.333333333 924 611.833333333 906 677.5 870 c 128
 743.166666667 834 776 772 776 684 c 0
 776 563.333333333 701.666666667 483.666666667 553 445 c 1
 727.666666667 218.333333333 824 100 842 90 c 0
 870 73.3333333333 914.333333333 59.6666666667 975 49 c 1
 975 0 l 1
592 662 m 0
 592 712.666666667 576.333333333 755.333333333 545 790 c 128
 513.666666667 824.666666667 461.666666667 842 389 842 c 0
 368.333333333 842 345.333333333 840 320 836 c 1
 320 494 l 1
 402.666666667 494 468.666666667 510 518 542 c 128
 567.333333333 574 592 614 592 662 c 0
EndSplineSet
EndChar

StartChar: percent.taml
Encoding: 7 -1 7
Width: 1221
Flags: HW
LayerCount: 2
Fore
SplineSet
1044 328 m 0
 1044 258.666666667 1032.83333333 202 1010.5 158 c 128
 988.166666667 114 959.666666667 81 925 59 c 0
 893.666666667 39 859 29 821 29 c 0
 777.666666667 29 736.333333333 45.5 697 78.5 c 128
 657.666666667 111.5 638 180.333333333 638 285 c 0
 638 359 649.666666667 418.666666667 673 464 c 128
 696.333333333 509.333333333 725 543 759 565 c 0
 789 584.333333333 820.333333333 594 853 594 c 0
 901 594 944.833333333 575 984.5 537 c 128
 1024.16666667 499 1044 429.333333333 1044 328 c 0
903 1022 m 1
 303 24 l 1
 187 24 l 1
 786 1022 l 1
 903 1022 l 1
464 769 m 0
 464 693.666666667 452.333333333 633.333333333 429 588 c 128
 405.666666667 542.666666667 376.666666667 509 342 487 c 0
 311.333333333 467.666666667 279.666666667 458 247 458 c 0
 199.666666667 458 156.5 477.333333333 117.5 516 c 128
 78.5 554.666666667 59 624 59 724 c 0
 59 793.333333333 69.6666666667 849.833333333 91 893.5 c 128
 112.333333333 937.166666667 139.5 969.666666667 172.5 991 c 128
 205.5 1012.33333333 241.333333333 1023 280 1023 c 0
 322.666666667 1023 364 1007 404 975 c 128
 444 943 464 874.333333333 464 769 c 0
931 254 m 0
 931 326 919 378.833333333 895 412.5 c 128
 871 446.166666667 840.666666667 463 804 463 c 0
 784 463 770.166666667 457.166666667 762.5 445.5 c 128
 754.833333333 433.833333333 751 412.333333333 751 381 c 0
 751 232.333333333 794 158 880 158 c 0
 914 158 931 190 931 254 c 0
352 673 m 0
 352 745 341 799.833333333 319 837.5 c 128
 297 875.166666667 267.333333333 894 230 894 c 0
 190.666666667 894 171 862.666666667 171 800 c 0
 171 728 182.833333333 674.5 206.5 639.5 c 128
 230.166666667 604.5 260 587 296 587 c 0
 333.333333333 587 352 615.666666667 352 673 c 0
EndSplineSet
EndChar

StartChar: ampersand.taml
Encoding: 8 -1 8
Width: 1034
Flags: HW
LayerCount: 2
Fore
SplineSet
979 191 m 1
 962.333333333 130.333333333 936 83.6666666667 900 51 c 128
 864 18.3333333333 822.666666667 2 776 2 c 0
 738 2 698.666666667 12.3333333333 658 33 c 0
 626 47.6666666667 589 77 547 121 c 1
 453.666666667 41.6666666667 361.666666667 2 271 2 c 0
 207 2 151.666666667 22.1666666667 105 62.5 c 128
 58.3333333333 102.833333333 35 151 35 207 c 0
 35 257.666666667 54 309.666666667 92 363 c 0
 128 411.666666667 195.666666667 463.333333333 295 518 c 1
 279 552 266.5 584.666666667 257.5 616 c 128
 248.5 647.333333333 244 675.666666667 244 701 c 0
 244 765.666666667 266.666666667 818.333333333 312 859 c 128
 357.333333333 899.666666667 412.333333333 920 477 920 c 0
 527.666666667 920 570.5 904.333333333 605.5 873 c 128
 640.5 841.666666667 658 802.666666667 658 756 c 0
 658 710 643 669.166666667 613 633.5 c 128
 583 597.833333333 529.666666667 560.666666667 453 522 c 1
 527.666666667 400 578.666666667 321.666666667 606 287 c 1
 638 327 662.5 364 679.5 398 c 128
 696.5 432 705 462.666666667 705 490 c 0
 705 525.333333333 685 545.666666667 645 551 c 1
 645 596 l 1
 932 596 l 1
 932 549 l 1
 913.333333333 549 896.666666667 547.166666667 882 543.5 c 128
 867.333333333 539.833333333 854.666666667 534.333333333 844 527 c 0
 830 516.333333333 805.333333333 478.166666667 770 412.5 c 128
 734.666666667 346.833333333 694.333333333 286 649 230 c 1
 672.333333333 202.666666667 703.333333333 175.333333333 742 148 c 1
 771.333333333 132.666666667 797.666666667 125 821 125 c 0
 847 125 870 133.666666667 890 151 c 128
 910 168.333333333 924 193.333333333 932 226 c 1
 979 191 l 1
561 758 m 0
 561 783.333333333 552.666666667 804.666666667 536 822 c 0
 527.333333333 831.333333333 518.166666667 838.666666667 508.5 844 c 128
 498.833333333 849.333333333 487.666666667 852 475 852 c 0
 445.666666667 852 422 841 404 819 c 128
 386 797 377 774 377 750 c 0
 377 707.333333333 392.666666667 652.666666667 424 586 c 1
 515.333333333 633.333333333 561 690.666666667 561 758 c 0
498 178 m 1
 450 245.333333333 415.666666667 295.333333333 395 328 c 128
 374.333333333 360.666666667 350.666666667 402.333333333 324 453 c 1
 274.666666667 421.666666667 242 393.666666667 226 369 c 1
 201.333333333 337.666666667 189 302 189 262 c 0
 189 220.666666667 202.666666667 183.333333333 230 150 c 0
 261.333333333 116 296 99 334 99 c 0
 380.666666667 99 435.333333333 125.333333333 498 178 c 1
EndSplineSet
EndChar

StartChar: quoteright.taml
Encoding: 9 -1 9
Width: 573
Flags: HW
LayerCount: 2
Fore
SplineSet
401 1124 m 0
 386.333333333 1055.33333333 353 996.666666667 301 948 c 0
 264.333333333 914 219.333333333 886 166 864 c 0
 130 849.333333333 107.333333333 842 98 842 c 1
 98 905 l 1
 164 926.333333333 217.666666667 962.333333333 259 1013 c 0
 293 1054.33333333 310 1090 310 1120 c 0
 310 1128 308.333333333 1133 305 1135 c 0
 297.666666667 1139.66666667 289.666666667 1142 281 1142 c 0
 274.333333333 1142 256.666666667 1133.66666667 228 1117 c 0
 214 1109 201.333333333 1105 190 1105 c 0
 182.666666667 1105 176.166666667 1105.83333333 170.5 1107.5 c 128
 164.833333333 1109.16666667 158 1112.66666667 150 1118 c 0
 128.666666667 1130.66666667 112 1148.16666667 100 1170.5 c 128
 88 1192.83333333 82 1215.66666667 82 1239 c 0
 82 1265.66666667 88.8333333333 1289.16666667 102.5 1309.5 c 128
 116.166666667 1329.83333333 132.833333333 1344.5 152.5 1353.5 c 128
 172.166666667 1362.5 194.666666667 1367 220 1367 c 0
 234 1367 248 1366 262 1364 c 0
 306.666666667 1359.33333333 342.666666667 1336.33333333 370 1295 c 0
 394.666666667 1258.33333333 407 1216.66666667 407 1170 c 0
 407 1153.33333333 405 1138 401 1124 c 0
EndSplineSet
EndChar

StartChar: parenleft.taml
Encoding: 10 -1 10
Width: 604
Flags: HW
LayerCount: 2
Fore
SplineSet
655 1260 m 1
 539 1170.66666667 448.666666667 1046.33333333 384 887 c 0
 322.666666667 735 292 570 292 392 c 0
 292 217.333333333 321.666666667 55 381 -95 c 0
 444.333333333 -255 535 -383 653 -479 c 1
 623 -518 l 1
 449 -421.333333333 317 -290.666666667 227 -126 c 0
 143.666666667 26.6666666667 102 197.666666667 102 387 c 0
 102 579.666666667 143.333333333 752 226 904 c 0
 315.333333333 1068 447 1198 621 1294 c 1
 655 1260 l 1
EndSplineSet
EndChar

StartChar: parenright.taml
Encoding: 11 -1 11
Width: 604
Flags: HW
LayerCount: 2
Fore
SplineSet
420 387 m 0
 420 293 409.5 202.833333333 388.5 116.5 c 128
 367.5 30.1666666667 335.333333333 -52.5 292 -131.5 c 128
 248.666666667 -210.5 194.833333333 -281.833333333 130.5 -345.5 c 128
 66.1666666667 -409.166666667 -11.6666666667 -466.666666667 -103 -518 c 1
 -135 -484 l 1
 -55.6666666667 -418.666666667 10.8333333333 -339.833333333 64.5 -247.5 c 128
 118.166666667 -155.166666667 158.666666667 -53.6666666667 186 57 c 0
 199.333333333 113 209.333333333 168 216 222 c 128
 222.666666667 276 226 332.333333333 226 391 c 0
 226 505.666666667 212.5 618.166666667 185.5 728.5 c 128
 158.5 838.833333333 118.166666667 939.5 64.5 1030.5 c 128
 10.8333333333 1121.5 -55 1198 -133 1260 c 1
 -101 1295 l 1
 14.3333333333 1231.66666667 111 1152.33333333 189 1057 c 128
 267 961.666666667 325 857.333333333 363 744 c 128
 401 630.666666667 420 511.666666667 420 387 c 0
EndSplineSet
EndChar

StartChar: asterisk.taml
Encoding: 12 -1 12
Width: 1260
Flags: HW
LayerCount: 2
Fore
SplineSet
920 677 m 0
 913.333333333 665.666666667 903.333333333 656.666666667 890 650 c 128
 876.666666667 643.333333333 862.666666667 640 848 640 c 0
 830 640 815.333333333 645.666666667 804 657 c 0
 787.333333333 671 759 696.666666667 719 734 c 0
 693 758 670 777 650 791 c 1
 652.666666667 765.666666667 658 738.333333333 666 709 c 0
 679.333333333 665.666666667 690.333333333 628 699 596 c 1
 699 570 692.333333333 549 679 533 c 128
 665.666666667 517 648 509 626 509 c 0
 604.666666667 509 586.5 516.833333333 571.5 532.5 c 128
 556.5 548.166666667 549 569.333333333 549 596 c 1
 552.333333333 614.666666667 563.333333333 659 582 729 c 0
 588 751 592.333333333 773 595 795 c 1
 575.666666667 781 554 762 530 738 c 0
 489.333333333 697.333333333 461.5 670.333333333 446.5 657 c 128
 431.5 643.666666667 413.666666667 637 393 637 c 0
 363 637 341 649 327 673 c 0
 319.666666667 684.333333333 316 696.333333333 316 709 c 0
 316 724.333333333 320.833333333 738.833333333 330.5 752.5 c 128
 340.166666667 766.166666667 353.333333333 775.666666667 370 781 c 0
 393.333333333 789 430 799 480 811 c 0
 515.333333333 819.666666667 543.666666667 829 565 839 c 1
 548.333333333 845.666666667 527 852.333333333 501 859 c 0
 424.333333333 878.333333333 380 890 368 894 c 0
 351.333333333 900 338.833333333 910 330.5 924 c 128
 322.166666667 938 318 953.333333333 318 970 c 0
 318 983.333333333 320.333333333 994.666666667 325 1004 c 0
 341 1028 365 1040 397 1040 c 0
 415.666666667 1040 432.333333333 1034.66666667 447 1024 c 0
 469 1004 497.333333333 976 532 940 c 0
 556.666666667 914.666666667 577.666666667 895.333333333 595 882 c 1
 592.333333333 902.666666667 588 924.666666667 582 948 c 0
 562.666666667 1023.33333333 551.666666667 1068.33333333 549 1083 c 1
 549 1108.33333333 556.5 1128.5 571.5 1143.5 c 128
 586.5 1158.5 604.666666667 1166 626 1166 c 256
 647.333333333 1166 664.833333333 1157.83333333 678.5 1141.5 c 128
 692.166666667 1125.16666667 699 1104.33333333 699 1079 c 1
 686.333333333 1033.66666667 673.666666667 988.666666667 661 944 c 0
 655.666666667 922.666666667 652 902.666666667 650 884 c 1
 670 898 692.666666667 917.333333333 718 942 c 0
 760 983.333333333 788.666666667 1010.66666667 804 1024 c 1
 817.333333333 1032 831.666666667 1036 847 1036 c 0
 879.666666667 1036 904 1024.66666667 920 1002 c 0
 925.333333333 991.333333333 928 979.333333333 928 966 c 0
 928 948.666666667 923.333333333 933.166666667 914 919.5 c 128
 904.666666667 905.833333333 892.333333333 897.333333333 877 894 c 0
 861.666666667 889.333333333 823.333333333 879.666666667 762 865 c 0
 730 857 702.666666667 848.333333333 680 839 c 1
 698.666666667 829.666666667 725.666666667 820.666666667 761 812 c 0
 811.666666667 799.333333333 850.333333333 789 877 781 c 0
 892.333333333 777.666666667 904.666666667 769.5 914 756.5 c 128
 923.333333333 743.5 928 728.333333333 928 711 c 0
 928 698.333333333 925.333333333 687 920 677 c 0
EndSplineSet
EndChar

StartChar: plus.taml
Encoding: 13 -1 13
Width: 891
Flags: HW
LayerCount: 2
Fore
SplineSet
668 381 m 1
 514 381 l 1
 514 226 l 1
 344 226 l 1
 344 381 l 1
 191 381 l 1
 191 541 l 1
 344 541 l 1
 344 699 l 1
 514 699 l 1
 514 541 l 1
 668 541 l 1
 668 381 l 1
EndSplineSet
EndChar

StartChar: comma.taml
Encoding: 14 -1 14
Width: 573
Flags: HW
LayerCount: 2
Fore
SplineSet
467 68 m 0
 467 -1.33333333333 443 -63 395 -117 c 0
 359.666666667 -156.333333333 313.666666667 -189.333333333 257 -216 c 0
 213.666666667 -236 184 -246 168 -246 c 1
 168 -186 l 1
 196.666666667 -183.333333333 234.666666667 -160.666666667 282 -118 c 0
 337.333333333 -68 365 -19 365 29 c 0
 365 33 363.666666667 35.6666666667 361 37 c 0
 356 37 356 37 354 37 c 0
 348 37 330.666666667 28.6666666667 302 12 c 0
 288 4 275.333333333 0 264 0 c 0
 240 0 215.333333333 14.3333333333 190 43 c 128
 164.666666667 71.6666666667 152 101 152 131 c 0
 152 165 165.333333333 194.666666667 192 220 c 128
 218.666666667 245.333333333 249.666666667 258 285 258 c 0
 337 258 381 237.666666667 417 197 c 0
 450.333333333 159 467 116 467 68 c 0
EndSplineSet
EndChar

StartChar: hyphen.taml
Encoding: 15 -1 15
Width: 891
Flags: HW
LayerCount: 2
Fore
SplineSet
647 379 m 1
 49 379 l 1
 49 547 l 1
 647 547 l 1
 647 379 l 1
EndSplineSet
EndChar

StartChar: period.taml
Encoding: 16 -1 16
Width: 506
Flags: HW
LayerCount: 2
Fore
SplineSet
358 127 m 256
 358 91.6666666667 343.5 61.6666666667 314.5 37 c 128
 285.5 12.3333333333 251 0 211 0 c 0
 173 0 140 12.3333333333 112 37 c 128
 84 61.6666666667 70 91.6666666667 70 127 c 0
 70 161.666666667 83.8333333333 191.5 111.5 216.5 c 128
 139.166666667 241.5 172.333333333 254 211 254 c 0
 251 254 285.5 241.666666667 314.5 217 c 128
 343.5 192.333333333 358 162.333333333 358 127 c 256
EndSplineSet
EndChar

StartChar: slash.taml
Encoding: 18 -1 18
Width: 563
Flags: HW
LayerCount: 2
Fore
SplineSet
568 1258 m 1
 68 -193 l 1
 -45 -193 l 1
 457 1258 l 1
 568 1258 l 1
EndSplineSet
EndChar

StartChar: zero.taml
Encoding: 19 -1 19
Width: 711
Flags: HW
LayerCount: 2
Fore
SplineSet
680 451 m 0
 680 418.333333333 677.666666667 384.666666667 673 350 c 128
 668.333333333 315.333333333 661 280 651 244 c 0
 631 172.666666667 596.333333333 111 547 59 c 128
 497.666666667 7 433.666666667 -19 355 -19 c 0
 275 -19 211 6.83333333333 163 58.5 c 128
 115 110.166666667 81.3333333333 171.833333333 62 243.5 c 128
 42.6666666667 315.166666667 33 384.333333333 33 451 c 0
 33 515.666666667 42.6666666667 584.5 62 657.5 c 128
 81.3333333333 730.5 115 792.833333333 163 844.5 c 128
 211 896.166666667 275 922 355 922 c 0
 433.666666667 922 497.666666667 896.166666667 547 844.5 c 128
 596.333333333 792.833333333 630.833333333 730.5 650.5 657.5 c 128
 670.166666667 584.5 680 515.666666667 680 451 c 0
518 451 m 0
 518 721 463.666666667 856 355 856 c 0
 248.333333333 856 195 721 195 451 c 0
 195 382.333333333 198 319.333333333 204 262 c 128
 210 204.666666667 224.833333333 154.166666667 248.5 110.5 c 128
 272.166666667 66.8333333333 307.666666667 45 355 45 c 0
 463.666666667 45 518 180.333333333 518 451 c 0
EndSplineSet
EndChar

StartChar: one.taml
Encoding: 20 -1 20
Width: 711
Flags: HW
LayerCount: 2
Fore
SplineSet
568 0 m 1
 160 0 l 1
 160 49 l 1
 207.333333333 49 241 54.1666666667 261 64.5 c 128
 281 74.8333333333 291 99 291 137 c 2
 291 731 l 2
 291 762.333333333 280 778 258 778 c 0
 247.333333333 778 212 766.666666667 152 744 c 1
 152 793 l 1
 412 922 l 1
 439 910 l 1
 439 113 l 2
 439 93.6666666667 442.5 79.8333333333 449.5 71.5 c 128
 456.5 63.1666666667 468.333333333 57.5 485 54.5 c 128
 501.666666667 51.5 516.5 49.8333333333 529.5 49.5 c 128
 542.5 49.1666666667 555.333333333 49 568 49 c 1
 568 0 l 1
EndSplineSet
EndChar

StartChar: two.taml
Encoding: 21 -1 21
Width: 711
Flags: HW
LayerCount: 2
Fore
SplineSet
682 205 m 1
 596 0 l 1
 39 0 l 1
 39 37 l 1
 61 59 61 59 83 81 c 0
 116.333333333 114.333333333 149.666666667 147.833333333 183 181.5 c 128
 216.333333333 215.166666667 251 251.666666667 287 291 c 0
 342.333333333 351 385.166666667 409 415.5 465 c 128
 445.833333333 521 461 573 461 621 c 0
 461 663.666666667 447.333333333 703 420 739 c 128
 392.666666667 775 346.333333333 793 281 793 c 0
 230.333333333 793 192.5 778.666666667 167.5 750 c 128
 142.5 721.333333333 119 679 97 623 c 1
 41 635 l 1
 61.6666666667 736.333333333 99.8333333333 809.5 155.5 854.5 c 128
 211.166666667 899.5 274.666666667 922 346 922 c 0
 390 922 432.333333333 911.666666667 473 891 c 128
 513.666666667 870.333333333 546.5 840.833333333 571.5 802.5 c 128
 596.5 764.166666667 609 720 609 670 c 0
 609 607.333333333 591.333333333 549.333333333 556 496 c 0
 538 468 519.166666667 441.833333333 499.5 417.5 c 128
 479.833333333 393.166666667 456 366.666666667 428 338 c 2
 221 131 l 1
 514 131 l 2
 538.666666667 131 559 136 575 146 c 128
 591 156 612.333333333 180.333333333 639 219 c 1
 682 205 l 1
EndSplineSet
EndChar

StartChar: three.taml
Encoding: 22 -1 22
Width: 711
Flags: HW
LayerCount: 2
Fore
SplineSet
619 301 m 0
 619 237.666666667 602 181.666666667 568 133 c 128
 534 84.3333333333 487.166666667 46.8333333333 427.5 20.5 c 128
 367.833333333 -5.83333333333 300.666666667 -19 226 -19 c 0
 192.666666667 -19 156.666666667 -12.1666666667 118 1.5 c 128
 79.3333333333 15.1666666667 60 38.6666666667 60 72 c 0
 60 93.3333333333 66.8333333333 108.833333333 80.5 118.5 c 128
 94.1666666667 128.166666667 109.666666667 133 127 133 c 0
 135 133 142 132.333333333 148 131 c 128
 154 129.666666667 162.166666667 126.833333333 172.5 122.5 c 128
 182.833333333 118.166666667 198.666666667 109.333333333 220 96 c 0
 241.333333333 84 259.5 75 274.5 69 c 128
 289.5 63 305.333333333 60 322 60 c 0
 376.666666667 60 418.333333333 78.6666666667 447 116 c 128
 475.666666667 153.333333333 490 197.333333333 490 248 c 0
 490 373.333333333 395.666666667 436 207 436 c 1
 207 479 l 1
 357 524.333333333 432 594.666666667 432 690 c 0
 432 724 420.333333333 753 397 777 c 128
 373.666666667 801 341 813 299 813 c 0
 221 813 156.333333333 766 105 672 c 1
 58 684 l 1
 107.333333333 842.666666667 202 922 342 922 c 0
 426.666666667 922 486.5 900.666666667 521.5 858 c 128
 556.5 815.333333333 574 771.666666667 574 727 c 0
 574 661 536.333333333 601 461 547 c 1
 566.333333333 499 619 417 619 301 c 0
EndSplineSet
EndChar

StartChar: four.taml
Encoding: 23 -1 23
Width: 711
Flags: HW
LayerCount: 2
Fore
SplineSet
674 219 m 1
 535 219 l 1
 535 0 l 1
 400 0 l 1
 400 219 l 1
 17 219 l 1
 17 326 l 1
 451 922 l 1
 535 922 l 1
 535 336 l 1
 674 336 l 1
 674 219 l 1
398 336 m 1
 398 729 l 1
 115 336 l 1
 398 336 l 1
EndSplineSet
EndChar

StartChar: five.taml
Encoding: 24 -1 24
Width: 711
Flags: HW
LayerCount: 2
Fore
SplineSet
631 914 m 1
 574 787 l 2
 568.666666667 770.333333333 553.666666667 762 529 762 c 2
 271 762 l 1
 226 676 l 1
 290 667.333333333 348.166666667 653.333333333 400.5 634 c 128
 452.833333333 614.666666667 497 584.333333333 533 543 c 0
 565 505 586 471.166666667 596 441.5 c 128
 606 411.833333333 611 367.666666667 611 309 c 0
 611 249 594.833333333 194.166666667 562.5 144.5 c 128
 530.166666667 94.8333333333 484.833333333 55.1666666667 426.5 25.5 c 128
 368.166666667 -4.16666666667 302.666666667 -19 230 -19 c 0
 173.333333333 -19 128 -10 94 8 c 128
 60 26 43 48.6666666667 43 76 c 0
 43 120 66.3333333333 142 113 142 c 0
 131 142 147.666666667 138.5 163 131.5 c 128
 178.333333333 124.5 196 113.666666667 216 99 c 2
 265 68 l 2
 278.333333333 61.3333333333 293 58 309 58 c 0
 355 58 396 77.5 432 116.5 c 128
 468 155.5 486 209.666666667 486 279 c 0
 486 340.333333333 466 390 426 428 c 128
 386 466 337.333333333 494 280 512 c 0
 249.333333333 521.333333333 220.5 528.5 193.5 533.5 c 128
 166.5 538.5 139 541 111 541 c 0
 95.6666666667 541 88 553.333333333 88 578 c 1
 242 895 l 1
 537 895 l 2
 549 895 558.333333333 897.666666667 565 903 c 0
 566.333333333 904.333333333 570.666666667 908.833333333 578 916.5 c 128
 585.333333333 924.166666667 592 931.333333333 598 938 c 1
 631 914 l 1
EndSplineSet
EndChar

StartChar: six.taml
Encoding: 25 -1 25
Width: 711
Flags: HW
LayerCount: 2
Fore
SplineSet
668 303 m 0
 668 253.666666667 659.666666667 208.333333333 643 167 c 0
 622.333333333 115 589.333333333 71 544 35 c 128
 498.666666667 -1 437.666666667 -19 361 -19 c 0
 302.333333333 -19 249.5 -3.66666666667 202.5 27 c 128
 155.5 57.6666666667 117.833333333 104.5 89.5 167.5 c 128
 61.1666666667 230.5 47 308 47 400 c 0
 47 466.666666667 61 531.666666667 89 595 c 128
 117 658.333333333 157.5 715.166666667 210.5 765.5 c 128
 263.5 815.833333333 326.333333333 855.333333333 399 884 c 0
 437 899.333333333 475.5 911.166666667 514.5 919.5 c 128
 553.5 927.833333333 594.333333333 932 637 932 c 1
 641 885 l 1
 532.333333333 867 444.166666667 826.833333333 376.5 764.5 c 128
 308.833333333 702.166666667 264 629.666666667 242 547 c 1
 266 563.666666667 290.5 575.666666667 315.5 583 c 128
 340.5 590.333333333 369.333333333 594 402 594 c 0
 453.333333333 594 498.833333333 582.5 538.5 559.5 c 128
 578.166666667 536.5 609.666666667 502.833333333 633 458.5 c 128
 656.333333333 414.166666667 668 362.333333333 668 303 c 0
514 250 m 0
 514 418 457.333333333 502 344 502 c 0
 291.333333333 502 252 490.333333333 226 467 c 0
 210.666666667 449.666666667 203 411.666666667 203 353 c 0
 203 254.333333333 219.833333333 178.666666667 253.5 126 c 128
 287.166666667 73.3333333333 329.666666667 47 381 47 c 0
 422.333333333 47 454.833333333 64.3333333333 478.5 99 c 128
 502.166666667 133.666666667 514 184 514 250 c 0
EndSplineSet
EndChar

StartChar: seven.taml
Encoding: 26 -1 26
Width: 711
Flags: HW
LayerCount: 2
Fore
SplineSet
643 921 m 1
 641 887 l 1
 348 10 l 1
 228 10 l 1
 500 794 l 1
 223 794 l 2
 186.333333333 794 159.333333333 787 142 773 c 128
 124.666666667 759 101.333333333 730 72 686 c 1
 23 706 l 1
 113 921 l 1
 643 921 l 1
EndSplineSet
EndChar

StartChar: eight.taml
Encoding: 27 -1 27
Width: 711
Flags: HW
LayerCount: 2
Fore
SplineSet
637 213 m 0
 637 158.333333333 615.5 106 572.5 56 c 128
 529.5 6 455.333333333 -19 350 -19 c 0
 294.666666667 -19 245.666666667 -7.83333333333 203 14.5 c 128
 160.333333333 36.8333333333 128.5 65.3333333333 107.5 100 c 128
 86.5 134.666666667 76 170.333333333 76 207 c 0
 76 244.333333333 81.6666666667 276.333333333 93 303 c 0
 105.666666667 330.333333333 122.333333333 353.333333333 143 372 c 0
 155 382.666666667 168.666666667 394.333333333 184 407 c 128
 199.333333333 419.666666667 219.333333333 435 244 453 c 1
 182.666666667 506.333333333 140.666666667 549 118 581 c 128
 95.3333333333 613 84 653.666666667 84 703 c 0
 84 747 97 785.666666667 123 819 c 128
 149 852.333333333 183.333333333 877.833333333 226 895.5 c 128
 268.666666667 913.166666667 311.666666667 922 355 922 c 0
 432.333333333 922 494 902.333333333 540 863 c 128
 586 823.666666667 609 775.666666667 609 719 c 0
 609 668.333333333 593.166666667 626.5 561.5 593.5 c 128
 529.833333333 560.5 489 530.666666667 439 504 c 1
 518.333333333 447.333333333 571.166666667 397.333333333 597.5 354 c 128
 623.833333333 310.666666667 637 263.666666667 637 213 c 0
484 725 m 0
 484 761 472.333333333 791.5 449 816.5 c 128
 425.666666667 841.5 391.333333333 854 346 854 c 0
 302.666666667 854 270 842.166666667 248 818.5 c 128
 226 794.833333333 215 768 215 738 c 0
 215 672.666666667 267 609 371 547 c 1
 446.333333333 595 484 654.333333333 484 725 c 0
502 183 m 0
 502 212.333333333 495.666666667 237.166666667 483 257.5 c 128
 470.333333333 277.833333333 451 298.666666667 425 320 c 0
 403.666666667 337.333333333 363.666666667 366.666666667 305 408 c 1
 242.333333333 360.666666667 211 298.333333333 211 221 c 0
 211 190.333333333 217 161.666666667 229 135 c 128
 241 108.333333333 259 87 283 71 c 128
 307 55 335 47 367 47 c 0
 407 47 439.5 59.1666666667 464.5 83.5 c 128
 489.5 107.833333333 502 141 502 183 c 0
EndSplineSet
EndChar

StartChar: nine.taml
Encoding: 28 -1 28
Width: 711
Flags: HW
LayerCount: 2
Fore
SplineSet
656 537 m 0
 656 441 633.5 351.166666667 588.5 267.5 c 128
 543.5 183.833333333 477 115 389 61 c 0
 341.666666667 32.3333333333 293 9.83333333333 243 -6.5 c 128
 193 -22.8333333333 139.333333333 -31 82 -31 c 1
 76 25 l 1
 214.666666667 47 312.333333333 96 369 172 c 0
 418.333333333 237.333333333 455.333333333 301.666666667 480 365 c 1
 462.666666667 351 437.666666667 339 405 329 c 128
 372.333333333 319 337.666666667 314 301 314 c 0
 213.666666667 314 148.5 342.666666667 105.5 400 c 128
 62.5 457.333333333 41 520 41 588 c 0
 41 650.666666667 53.1666666667 707.333333333 77.5 758 c 128
 101.833333333 808.666666667 137 848.666666667 183 878 c 128
 229 907.333333333 282 922 342 922 c 0
 400 922 453 905.833333333 501 873.5 c 128
 549 841.166666667 586.833333333 795.666666667 614.5 737 c 128
 642.166666667 678.333333333 656 611.666666667 656 537 c 0
494 535 m 2
 494 598.333333333 491 646.166666667 485 678.5 c 128
 479 710.833333333 469.666666667 739.333333333 457 764 c 0
 442.333333333 793.333333333 425.666666667 815 407 829 c 0
 385 845.666666667 358 854 326 854 c 0
 240 854 197 782.333333333 197 639 c 0
 197 575 208.333333333 518.833333333 231 470.5 c 128
 253.666666667 422.166666667 295 398 355 398 c 0
 377 398 398.833333333 402 420.5 410 c 128
 442.166666667 418 460.333333333 429 475 443 c 0
 483 450.333333333 488.166666667 459.5 490.5 470.5 c 128
 492.833333333 481.5 494 496 494 514 c 2
 494 535 l 2
EndSplineSet
EndChar

StartChar: colon.taml
Encoding: 29 -1 29
Width: 506
Flags: HW
LayerCount: 2
Fore
SplineSet
332 670 m 0
 332 632 317.166666667 599.5 287.5 572.5 c 128
 257.833333333 545.5 223.333333333 532 184 532 c 0
 146 532 113 545.333333333 85 572 c 128
 57 598.666666667 43 631.333333333 43 670 c 0
 43 707.333333333 56.8333333333 739.5 84.5 766.5 c 128
 112.166666667 793.5 145.333333333 807 184 807 c 0
 223.333333333 807 257.833333333 793.5 287.5 766.5 c 128
 317.166666667 739.5 332 707.333333333 332 670 c 0
332 117 m 0
 332 79 317.333333333 46.6666666667 288 20 c 128
 258.666666667 -6.66666666667 224 -20 184 -20 c 0
 146 -20 113 -6.66666666667 85 20 c 128
 57 46.6666666667 43 79 43 117 c 256
 43 155 57 187.333333333 85 214 c 128
 113 240.666666667 146 254 184 254 c 0
 223.333333333 254 257.833333333 240.5 287.5 213.5 c 128
 317.166666667 186.5 332 154.333333333 332 117 c 0
EndSplineSet
EndChar

StartChar: semicolon.taml
Encoding: 30 -1 30
Width: 506
Flags: HW
LayerCount: 2
Fore
SplineSet
387 670 m 0
 387 631.333333333 372.333333333 598.333333333 343 571 c 128
 313.666666667 543.666666667 279.333333333 530 240 530 c 0
 201.333333333 530 168 543.666666667 140 571 c 128
 112 598.333333333 98 631.333333333 98 670 c 0
 98 708 112 740.333333333 140 767 c 128
 168 793.666666667 201.333333333 807 240 807 c 256
 278.666666667 807 312.833333333 793.5 342.5 766.5 c 128
 372.166666667 739.5 387 707.333333333 387 670 c 0
387 76 m 0
 387 4.66666666667 363 -58.6666666667 315 -114 c 0
 279.666666667 -155.333333333 233.666666667 -189.333333333 177 -216 c 0
 135 -236 105.333333333 -246 88 -246 c 1
 88 -184 l 1
 116.666666667 -181.333333333 154.666666667 -158 202 -114 c 0
 257.333333333 -62.6666666667 285 -12.3333333333 285 37 c 0
 285 42.3333333333 281.333333333 45 274 45 c 0
 268 45 250.666666667 36.3333333333 222 19 c 0
 208 10.3333333333 195.333333333 6 184 6 c 0
 160 6 135.333333333 20.6666666667 110 50 c 128
 84.6666666667 79.3333333333 72 109.666666667 72 141 c 0
 72 176.333333333 85.3333333333 207.333333333 112 234 c 128
 138.666666667 260.666666667 169.666666667 274 205 274 c 0
 257.666666667 274 301.666666667 253 337 211 c 0
 370.333333333 171.666666667 387 126.666666667 387 76 c 0
EndSplineSet
EndChar

StartChar: less.taml
Encoding: 31 -1 31
Width: 1110
Flags: HW
LayerCount: 2
Fore
SplineSet
905 -13 m 1
 47 359 l 1
 47 471 l 1
 905 840 l 1
 905 703 l 1
 234 414 l 1
 905 125 l 1
 905 -13 l 1
EndSplineSet
EndChar

StartChar: equal.taml
Encoding: 32 -1 32
Width: 1186
Flags: HW
LayerCount: 2
Fore
SplineSet
1022 606 m 1
 164 606 l 1
 164 735 l 1
 1022 735 l 1
 1022 606 l 1
1022 301 m 1
 164 301 l 1
 164 430 l 1
 1022 430 l 1
 1022 301 l 1
EndSplineSet
EndChar

StartChar: greater.taml
Encoding: 33 -1 33
Width: 1110
Flags: HW
LayerCount: 2
Fore
SplineSet
905 359 m 1
 47 -13 l 1
 47 125 l 1
 717 414 l 1
 47 703 l 1
 47 840 l 1
 905 471 l 1
 905 359 l 1
EndSplineSet
EndChar

StartChar: question.taml
Encoding: 34 -1 34
Width: 846
Flags: HW
LayerCount: 2
Fore
SplineSet
662 645 m 0
 662 607 649 564 623 516 c 128
 597 468 567.666666667 424.333333333 535 385 c 0
 489 334.333333333 455 288.166666667 433 246.5 c 128
 411 204.833333333 393.666666667 148.666666667 381 78 c 1
 326 78 l 1
 326 116.666666667 329.833333333 156 337.5 196 c 128
 345.166666667 236 357.666666667 279.333333333 375 326 c 0
 379.666666667 338.666666667 385.333333333 352 392 366 c 0
 410 404 420 425.333333333 422 430 c 0
 440 476.666666667 454.5 519.666666667 465.5 559 c 128
 476.5 598.333333333 482 632 482 660 c 0
 482 708.666666667 467.833333333 751.833333333 439.5 789.5 c 128
 411.166666667 827.166666667 370 846 316 846 c 0
 284 846 253.333333333 838 224 822 c 128
 194.666666667 806 180 786.666666667 180 764 c 0
 180 752 190.333333333 734.166666667 211 710.5 c 128
 231.666666667 686.833333333 242 665 242 645 c 0
 242 626.333333333 235.166666667 608.333333333 221.5 591 c 128
 207.833333333 573.666666667 188 565 162 565 c 0
 98 565 66 603.333333333 66 680 c 0
 66 759.333333333 95.6666666667 819.833333333 155 861.5 c 128
 214.333333333 903.166666667 278.666666667 924 348 924 c 0
 395.333333333 924 443.333333333 914.333333333 492 895 c 128
 540.666666667 875.666666667 576 853.333333333 598 828 c 0
 622.666666667 796.666666667 639.5 769 648.5 745 c 128
 657.5 721 662 687.666666667 662 645 c 0
463 -97 m 0
 463 -127 452.166666667 -150.833333333 430.5 -168.5 c 128
 408.833333333 -186.166666667 385 -195 359 -195 c 256
 333 -195 309.333333333 -186.833333333 288 -170.5 c 128
 266.666666667 -154.166666667 256 -129.666666667 256 -97 c 0
 256 -69.6666666667 265.833333333 -46.3333333333 285.5 -27 c 128
 305.166666667 -7.66666666667 329.666666667 2 359 2 c 0
 387 2 411.333333333 -7.83333333333 432 -27.5 c 128
 452.666666667 -47.1666666667 463 -70.3333333333 463 -97 c 0
EndSplineSet
EndChar

StartChar: u0952
Encoding: 38 2386 38
Width: 20
Flags: HW
LayerCount: 2
Fore
SplineSet
-432 -745 m 1
 -1137 -745 l 1
 -1223 -608 l 1
 -518 -608 l 1
 -432 -745 l 1
EndSplineSet
EndChar

StartChar: u0B83
Encoding: 40 2947 40
Width: 1047
Flags: HW
LayerCount: 2
Fore
SplineSet
547 785 m 0
 547 751.666666667 534.666666667 722.5 510 697.5 c 128
 485.333333333 672.5 456 660 422 660 c 256
 388 660 358.333333333 672.5 333 697.5 c 128
 307.666666667 722.5 295 751.666666667 295 785 c 0
 295 817.666666667 307.666666667 846.666666667 333 872 c 128
 358.333333333 897.333333333 388 910 422 910 c 0
 468 910 504 888.666666667 530 846 c 0
 541.333333333 826.666666667 547 806.333333333 547 785 c 0
842 137 m 256
 842 103 829.5 73.8333333333 804.5 49.5 c 128
 779.5 25.1666666667 750.333333333 13 717 13 c 0
 683 13 653.333333333 25.1666666667 628 49.5 c 128
 602.666666667 73.8333333333 590 103 590 137 c 256
 590 171 602.666666667 200.666666667 628 226 c 128
 653.333333333 251.333333333 683 264 717 264 c 256
 751 264 780.333333333 251.333333333 805 226 c 128
 829.666666667 200.666666667 842 171 842 137 c 256
252 137 m 0
 252 103.666666667 239.5 74.6666666667 214.5 50 c 128
 189.5 25.3333333333 159.666666667 13 125 13 c 0
 91.6666666667 13 62.5 25.1666666667 37.5 49.5 c 128
 12.5 73.8333333333 0 103 0 137 c 0
 0 171.666666667 12.5 201.5 37.5 226.5 c 128
 62.5 251.5 91.6666666667 264 125 264 c 0
 159.666666667 264 189.5 251.333333333 214.5 226 c 128
 239.5 200.666666667 252 171 252 137 c 0
EndSplineSet
EndChar

StartChar: u0B85
Encoding: 41 2949 41
Width: 1676
Flags: HW
AnchorPoint: "V" 736.5 939 basechar 0
AnchorPoint: "N" 736.5 1.16502 basechar 0
LayerCount: 2
Fore
SplineSet
1471 -150 m 1
 1297 -150 l 1
 1297 271 l 1
 1123 271 l 1
 1071.66666667 187 994.5 120.833333333 891.5 72.5 c 128
 788.5 24.1666666667 673.666666667 0 547 0 c 0
 439 0 349.166666667 13.3333333333 277.5 40 c 128
 205.833333333 66.6666666667 149.333333333 99.6666666667 108 139 c 0
 88.6666666667 157.666666667 71.1666666667 177.5 55.5 198.5 c 128
 39.8333333333 219.5 25.6666666667 241.333333333 13 264 c 0
 5.66666666667 275.333333333 2 287.666666667 2 301 c 0
 2 342.333333333 27.3333333333 363 78 363 c 2
 991 363 l 1
 1027 423 1045 489 1045 561 c 0
 1045 679 991.666666667 758.333333333 885 799 c 1
 917.666666667 761.666666667 934 707 934 635 c 0
 934 571 916.833333333 518.5 882.5 477.5 c 128
 848.166666667 436.5 793.666666667 416 719 416 c 0
 651.666666667 416 599.666666667 440.666666667 563 490 c 128
 526.333333333 539.333333333 508 598.666666667 508 668 c 0
 508 740.666666667 532 801 580 849 c 128
 628 897 696.333333333 921 785 921 c 0
 869.666666667 921 942.833333333 905.833333333 1004.5 875.5 c 128
 1066.16666667 845.166666667 1113.5 800 1146.5 740 c 128
 1179.5 680 1196 607.333333333 1196 522 c 0
 1196 495.333333333 1194 469.333333333 1190 444 c 128
 1186 418.666666667 1179.33333333 391.666666667 1170 363 c 1
 1297 363 l 1
 1297 921 l 1
 1471 921 l 1
 1471 -150 l 1
795 652 m 0
 795 686.666666667 788.166666667 718.166666667 774.5 746.5 c 128
 760.833333333 774.833333333 744.333333333 793.666666667 725 803 c 1
 688.333333333 803 658.666666667 789.333333333 636 762 c 128
 613.333333333 734.666666667 602 702.666666667 602 666 c 0
 602 628.666666667 611.5 599.166666667 630.5 577.5 c 128
 649.5 555.833333333 673 545 701 545 c 0
 728.333333333 545 750.833333333 555.833333333 768.5 577.5 c 128
 786.166666667 599.166666667 795 624 795 652 c 0
928 271 m 1
 140 271 l 2
 123.333333333 271 115 262.666666667 115 246 c 1
 185 144.666666667 316.666666667 94 510 94 c 0
 594.666666667 94 673.166666667 109.333333333 745.5 140 c 128
 817.833333333 170.666666667 878.666666667 214.333333333 928 271 c 1
EndSplineSet
EndChar

StartChar: u0B86
Encoding: 42 2950 42
Width: 2044
Flags: HW
AnchorPoint: "V" 920.5 939 basechar 0
AnchorPoint: "N" 920.5 -493.947 basechar 0
LayerCount: 2
Fore
SplineSet
1839 105 m 0
 1839 -25 1810.83333333 -135.166666667 1754.5 -225.5 c 128
 1698.16666667 -315.833333333 1619.83333333 -383.833333333 1519.5 -429.5 c 128
 1419.16666667 -475.166666667 1306 -498 1180 -498 c 0
 1064.66666667 -498 965.333333333 -487.5 882 -466.5 c 128
 798.666666667 -445.5 735.333333333 -414.666666667 692 -374 c 128
 648.666666667 -333.333333333 627 -285.333333333 627 -230 c 0
 627 -170 652.666666667 -124.166666667 704 -92.5 c 128
 755.333333333 -60.8333333333 818.333333333 -45 893 -45 c 0
 946.333333333 -45 998.833333333 -54.6666666667 1050.5 -74 c 128
 1102.16666667 -93.3333333333 1145.33333333 -118.666666667 1180 -150 c 1
 1147 -207 l 1
 1110.33333333 -177.666666667 1068.16666667 -156 1020.5 -142 c 128
 972.833333333 -128 927 -121 883 -121 c 0
 831 -121 790.333333333 -130.166666667 761 -148.5 c 128
 731.666666667 -166.833333333 717 -192.666666667 717 -226 c 0
 717 -289.333333333 756.5 -335.166666667 835.5 -363.5 c 128
 914.5 -391.833333333 1008.66666667 -406 1118 -406 c 0
 1224 -406 1319.16666667 -383.333333333 1403.5 -338 c 128
 1487.83333333 -292.666666667 1552.5 -231.5 1597.5 -154.5 c 128
 1642.5 -77.5 1665 6.33333333333 1665 97 c 0
 1665 173.666666667 1650.33333333 231.666666667 1621 271 c 128
 1591.66666667 310.333333333 1558 330 1520 330 c 0
 1500 330 1483.66666667 324.666666667 1471 314 c 1
 1471 -150 l 1
 1297 -150 l 1
 1297 271 l 1
 1123 271 l 1
 1071.66666667 187 994.5 120.833333333 891.5 72.5 c 128
 788.5 24.1666666667 673.666666667 0 547 0 c 0
 439 0 349.166666667 13.3333333333 277.5 40 c 128
 205.833333333 66.6666666667 149.333333333 99.6666666667 108 139 c 0
 88.6666666667 157.666666667 71.1666666667 177.5 55.5 198.5 c 128
 39.8333333333 219.5 25.6666666667 241.333333333 13 264 c 0
 5.66666666667 275.333333333 2 287.666666667 2 301 c 0
 2 342.333333333 27.3333333333 363 78 363 c 2
 991 363 l 1
 1027 423 1045 489 1045 561 c 0
 1045 679 991.666666667 758.333333333 885 799 c 1
 917.666666667 761.666666667 934 707 934 635 c 0
 934 571 916.833333333 518.5 882.5 477.5 c 128
 848.166666667 436.5 793.666666667 416 719 416 c 0
 651.666666667 416 599.666666667 440.666666667 563 490 c 128
 526.333333333 539.333333333 508 598.666666667 508 668 c 0
 508 740.666666667 532.166666667 801.166666667 580.5 849.5 c 128
 628.833333333 897.833333333 697 922 785 922 c 0
 868.333333333 922 941.166666667 906.666666667 1003.5 876 c 128
 1065.83333333 845.333333333 1113.5 800 1146.5 740 c 128
 1179.5 680 1196 607.333333333 1196 522 c 0
 1196 495.333333333 1194 469.333333333 1190 444 c 128
 1186 418.666666667 1179.33333333 391.666666667 1170 363 c 1
 1297 363 l 1
 1297 922 l 1
 1471 922 l 1
 1471 412 l 1
 1499 434 1533.66666667 445 1575 445 c 0
 1621.66666667 445 1665 431.833333333 1705 405.5 c 128
 1745 379.166666667 1777.33333333 340.166666667 1802 288.5 c 128
 1826.66666667 236.833333333 1839 175.666666667 1839 105 c 0
795 652 m 0
 795 688.666666667 787.833333333 720.666666667 773.5 748 c 128
 759.166666667 775.333333333 743 793.666666667 725 803 c 1
 688.333333333 803 658.666666667 789.333333333 636 762 c 128
 613.333333333 734.666666667 602 702.666666667 602 666 c 0
 602 628 612 598 632 576 c 0
 652.666666667 555.333333333 675.666666667 545 701 545 c 0
 729 545 751.666666667 556.166666667 769 578.5 c 128
 786.333333333 600.833333333 795 625.333333333 795 652 c 0
928 271 m 1
 140 271 l 2
 123.333333333 271 115 262.666666667 115 246 c 1
 185 144.666666667 316.666666667 94 510 94 c 0
 594.666666667 94 673.166666667 109.333333333 745.5 140 c 128
 817.833333333 170.666666667 878.666666667 214.333333333 928 271 c 1
EndSplineSet
EndChar

StartChar: u0B87
Encoding: 43 2951 43
Width: 1585
Flags: HW
AnchorPoint: "V" 690.5 1310.85 basechar 0
AnchorPoint: "N" 690.5 -180 basechar 0
LayerCount: 2
Fore
SplineSet
1381 506 m 0
 1381 405.333333333 1371.33333333 307.833333333 1352 213.5 c 128
 1332.66666667 119.166666667 1311.33333333 40 1288 -24 c 0
 1274.66666667 -62 1263.33333333 -92.3333333333 1254 -115 c 0
 1242.66666667 -142.333333333 1232.33333333 -165 1223 -183 c 1
 1149 -154 l 1
 1181.66666667 -92 1212.66666667 -6.16666666667 1242 103.5 c 128
 1271.33333333 213.166666667 1286 332.333333333 1286 461 c 0
 1286 598.333333333 1259.5 718.833333333 1206.5 822.5 c 128
 1153.5 926.166666667 1080.5 1005.5 987.5 1060.5 c 128
 894.5 1115.5 790 1143 674 1143 c 0
 566.666666667 1143 469 1122.16666667 381 1080.5 c 128
 293 1038.83333333 223.166666667 980.666666667 171.5 906 c 128
 119.833333333 831.333333333 94 749.333333333 94 660 c 0
 94 606 102.833333333 546.666666667 120.5 482 c 128
 138.166666667 417.333333333 165 352.333333333 201 287 c 1
 259.666666667 317.666666667 324.666666667 341.666666667 396 359 c 128
 467.333333333 376.333333333 539 385 611 385 c 0
 664.333333333 385 716 381 766 373 c 1
 780 419 787 468 787 520 c 0
 787 666 733.666666667 759 627 799 c 1
 658.333333333 759.666666667 674 705 674 635 c 0
 674 571 656.833333333 518.5 622.5 477.5 c 128
 588.166666667 436.5 533.666666667 416 459 416 c 0
 393 416 341.666666667 440.666666667 305 490 c 128
 268.333333333 539.333333333 250 598.666666667 250 668 c 0
 250 740.666666667 274.166666667 801.166666667 322.5 849.5 c 128
 370.833333333 897.833333333 438.333333333 922 525 922 c 0
 609 922 682.166666667 906.666666667 744.5 876 c 128
 806.833333333 845.333333333 854.666666667 799.666666667 888 739 c 128
 921.333333333 678.333333333 938 606 938 522 c 0
 938 456 930 393.333333333 914 334 c 1
 982 308 1036.16666667 273.833333333 1076.5 231.5 c 128
 1116.83333333 189.166666667 1137 141.333333333 1137 88 c 0
 1137 0 1103.33333333 -66.6666666667 1036 -112 c 0
 1002.66666667 -134.666666667 964 -151.666666667 920 -163 c 128
 876 -174.333333333 825.333333333 -180 768 -180 c 0
 682.666666667 -180 600 -163.666666667 520 -131 c 1
 444 -163.666666667 363 -180 277 -180 c 0
 193 -180 125.833333333 -162 75.5 -126 c 128
 25.1666666667 -90 0 -36.3333333333 0 35 c 0
 0 109 39.6666666667 176.666666667 119 238 c 1
 39.6666666667 382.666666667 0 526.666666667 0 670 c 0
 0 771.333333333 18 862.833333333 54 944.5 c 128
 90 1026.16666667 138.833333333 1093.83333333 200.5 1147.5 c 128
 262.166666667 1201.16666667 333.833333333 1241.83333333 415.5 1269.5 c 128
 497.166666667 1297.16666667 583.333333333 1311 674 1311 c 0
 780 1311 876.833333333 1292.83333333 964.5 1256.5 c 128
 1052.16666667 1220.16666667 1126.66666667 1168 1188 1100 c 0
 1217.33333333 1066.66666667 1244.33333333 1028.33333333 1269 985 c 128
 1293.66666667 941.666666667 1314 895.333333333 1330 846 c 0
 1364 744.666666667 1381 631.333333333 1381 506 c 0
535 652 m 0
 535 688.666666667 527.833333333 720.666666667 513.5 748 c 128
 499.166666667 775.333333333 483 793.666666667 465 803 c 1
 428.333333333 803 399 789.5 377 762.5 c 128
 355 735.5 344 703.333333333 344 666 c 256
 344 628.666666667 353.666666667 598.666666667 373 576 c 0
 393.666666667 555.333333333 416.333333333 545 441 545 c 0
 469 545 491.666666667 556.166666667 509 578.5 c 128
 526.333333333 600.833333333 535 625.333333333 535 652 c 0
973 92 m 0
 973 142.666666667 941.666666667 187.333333333 879 226 c 1
 824.333333333 105.333333333 743 6.66666666667 635 -70 c 1
 678.333333333 -80.6666666667 723.333333333 -86 770 -86 c 0
 813.333333333 -86 850.333333333 -78 881 -62 c 128
 911.666666667 -46 934.666666667 -24.3333333333 950 3 c 128
 965.333333333 30.3333333333 973 60 973 92 c 0
733 283 m 1
 697 292.333333333 654.666666667 297 606 297 c 0
 549.333333333 297 489.333333333 288.833333333 426 272.5 c 128
 362.666666667 256.166666667 306 233.666666667 256 205 c 1
 293.333333333 157 316.666666667 128.333333333 326 119 c 0
 372.666666667 70.3333333333 428.666666667 26.3333333333 494 -13 c 1
 600.666666667 56.3333333333 680.333333333 155 733 283 c 1
391 -64 m 1
 361 -43.3333333333 333.5 -22.3333333333 308.5 -1 c 128
 283.5 20.3333333333 260.833333333 42.1666666667 240.5 64.5 c 128
 220.166666667 86.8333333333 198 116 174 152 c 1
 120.666666667 112.666666667 94 71 94 27 c 0
 94 -7.66666666667 110.5 -35.1666666667 143.5 -55.5 c 128
 176.5 -75.8333333333 218.333333333 -86 269 -86 c 0
 306.333333333 -86 347 -78.6666666667 391 -64 c 1
EndSplineSet
EndChar

StartChar: u0B88
Encoding: 44 2952 44
Width: 1059
Flags: HW
AnchorPoint: "V" 427 939 basechar 0
AnchorPoint: "N" 427 0 basechar 0
LayerCount: 2
Fore
SplineSet
854 461 m 0
 854 433 844 409.333333333 824 390 c 128
 804 370.666666667 780.666666667 361 754 361 c 0
 726 361 702.333333333 371 683 391 c 128
 663.666666667 411 654 434.333333333 654 461 c 0
 654 489 663.666666667 513 683 533 c 128
 702.333333333 553 726 563 754 563 c 0
 781.333333333 563 804.833333333 552.833333333 824.5 532.5 c 128
 844.166666667 512.166666667 854 488.333333333 854 461 c 0
793 828 m 1
 592 828 l 1
 592 0 l 1
 420 0 l 1
 420 828 l 1
 94 828 l 1
 94 0 l 1
 0 0 l 1
 0 922 l 1
 793 922 l 1
 793 828 l 1
355 461 m 0
 355 434.333333333 345.333333333 411 326 391 c 128
 306.666666667 371 283.333333333 361 256 361 c 0
 228 361 204.333333333 371 185 391 c 128
 165.666666667 411 156 434.333333333 156 461 c 0
 156 488.333333333 165.5 512.166666667 184.5 532.5 c 128
 203.5 552.833333333 227.333333333 563 256 563 c 0
 283.333333333 563 306.666666667 552.833333333 326 532.5 c 128
 345.333333333 512.166666667 355 488.333333333 355 461 c 0
EndSplineSet
EndChar

StartChar: u0B89
Encoding: 45 2953 45
Width: 1639
Flags: HW
AnchorPoint: "V" 772 939 basechar 0
AnchorPoint: "N" 772 0 basechar 0
LayerCount: 2
Fore
SplineSet
1546 43 m 0
 1546 14.3333333333 1523.66666667 0 1479 0 c 2
 170 0 l 2
 117.333333333 0 75.5 14 44.5 42 c 128
 13.5 70 -2 102.666666667 -2 140 c 0
 -2 178 13.1666666667 210.666666667 43.5 238 c 128
 73.8333333333 265.333333333 116 279 170 279 c 2
 422 279 l 2
 478.666666667 279 525 305 561 357 c 128
 597 409 615 465.666666667 615 527 c 0
 615 727.666666667 522.666666667 828 338 828 c 0
 286.666666667 828 238.5 815.666666667 193.5 791 c 128
 148.5 766.333333333 119 736.333333333 105 701 c 1
 137 735 180 752 234 752 c 0
 272.666666667 752 307.333333333 741.833333333 338 721.5 c 128
 368.666666667 701.166666667 392.333333333 674.166666667 409 640.5 c 128
 425.666666667 606.833333333 434 569.666666667 434 529 c 0
 434 461 414.166666667 407.833333333 374.5 369.5 c 128
 334.833333333 331.166666667 281.666666667 312 215 312 c 0
 71.6666666667 312 0 414.333333333 0 619 c 0
 0 669 14.6666666667 717.5 44 764.5 c 128
 73.3333333333 811.5 115.666666667 849.333333333 171 878 c 0
 199 892.666666667 228.833333333 903.666666667 260.5 911 c 128
 292.166666667 918.333333333 327 922 365 922 c 0
 455 922 531 905.666666667 593 873 c 128
 655 840.333333333 701.333333333 795.166666667 732 737.5 c 128
 762.666666667 679.833333333 778 612.333333333 778 535 c 0
 778 415.666666667 748 326 688 266 c 128
 628 206 540 176 424 176 c 2
 226 176 l 2
 204.666666667 176 188 172 176 164 c 128
 164 156 158 145 158 131 c 0
 158 117.666666667 163.666666667 106.5 175 97.5 c 128
 186.333333333 88.5 202.333333333 84 223 84 c 2
 1479 84 l 2
 1523.66666667 84 1546 70.3333333333 1546 43 c 0
285 533 m 0
 285 546.333333333 282.666666667 559.666666667 278 573 c 0
 271.333333333 591 261.666666667 605 249 615 c 0
 232.333333333 628.333333333 213 635 191 635 c 0
 151 635 118.666666667 614.666666667 94 574 c 1
 94 531.333333333 103.5 495.666666667 122.5 467 c 128
 141.5 438.333333333 167 424 199 424 c 0
 225.666666667 424 246.666666667 435 262 457 c 0
 269.333333333 467.666666667 275 479.333333333 279 492 c 128
 283 504.666666667 285 518.333333333 285 533 c 0
EndSplineSet
EndChar

StartChar: u0B8A
Encoding: 46 2954 46
Width: 2642
Flags: HW
AnchorPoint: "V" 1217.5 939 basechar 0
AnchorPoint: "N" 1217.5 0 basechar 0
LayerCount: 2
Fore
SplineSet
2437 828 m 1
 2239 828 l 1
 2239 121 l 1
 2065 121 l 1
 2065 828 l 1
 1860 828 l 1
 1860 121 l 1
 1686 121 l 1
 1686 639 l 2
 1686 694.333333333 1661.33333333 739.666666667 1612 775 c 128
 1562.66666667 810.333333333 1497 828 1415 828 c 0
 1331 828 1256.66666667 810 1192 774 c 128
 1127.33333333 738 1085 698 1065 654 c 1
 1110.33333333 685.333333333 1167.66666667 701 1237 701 c 0
 1285.66666667 701 1330 689 1370 665 c 128
 1410 641 1441.5 607.833333333 1464.5 565.5 c 128
 1487.5 523.166666667 1499 474.666666667 1499 420 c 0
 1499 328 1479.5 255.166666667 1440.5 201.5 c 128
 1401.5 147.833333333 1344.66666667 121 1270 121 c 0
 1176 121 1100.66666667 156.833333333 1044 228.5 c 128
 987.333333333 300.166666667 959 398 959 522 c 0
 959 606 977.5 677.833333333 1014.5 737.5 c 128
 1051.5 797.166666667 1103.33333333 843 1170 875 c 0
 1203.33333333 890.333333333 1238.83333333 902 1276.5 910 c 128
 1314.16666667 918 1354.33333333 922 1397 922 c 0
 1499 922 1581 911.333333333 1643 890 c 128
 1705 868.666666667 1749.33333333 841 1776 807 c 1
 1776 922 l 1
 2437 922 l 1
 2437 828 l 1
2423 43 m 0
 2423 14.3333333333 2400.33333333 0 2355 0 c 2
 170 0 l 2
 117.333333333 0 75.5 14 44.5 42 c 128
 13.5 70 -2 102.666666667 -2 140 c 0
 -2 178 13.1666666667 210.666666667 43.5 238 c 128
 73.8333333333 265.333333333 116 279 170 279 c 2
 422 279 l 2
 478.666666667 279 525 305 561 357 c 128
 597 409 615 465.666666667 615 527 c 0
 615 727.666666667 522.666666667 828 338 828 c 0
 286.666666667 828 238.5 815.666666667 193.5 791 c 128
 148.5 766.333333333 119 736.333333333 105 701 c 1
 137 735 180 752 234 752 c 0
 272.666666667 752 307.333333333 741.833333333 338 721.5 c 128
 368.666666667 701.166666667 392.333333333 674.166666667 409 640.5 c 128
 425.666666667 606.833333333 434 569.666666667 434 529 c 0
 434 461 414.166666667 407.833333333 374.5 369.5 c 128
 334.833333333 331.166666667 281.666666667 312 215 312 c 0
 71.6666666667 312 0 414.333333333 0 619 c 0
 0 669 14.6666666667 717.5 44 764.5 c 128
 73.3333333333 811.5 115.666666667 849.333333333 171 878 c 0
 199 892.666666667 228.833333333 903.666666667 260.5 911 c 128
 292.166666667 918.333333333 327 922 365 922 c 0
 455 922 531 905.666666667 593 873 c 128
 655 840.333333333 701.333333333 795.166666667 732 737.5 c 128
 762.666666667 679.833333333 778 612.333333333 778 535 c 0
 778 415.666666667 748 326 688 266 c 128
 628 206 540 176 424 176 c 2
 226 176 l 2
 204.666666667 176 188 172 176 164 c 128
 164 156 158 145 158 131 c 0
 158 117.666666667 163.666666667 106.5 175 97.5 c 128
 186.333333333 88.5 202.333333333 84 223 84 c 2
 2355 84 l 2
 2400.33333333 84 2423 70.3333333333 2423 43 c 0
1319 422 m 0
 1319 461.333333333 1305.5 497.5 1278.5 530.5 c 128
 1251.5 563.5 1220 580 1184 580 c 0
 1150.66666667 580 1122 571.166666667 1098 553.5 c 128
 1074 535.833333333 1058.33333333 514 1051 488 c 1
 1051 440 1064.83333333 391.5 1092.5 342.5 c 128
 1120.16666667 293.5 1156 269 1200 269 c 0
 1237.33333333 269 1266.5 283.833333333 1287.5 313.5 c 128
 1308.5 343.166666667 1319 379.333333333 1319 422 c 0
285 533 m 0
 285 546.333333333 282.666666667 559.666666667 278 573 c 0
 271.333333333 591 261.666666667 605 249 615 c 0
 232.333333333 628.333333333 213 635 191 635 c 0
 151 635 118.666666667 614.666666667 94 574 c 1
 94 531.333333333 103.5 495.666666667 122.5 467 c 128
 141.5 438.333333333 167 424 199 424 c 0
 225.666666667 424 246.666666667 435 262 457 c 0
 269.333333333 467.666666667 275 479.333333333 279 492 c 128
 283 504.666666667 285 518.333333333 285 533 c 0
EndSplineSet
EndChar

StartChar: u0B8E
Encoding: 47 2958 47
Width: 1307
Flags: HW
AnchorPoint: "V" 551 939 basechar 0
AnchorPoint: "N" 551 18.1478 basechar 0
LayerCount: 2
Fore
SplineSet
1102 828 m 1
 901 828 l 1
 901 0 l 1
 729 0 l 1
 729 828 l 1
 457 828 l 2
 351 828 267.833333333 800.166666667 207.5 744.5 c 128
 147.166666667 688.833333333 111.666666667 625.666666667 101 555 c 1
 145 595 203.666666667 615 277 615 c 0
 329.666666667 615 377 602.333333333 419 577 c 128
 461 551.666666667 493.5 516.833333333 516.5 472.5 c 128
 539.5 428.166666667 551 377.333333333 551 320 c 0
 551 222.666666667 531.166666667 145 491.5 87 c 128
 451.833333333 29 392.666666667 0 314 0 c 0
 248.666666667 0 192.333333333 16.8333333333 145 50.5 c 128
 97.6666666667 84.1666666667 61.6666666667 133.333333333 37 198 c 128
 12.3333333333 262.666666667 0 338.666666667 0 426 c 0
 0 502 10.5 571 31.5 633 c 128
 52.5 695 82.3333333333 747.333333333 121 790 c 128
 159.666666667 832.666666667 206.166666667 865.333333333 260.5 888 c 128
 314.833333333 910.666666667 374.333333333 922 439 922 c 2
 1102 922 l 1
 1102 828 l 1
377 316 m 0
 377 360.666666667 362.833333333 401.5 334.5 438.5 c 128
 306.166666667 475.5 272.666666667 494 234 494 c 0
 198.666666667 494 169 484 145 464 c 0
 121 445.333333333 104 420.333333333 94 389 c 1
 94 319.666666667 107.5 261.5 134.5 214.5 c 128
 161.5 167.5 200.666666667 144 252 144 c 0
 293.333333333 144 324.5 160.666666667 345.5 194 c 128
 366.5 227.333333333 377 268 377 316 c 0
EndSplineSet
EndChar

StartChar: u0B8F
Encoding: 48 2959 48
Width: 1307
Flags: HW
AnchorPoint: "V" 551 939 basechar 0
AnchorPoint: "N" 551 -279 basechar 0
LayerCount: 2
Fore
SplineSet
1102 828 m 1
 901 828 l 1
 901 6 l 1
 565 -277 l 1
 412 -279 l 1
 729 17 l 1
 729 828 l 1
 457 828 l 2
 351 828 267.833333333 800.166666667 207.5 744.5 c 128
 147.166666667 688.833333333 111.666666667 625.666666667 101 555 c 1
 145 595 203.666666667 615 277 615 c 0
 329.666666667 615 377 602.333333333 419 577 c 128
 461 551.666666667 493.5 516.833333333 516.5 472.5 c 128
 539.5 428.166666667 551 377.333333333 551 320 c 0
 551 222.666666667 531.166666667 145 491.5 87 c 128
 451.833333333 29 392.666666667 0 314 0 c 0
 248.666666667 0 192.333333333 16.8333333333 145 50.5 c 128
 97.6666666667 84.1666666667 61.6666666667 133.333333333 37 198 c 128
 12.3333333333 262.666666667 0 338.666666667 0 426 c 0
 0 502 10.5 571 31.5 633 c 128
 52.5 695 82.3333333333 747.333333333 121 790 c 128
 159.666666667 832.666666667 206.166666667 865.333333333 260.5 888 c 128
 314.833333333 910.666666667 374.333333333 922 439 922 c 2
 1102 922 l 1
 1102 828 l 1
377 316 m 0
 377 360.666666667 362.833333333 401.5 334.5 438.5 c 128
 306.166666667 475.5 272.666666667 494 234 494 c 0
 198.666666667 494 169 484 145 464 c 0
 121 445.333333333 104 420.333333333 94 389 c 1
 94 319.666666667 107.5 261.5 134.5 214.5 c 128
 161.5 167.5 200.666666667 144 252 144 c 0
 293.333333333 144 324.5 160.666666667 345.5 194 c 128
 366.5 227.333333333 377 268 377 316 c 0
EndSplineSet
EndChar

StartChar: u0B90
Encoding: 49 2960 49
Width: 1325
Flags: HW
AnchorPoint: "V" 560.5 939 basechar 0
AnchorPoint: "N" 560.5 -350.967 basechar 0
LayerCount: 2
Fore
SplineSet
1121 594 m 0
 1121 528 1108 463.666666667 1082 401 c 128
 1056 338.333333333 1015.66666667 292 961 262 c 0
 918.333333333 240.666666667 870.333333333 225 817 215 c 0
 787.666666667 209.666666667 756.166666667 205 722.5 201 c 128
 688.833333333 197 654 195 618 195 c 0
 580.666666667 195 544.5 193.333333333 509.5 190 c 128
 474.5 186.666666667 450.333333333 184.333333333 437 183 c 0
 397.666666667 179 359.333333333 170 322 156 c 0
 293.333333333 146 266.333333333 123.666666667 241 89 c 128
 215.666666667 54.3333333333 203 11 203 -41 c 0
 203 -101 216 -151.833333333 242 -193.5 c 128
 268 -235.166666667 305.666666667 -256 355 -256 c 0
 396.333333333 -256 433.833333333 -238.333333333 467.5 -203 c 128
 501.166666667 -167.666666667 518 -133 518 -99 c 2
 518 41 l 1
 682 41 l 1
 682 -94 l 2
 682 -134 697 -171.666666667 727 -207 c 128
 757 -242.333333333 797.333333333 -260 848 -260 c 0
 893.333333333 -260 926.833333333 -245.166666667 948.5 -215.5 c 128
 970.166666667 -185.833333333 981 -147.666666667 981 -101 c 0
 981 -24.3333333333 961.333333333 38 922 86 c 1
 1034 135 l 1
 1076.66666667 71 1098 -0.666666666667 1098 -80 c 0
 1098 -155.333333333 1076 -219.666666667 1032 -273 c 128
 988 -326.333333333 922.666666667 -353 836 -353 c 0
 734 -353 661.666666667 -320.666666667 619 -256 c 1
 596.333333333 -283.333333333 563.166666667 -306.333333333 519.5 -325 c 128
 475.833333333 -343.666666667 429 -353 379 -353 c 0
 267.666666667 -353 183.166666667 -325 125.5 -269 c 128
 67.8333333333 -213 39 -137 39 -41 c 0
 39 6.33333333333 46.6666666667 48.1666666667 62 84.5 c 128
 77.3333333333 120.833333333 98.1666666667 150.333333333 124.5 173 c 128
 150.833333333 195.666666667 179.666666667 213.333333333 211 226 c 0
 277.666666667 252 352.333333333 269 435 277 c 2
 674 298 l 1
 710 298 743 301.666666667 773 309 c 128
 803 316.333333333 830 326 854 338 c 0
 892 357.333333333 919 395.666666667 935 453 c 128
 951 510.333333333 959 563 959 611 c 0
 959 673.666666667 944.833333333 725.5 916.5 766.5 c 128
 888.166666667 807.5 846.333333333 828 791 828 c 0
 754.333333333 828 727 812.333333333 709 781 c 128
 691 749.666666667 682 719.333333333 682 690 c 2
 682 428 l 1
 518 428 l 1
 518 680 l 2
 518 700 512.166666667 721.333333333 500.5 744 c 128
 488.833333333 766.666666667 469.166666667 786.333333333 441.5 803 c 128
 413.833333333 819.666666667 379.333333333 828 338 828 c 0
 286.666666667 828 238.5 815.666666667 193.5 791 c 128
 148.5 766.333333333 119 736.333333333 105 701 c 1
 137 735 180 752 234 752 c 0
 272.666666667 752 307.333333333 741.833333333 338 721.5 c 128
 368.666666667 701.166666667 392.333333333 674.166666667 409 640.5 c 128
 425.666666667 606.833333333 434 569.666666667 434 529 c 0
 434 461 414.166666667 407.833333333 374.5 369.5 c 128
 334.833333333 331.166666667 281.666666667 312 215 312 c 0
 71.6666666667 312 0 414.333333333 0 619 c 0
 0 671 14.1666666667 720.333333333 42.5 767 c 128
 70.8333333333 813.666666667 113 851.166666667 169 879.5 c 128
 225 907.833333333 290.333333333 922 365 922 c 0
 494.333333333 922 579.666666667 889.333333333 621 824 c 1
 658.333333333 889.333333333 721 922 809 922 c 0
 911.666666667 922 989.333333333 893.333333333 1042 836 c 128
 1094.66666667 778.666666667 1121 698 1121 594 c 0
285 533 m 0
 285 546.333333333 282.666666667 559.666666667 278 573 c 0
 271.333333333 591 261.666666667 605 249 615 c 0
 232.333333333 628.333333333 213 635 191 635 c 0
 151 635 118.666666667 614.666666667 94 574 c 1
 94 531.333333333 103.5 495.666666667 122.5 467 c 128
 141.5 438.333333333 167 424 199 424 c 0
 225.666666667 424 246.666666667 435 262 457 c 0
 269.333333333 467.666666667 275 479.333333333 279 492 c 128
 283 504.666666667 285 518.333333333 285 533 c 0
EndSplineSet
EndChar

StartChar: u0B92
Encoding: 50 2962 50
Width: 1366
Flags: HW
AnchorPoint: "V" 580.5 939 basechar 0
AnchorPoint: "N" 580.5 -498 basechar 0
LayerCount: 2
Fore
SplineSet
1161 436 m 0
 1161 369.333333333 1151 311.666666667 1131 263 c 128
 1111 214.333333333 1081.66666667 176.333333333 1043 149 c 0
 1004.33333333 123.666666667 961.333333333 111 914 111 c 0
 814 111 755.333333333 160 738 258 c 1
 738 184.666666667 756.666666667 135 794 109 c 128
 831.333333333 83 883.666666667 70 951 70 c 2
 1114 70 l 1
 1114 -31 l 1
 989 -31 l 2
 956.333333333 -31 931.5 -42.8333333333 914.5 -66.5 c 128
 897.5 -90.1666666667 881 -131 865 -189 c 2
 832 -301 l 1
 810 -364.333333333 773.666666667 -413 723 -447 c 128
 672.333333333 -481 600.666666667 -498 508 -498 c 0
 437.333333333 -498 375.333333333 -486.166666667 322 -462.5 c 128
 268.666666667 -438.833333333 228 -406.5 200 -365.5 c 128
 172 -324.5 158 -279.333333333 158 -230 c 0
 158 -160 175.666666667 -103.166666667 211 -59.5 c 128
 246.333333333 -15.8333333333 295 6 357 6 c 1
 387 -99 l 1
 297 -99 252 -142.666666667 252 -230 c 0
 252 -278.666666667 276.333333333 -320.166666667 325 -354.5 c 128
 373.666666667 -388.833333333 440.333333333 -406 525 -406 c 0
 564.333333333 -406 595.666666667 -398.333333333 619 -383 c 0
 642.333333333 -369 660 -349.833333333 672 -325.5 c 128
 684 -301.166666667 693 -272 699 -238 c 2
 715 -150 l 2
 719.666666667 -130.666666667 723 -117 725 -109 c 0
 731 -88.3333333333 737.666666667 -70 745 -54 c 0
 755.666666667 -29.3333333333 773 -10 797 4 c 1
 708.333333333 38 664 113.333333333 664 230 c 0
 664 272.666666667 671.166666667 317.166666667 685.5 363.5 c 128
 699.833333333 409.833333333 718.5 448.833333333 741.5 480.5 c 128
 764.5 512.166666667 788.333333333 533 813 543 c 1
 873 510 l 1
 830.333333333 473.333333333 809 420 809 350 c 0
 809 319.333333333 814.666666667 293.333333333 826 272 c 128
 837.333333333 250.666666667 854.333333333 240 877 240 c 0
 950.333333333 240 987 304 987 432 c 0
 987 490 974.5 543 949.5 591 c 128
 924.5 639 890.833333333 681 848.5 717 c 128
 806.166666667 753 759.166666667 780.5 707.5 799.5 c 128
 655.833333333 818.5 604.333333333 828 553 828 c 0
 444.333333333 828 351.333333333 808.333333333 274 769 c 128
 196.666666667 729.666666667 143 668.666666667 113 586 c 1
 150.333333333 612 196.666666667 625 252 625 c 0
 325.333333333 625 385 602.166666667 431 556.5 c 128
 477 510.833333333 500 453 500 383 c 0
 500 305 481.333333333 241.833333333 444 193.5 c 128
 406.666666667 145.166666667 352.333333333 121 281 121 c 0
 223.666666667 121 173.666666667 136 131 166 c 128
 88.3333333333 196 55.8333333333 235.666666667 33.5 285 c 128
 11.1666666667 334.333333333 0 387.666666667 0 445 c 0
 0 592.333333333 47.6666666667 708.666666667 143 794 c 128
 238.333333333 879.333333333 381.333333333 922 572 922 c 0
 702 922 811.333333333 899.833333333 900 855.5 c 128
 988.666666667 811.166666667 1054.33333333 752.333333333 1097 679 c 128
 1139.66666667 605.666666667 1161 524.666666667 1161 436 c 0
328 379 m 0
 328 417.666666667 317.833333333 450.833333333 297.5 478.5 c 128
 277.166666667 506.166666667 250.333333333 520 217 520 c 0
 151 520 110 493 94 439 c 1
 94 415.666666667 97.1666666667 394 103.5 374 c 128
 109.833333333 354 120 332.666666667 134 310 c 0
 159.333333333 270 193.333333333 250 236 250 c 0
 267.333333333 250 290.5 262.5 305.5 287.5 c 128
 320.5 312.5 328 343 328 379 c 0
EndSplineSet
EndChar

StartChar: u0B93
Encoding: 51 2963 51
Width: 1366
Flags: HW
AnchorPoint: "V" 580.5 939 basechar 0
AnchorPoint: "N" 580.5 -498 basechar 0
LayerCount: 2
Fore
SplineSet
1161 436 m 0
 1161 369.333333333 1151 311.666666667 1131 263 c 128
 1111 214.333333333 1081.66666667 176.333333333 1043 149 c 0
 1004.33333333 123.666666667 961.333333333 111 914 111 c 0
 814 111 755.333333333 160 738 258 c 1
 738 184 755.666666667 134.666666667 791 110 c 0
 809 97.3333333333 831.5 87.5 858.5 80.5 c 128
 885.5 73.5 916.333333333 70 951 70 c 2
 1114 70 l 1
 1114 -31 l 1
 989 -31 l 2
 956.333333333 -31 931.5 -42.8333333333 914.5 -66.5 c 128
 897.5 -90.1666666667 881 -131 865 -189 c 2
 832 -301 l 1
 810 -364.333333333 773.666666667 -413 723 -447 c 128
 672.333333333 -481 600.666666667 -498 508 -498 c 0
 436.666666667 -498 374.5 -486.333333333 321.5 -463 c 128
 268.5 -439.666666667 228 -407.666666667 200 -367 c 128
 172 -326.333333333 158 -280.666666667 158 -230 c 0
 158 -160.666666667 176.333333333 -104.666666667 213 -62 c 128
 249.666666667 -19.3333333333 301.666666667 2 369 2 c 0
 437 2 490.5 -14.3333333333 529.5 -47 c 128
 568.5 -79.6666666667 588 -120 588 -168 c 0
 588 -230.666666667 563.333333333 -282.666666667 514 -324 c 1
 422 -275 l 1
 454.666666667 -239.666666667 471 -206 471 -174 c 0
 471 -151.333333333 461.833333333 -133.166666667 443.5 -119.5 c 128
 425.166666667 -105.833333333 401 -99 371 -99 c 0
 335.666666667 -99 307 -110 285 -132 c 128
 263 -154 252 -186.666666667 252 -230 c 0
 252 -278.666666667 276.333333333 -320.166666667 325 -354.5 c 128
 373.666666667 -388.833333333 440.333333333 -406 525 -406 c 0
 578.333333333 -406 617.666666667 -392.333333333 643 -365 c 128
 668.333333333 -337.666666667 685.666666667 -302 695 -258 c 2
 723 -117 l 2
 737 -57.6666666667 761.666666667 -17.3333333333 797 4 c 1
 708.333333333 38 664 113.333333333 664 230 c 0
 664 272.666666667 671.166666667 317.166666667 685.5 363.5 c 128
 699.833333333 409.833333333 718.5 448.833333333 741.5 480.5 c 128
 764.5 512.166666667 788.333333333 533 813 543 c 1
 873 510 l 1
 830.333333333 473.333333333 809 420 809 350 c 0
 809 319.333333333 814.666666667 293.333333333 826 272 c 128
 837.333333333 250.666666667 854.333333333 240 877 240 c 0
 950.333333333 240 987 304 987 432 c 0
 987 490 974.5 543 949.5 591 c 128
 924.5 639 890.833333333 681 848.5 717 c 128
 806.166666667 753 759.166666667 780.5 707.5 799.5 c 128
 655.833333333 818.5 604.333333333 828 553 828 c 0
 444.333333333 828 351.333333333 808.333333333 274 769 c 128
 196.666666667 729.666666667 143 668.666666667 113 586 c 1
 150.333333333 612 196.666666667 625 252 625 c 0
 325.333333333 625 385 602.166666667 431 556.5 c 128
 477 510.833333333 500 453 500 383 c 0
 500 305 481.333333333 241.833333333 444 193.5 c 128
 406.666666667 145.166666667 352.333333333 121 281 121 c 0
 223.666666667 121 173.666666667 136 131 166 c 128
 88.3333333333 196 55.8333333333 235.666666667 33.5 285 c 128
 11.1666666667 334.333333333 0 387.666666667 0 445 c 0
 0 592.333333333 47.6666666667 708.666666667 143 794 c 128
 238.333333333 879.333333333 381.333333333 922 572 922 c 0
 702 922 811.333333333 899.833333333 900 855.5 c 128
 988.666666667 811.166666667 1054.33333333 752.333333333 1097 679 c 128
 1139.66666667 605.666666667 1161 524.666666667 1161 436 c 0
328 379 m 0
 328 417.666666667 317.833333333 450.833333333 297.5 478.5 c 128
 277.166666667 506.166666667 250.333333333 520 217 520 c 0
 151 520 110 493 94 439 c 1
 94 415.666666667 97.1666666667 394 103.5 374 c 128
 109.833333333 354 120 332.666666667 134 310 c 0
 159.333333333 270 193.333333333 250 236 250 c 0
 267.333333333 250 290.5 262.5 305.5 287.5 c 128
 320.5 312.5 328 343 328 379 c 0
EndSplineSet
EndChar

StartChar: u0B95
Encoding: 53 2965 53
Width: 1266
Flags: HW
AnchorPoint: "V" 492 939 basechar 0
AnchorPoint: "N" 492 0.897883 basechar 0
LayerCount: 2
Fore
SplineSet
1061 254 m 0
 1061 172.666666667 1038 110 992 66 c 128
 946 22 883.666666667 0 805 0 c 0
 689.666666667 0 616.666666667 32.3333333333 586 97 c 1
 557.333333333 70.3333333333 519.5 47.5 472.5 28.5 c 128
 425.5 9.5 375.333333333 0 322 0 c 0
 258 0 202.333333333 10.3333333333 155 31 c 128
 107.666666667 51.6666666667 70 84.3333333333 42 129 c 128
 14 173.666666667 0 228.333333333 0 293 c 0
 0 365 20.5 422.5 61.5 465.5 c 128
 102.5 508.5 143 533 183 539 c 1
 183 922 l 1
 854 922 l 1
 854 828 l 1
 654 828 l 1
 654 543 l 1
 694.666666667 543 732.333333333 541.333333333 767 538 c 128
 801.666666667 534.666666667 834 529.666666667 864 523 c 0
 922 509.666666667 969.333333333 482.166666667 1006 440.5 c 128
 1042.66666667 398.833333333 1061 336.666666667 1061 254 c 0
482 543 m 1
 482 828 l 1
 275 828 l 1
 275 543 l 1
 482 543 l 1
897 250 m 0
 897 309.333333333 886.833333333 353.333333333 866.5 382 c 128
 846.166666667 410.666666667 819.333333333 429 786 437 c 128
 752.666666667 445 708.666666667 449 654 449 c 1
 654 223 l 2
 654 179.666666667 663 147 681 125 c 0
 699.666666667 104.333333333 729.333333333 94 770 94 c 0
 804 94 833.666666667 107.333333333 859 134 c 128
 884.333333333 160.666666667 897 199.333333333 897 250 c 0
482 217 m 2
 482 449 l 1
 232 449 l 2
 202 449 171.5 435.166666667 140.5 407.5 c 128
 109.5 379.833333333 94 336.333333333 94 277 c 0
 94 155 162.333333333 94 299 94 c 0
 335.666666667 94 375.333333333 107 418 133 c 128
 460.666666667 159 482 187 482 217 c 2
EndSplineSet
EndChar

StartChar: u0B95_u0BBF
Encoding: 54 -1 54
Width: 1485
Flags: HW
AnchorPoint: "V" 492 1456.55 basechar 0
AnchorPoint: "N" 492 0.897883 basechar 0
LayerCount: 2
Fore
SplineSet
1280 0 m 1
 1196 0 l 1
 1196 914 l 2
 1196 987.333333333 1173.33333333 1053 1128 1111 c 0
 1104.66666667 1140.33333333 1077.66666667 1166.33333333 1047 1189 c 128
 1016.33333333 1211.66666667 980.666666667 1231.33333333 940 1248 c 0
 859.333333333 1280.66666667 770.666666667 1297 674 1297 c 0
 542.666666667 1297 433.833333333 1279.83333333 347.5 1245.5 c 128
 261.166666667 1211.16666667 197.333333333 1163.33333333 156 1102 c 128
 114.666666667 1040.66666667 94 969.666666667 94 889 c 0
 94 834.333333333 101.5 780.5 116.5 727.5 c 128
 131.5 674.5 153.666666667 631.333333333 183 598 c 1
 183 922 l 1
 854 922 l 1
 854 828 l 1
 654 828 l 1
 654 543 l 1
 694.666666667 543 732.333333333 541.333333333 767 538 c 128
 801.666666667 534.666666667 834 529.666666667 864 523 c 0
 922 509.666666667 969.333333333 482.166666667 1006 440.5 c 128
 1042.66666667 398.833333333 1061 336.666666667 1061 254 c 0
 1061 172.666666667 1038 110 992 66 c 128
 946 22 883.666666667 0 805 0 c 0
 689.666666667 0 616.666666667 32.3333333333 586 97 c 1
 557.333333333 70.3333333333 519.5 47.5 472.5 28.5 c 128
 425.5 9.5 375.333333333 0 322 0 c 0
 258 0 202.333333333 10.3333333333 155 31 c 128
 107.666666667 51.6666666667 70 84.3333333333 42 129 c 128
 14 173.666666667 0 228.333333333 0 293 c 0
 0 349 13 396.666666667 39 436 c 128
 65 475.333333333 95.6666666667 504 131 522 c 1
 43.6666666667 604 0 723 0 879 c 0
 0 958.333333333 12.5 1033.33333333 37.5 1104 c 128
 62.5 1174.66666667 101.5 1237.33333333 154.5 1292 c 128
 207.5 1346.66666667 277.333333333 1390.16666667 364 1422.5 c 128
 450.666666667 1454.83333333 553.333333333 1471 672 1471 c 0
 811.333333333 1471 926.166666667 1449.5 1016.5 1406.5 c 128
 1106.83333333 1363.5 1173.33333333 1299.5 1216 1214.5 c 128
 1258.66666667 1129.5 1280 1024.33333333 1280 899 c 2
 1280 0 l 1
482 543 m 1
 482 828 l 1
 275 828 l 1
 275 543 l 1
 482 543 l 1
897 250 m 0
 897 309.333333333 886.833333333 353.333333333 866.5 382 c 128
 846.166666667 410.666666667 819.333333333 429 786 437 c 128
 752.666666667 445 708.666666667 449 654 449 c 1
 654 223 l 2
 654 179.666666667 663 147 681 125 c 0
 699.666666667 104.333333333 729.333333333 94 770 94 c 0
 804 94 833.666666667 107.333333333 859 134 c 128
 884.333333333 160.666666667 897 199.333333333 897 250 c 0
482 217 m 2
 482 449 l 1
 232 449 l 2
 202 449 171.5 435.166666667 140.5 407.5 c 128
 109.5 379.833333333 94 336.333333333 94 277 c 0
 94 155 162.333333333 94 299 94 c 0
 335.666666667 94 375.333333333 107 418 133 c 128
 460.666666667 159 482 187 482 217 c 2
EndSplineSet
EndChar

StartChar: u0B95_u0BC0
Encoding: 55 -1 55
Width: 1266
Flags: HW
AnchorPoint: "V" 492 1503.25 basechar 0
AnchorPoint: "N" 492 0.897883 basechar 0
LayerCount: 2
Fore
SplineSet
1061 254 m 0
 1061 172.666666667 1038 110 992 66 c 128
 946 22 883.666666667 0 805 0 c 0
 689.666666667 0 616.666666667 32.3333333333 586 97 c 1
 557.333333333 70.3333333333 519.5 47.5 472.5 28.5 c 128
 425.5 9.5 375.333333333 0 322 0 c 0
 258 0 202.333333333 10.3333333333 155 31 c 128
 107.666666667 51.6666666667 70 84.3333333333 42 129 c 128
 14 173.666666667 0 228.333333333 0 293 c 0
 0 349 13 396.666666667 39 436 c 128
 65 475.333333333 95.6666666667 504 131 522 c 1
 43.6666666667 604 0 723 0 879 c 0
 0 1003 27.6666666667 1113.66666667 83 1211 c 128
 138.333333333 1308.33333333 215.833333333 1384.16666667 315.5 1438.5 c 128
 415.166666667 1492.83333333 528 1520 654 1520 c 0
 754.666666667 1520 843.666666667 1498.66666667 921 1456 c 128
 998.333333333 1413.33333333 1037 1339.66666667 1037 1235 c 0
 1037 1171 1014.83333333 1117.16666667 970.5 1073.5 c 128
 926.166666667 1029.83333333 868.333333333 1008 797 1008 c 0
 750.333333333 1008 710.5 1017.33333333 677.5 1036 c 128
 644.5 1054.66666667 619.333333333 1079.66666667 602 1111 c 128
 584.666666667 1142.33333333 576 1176.33333333 576 1213 c 0
 576 1285 597.666666667 1339.66666667 641 1377 c 1
 598 1379 l 1
 500.666666667 1379 413.166666667 1354.5 335.5 1305.5 c 128
 257.833333333 1256.5 198.166666667 1194.16666667 156.5 1118.5 c 128
 114.833333333 1042.83333333 94 966.333333333 94 889 c 0
 94 834.333333333 101.5 780.5 116.5 727.5 c 128
 131.5 674.5 153.666666667 631.333333333 183 598 c 1
 183 922 l 1
 854 922 l 1
 854 828 l 1
 654 828 l 1
 654 543 l 1
 694.666666667 543 732.333333333 541.333333333 767 538 c 128
 801.666666667 534.666666667 834 529.666666667 864 523 c 0
 922 509.666666667 969.333333333 482.166666667 1006 440.5 c 128
 1042.66666667 398.833333333 1061 336.666666667 1061 254 c 0
895 1213 m 0
 895 1248.33333333 883.333333333 1278.66666667 860 1304 c 128
 836.666666667 1329.33333333 806.666666667 1342 770 1342 c 1
 738 1336 712.333333333 1320.66666667 693 1296 c 128
 673.666666667 1271.33333333 664 1243 664 1211 c 0
 664 1179.66666667 674.833333333 1152.33333333 696.5 1129 c 128
 718.166666667 1105.66666667 744.666666667 1094 776 1094 c 0
 809.333333333 1094 837.5 1105.66666667 860.5 1129 c 128
 883.5 1152.33333333 895 1180.33333333 895 1213 c 0
482 543 m 1
 482 828 l 1
 275 828 l 1
 275 543 l 1
 482 543 l 1
897 250 m 0
 897 309.333333333 886.833333333 353.333333333 866.5 382 c 128
 846.166666667 410.666666667 819.333333333 429 786 437 c 128
 752.666666667 445 708.666666667 449 654 449 c 1
 654 223 l 2
 654 179.666666667 663 147 681 125 c 0
 699.666666667 104.333333333 729.333333333 94 770 94 c 0
 804 94 833.666666667 107.333333333 859 134 c 128
 884.333333333 160.666666667 897 199.333333333 897 250 c 0
482 217 m 2
 482 449 l 1
 232 449 l 2
 202 449 171.5 435.166666667 140.5 407.5 c 128
 109.5 379.833333333 94 336.333333333 94 277 c 0
 94 155 162.333333333 94 299 94 c 0
 335.666666667 94 375.333333333 107 418 133 c 128
 460.666666667 159 482 187 482 217 c 2
EndSplineSet
EndChar

StartChar: u0B95_u0BC1
Encoding: 56 -1 56
Width: 1596
Flags: HW
AnchorPoint: "V" 492 939 basechar 0
AnchorPoint: "N" 492 0.897883 basechar 0
LayerCount: 2
Fore
SplineSet
1391 219 m 0
 1391 30.3333333333 1341.33333333 -120 1242 -232 c 128
 1142.66666667 -344 958.666666667 -400 690 -400 c 0
 574.666666667 -400 473.5 -383.333333333 386.5 -350 c 128
 299.5 -316.666666667 227.333333333 -268.5 170 -205.5 c 128
 112.666666667 -142.5 70 -67.6666666667 42 19 c 128
 14 105.666666667 0 203.333333333 0 312 c 0
 0 396 8.83333333333 478.166666667 26.5 558.5 c 128
 44.1666666667 638.833333333 69 709.833333333 101 771.5 c 128
 133 833.166666667 171.666666667 884.666666667 217 926 c 1
 279 873 l 1
 237 831 202.166666667 780 174.5 720 c 128
 146.833333333 660 126.333333333 595 113 525 c 0
 107 490.333333333 102.333333333 454.833333333 99 418.5 c 128
 95.6666666667 382.166666667 94 344.333333333 94 305 c 0
 94 185 115.833333333 78.8333333333 159.5 -13.5 c 128
 203.166666667 -105.833333333 268.833333333 -177.5 356.5 -228.5 c 128
 444.166666667 -279.5 550 -305 674 -305 c 0
 820.666666667 -305 933.833333333 -281.166666667 1013.5 -233.5 c 128
 1093.16666667 -185.833333333 1147 -124 1175 -48 c 128
 1203 28 1217 115.666666667 1217 215 c 0
 1217 289 1197.83333333 346.5 1159.5 387.5 c 128
 1121.16666667 428.5 1059 449 973 449 c 1
 973 223 l 2
 973 193.666666667 959.666666667 161.666666667 933 127 c 128
 906.333333333 92.3333333333 867 62.3333333333 815 37 c 0
 790.333333333 25.6666666667 763 16.6666666667 733 10 c 128
 703 3.33333333333 672.333333333 0 641 0 c 0
 577.666666667 0 522 10.3333333333 474 31 c 128
 426 51.6666666667 388.333333333 84 361 128 c 128
 333.666666667 172 320 227 320 293 c 0
 320 365.666666667 340.333333333 423.333333333 381 466 c 128
 421.666666667 508.666666667 461.333333333 533 500 539 c 1
 500 922 l 1
 1174 922 l 1
 1174 828 l 1
 973 828 l 1
 973 543 l 1
 1016.33333333 543 1057.33333333 540.333333333 1096 535 c 128
 1134.66666667 529.666666667 1169.66666667 522 1201 512 c 0
 1261.66666667 493.333333333 1308.5 459.833333333 1341.5 411.5 c 128
 1374.5 363.166666667 1391 299 1391 219 c 0
801 543 m 1
 801 828 l 1
 594 828 l 1
 594 543 l 1
 801 543 l 1
801 217 m 2
 801 449 l 1
 551 449 l 2
 521 449 490.666666667 435.166666667 460 407.5 c 128
 429.333333333 379.833333333 414 336.333333333 414 277 c 0
 414 155 482.333333333 94 619 94 c 0
 655 94 694.333333333 106.833333333 737 132.5 c 128
 779.666666667 158.166666667 801 186.333333333 801 217 c 2
EndSplineSet
EndChar

StartChar: u0B95_u0BC2
Encoding: 57 -1 57
Width: 1925
VWidth: 1462
Flags: HW
AnchorPoint: "V" 492 940.714 basechar 0
AnchorPoint: "N" 492 0.897883 basechar 0
LayerCount: 2
Fore
SplineSet
227.857421875 445.713867188 m 0
 186.915039062 445.713867188 92.857421875 409.9375 92.857421875 274.286132812 c 0
 92.857421875 165.857421875 144.586914062 93.5712890625 297.857421875 93.5712890625 c 0
 384.921875 93.5712890625 476.728515625 162.892578125 477.859375 213.76953125 c 0
 477.857421875 445.713867188 l 0
 227.857421875 445.713867188 l 0
477.857421875 552.857421875 m 0
 477.857421875 833.571289062 l 0
 277.857421875 833.571289062 l 0
 277.857421875 552.857421875 l 0
 477.857421875 552.857421875 l 0
876.428710938 88.5712890625 m 0
 914.428710938 88.5712890625 971.428710938 116.520507812 971.428710938 263.571289062 c 0
 971.428710938 345.3046875 915.671875 405.151367188 878.25 422.485351562 c 0
 836.435546875 389.025390625 791.428710938 358.670898438 791.428710938 225 c 0
 791.428710938 105.256835938 849.171875 88.5712890625 876.428710938 88.5712890625 c 0
875.314453125 552.857421875 m 0
 918.264648438 576.764648438 999.071289062 612.142578125 1101.42871094 612.142578125 c 0
 1448.20703125 612.142578125 1485.71386719 388.56640625 1485.71386719 310 c 0
 1485.71386719 212.18359375 1428.51464844 138.250976562 1369.43554688 88.5712890625 c 0
 1661.42871094 88.5712890625 l 0
 1661.42871094 -18.5712890625 l 0
 1087.14257812 -18.5712890625 l 0
 1087.14257812 81.2333984375 l 0
 1096.34277344 86.33203125 l 0
 1270.59277344 182.915039062 1296.42871094 258.409179688 1296.42871094 301.428710938 c 0
 1296.42871094 424.735351562 1222.65722656 492.857421875 1122.85742188 492.857421875 c 0
 1078.20019531 492.857421875 1031.01464844 490.921875 999.978515625 480.969726562 c 0
 1046.328125 439.73046875 1117.85742188 378.545898438 1117.85742188 235.713867188 c 0
 1117.85742188 111.994140625 1031.48535156 -19.2861328125 902.142578125 -19.2861328125 c 0
 816.014648438 -19.2861328125 685 27.4287109375 685 214.286132812 c 0
 686.514648438 329.735351562 721.443359375 403.974609375 748.278320312 443.571289062 c 0
 667.142578125 443.571289062 l 0
 667.142578125 217.857421875 l 0
 667.142578125 93.0986328125 492.453125 -15.7138671875 321.428710938 -15.7138671875 c 0
 123.608398438 -15.7138671875 -14.2861328125 84.1689453125 -14.2861328125 290.713867188 c 0
 -14.2861328125 459.356445312 108.223632812 535.208984375 172.142578125 548.016601562 c 0
 172.142578125 940.713867188 l 0
 872.857421875 940.713867188 l 0
 872.857421875 833.571289062 l 0
 667.857421875 833.571289062 l 0
 667.857421875 552.857421875 l 0
 875.314453125 552.857421875 l 0
EndSplineSet
EndChar

StartChar: u0B95_u0BC2.old
Encoding: 58 -1 58
Width: 1905
Flags: HW
AnchorPoint: "V" 492 939 basechar 0
AnchorPoint: "N" 492 0.897883 basechar 0
LayerCount: 2
Fore
SplineSet
1700 0 m 1
 1151 0 l 1
 1151 88 l 1
 1205 119.333333333 1249.33333333 151.666666667 1284 185 c 128
 1318.66666667 218.333333333 1336 258.333333333 1336 305 c 0
 1336 347.666666667 1320.83333333 382.666666667 1290.5 410 c 128
 1260.16666667 437.333333333 1222.66666667 451 1178 451 c 0
 1129.33333333 451 1089 443.833333333 1057 429.5 c 128
 1025 415.166666667 1006.66666667 396.333333333 1002 373 c 1
 1002 0 l 1
 828 0 l 1
 828 449 l 1
 654 449 l 1
 654 223 l 2
 654 185.666666667 637.166666667 149.666666667 603.5 115 c 128
 569.833333333 80.3333333333 527.666666667 52.6666666667 477 32 c 0
 451 21.3333333333 425.666666667 13.3333333333 401 8 c 128
 376.333333333 2.66666666667 350 0 322 0 c 0
 258 0 202.333333333 10.3333333333 155 31 c 128
 107.666666667 51.6666666667 70 84.3333333333 42 129 c 128
 14 173.666666667 0 228.333333333 0 293 c 0
 0 365 20.5 422.5 61.5 465.5 c 128
 102.5 508.5 143 533 183 539 c 1
 183 922 l 1
 854 922 l 1
 854 828 l 1
 654 828 l 1
 654 543 l 1
 887 543 l 2
 901 543 916.333333333 538.833333333 933 530.5 c 128
 949.666666667 522.166666667 963 510 973 494 c 1
 1016.33333333 537.333333333 1101.66666667 559 1229 559 c 0
 1309 559 1379.16666667 538.166666667 1439.5 496.5 c 128
 1499.83333333 454.833333333 1530 394.666666667 1530 316 c 0
 1530 272 1518.33333333 231.166666667 1495 193.5 c 128
 1471.66666667 155.833333333 1441.66666667 122.666666667 1405 94 c 1
 1700 94 l 1
 1700 0 l 1
482 543 m 1
 482 828 l 1
 275 828 l 1
 275 543 l 1
 482 543 l 1
482 217 m 2
 482 449 l 1
 232 449 l 2
 202 449 171.5 435.166666667 140.5 407.5 c 128
 109.5 379.833333333 94 336.333333333 94 277 c 0
 94 155 162.333333333 94 299 94 c 0
 335.666666667 94 375.333333333 107 418 133 c 128
 460.666666667 159 482 187 482 217 c 2
EndSplineSet
EndChar

StartChar: u0B95_u0BCD
Encoding: 59 -1 59
Width: 1266
Flags: HW
AnchorPoint: "N" 492 0.897883 basechar 0
LayerCount: 2
Fore
SplineSet
621 1204 m 0
 621 1170 608.166666667 1140 582.5 1114 c 128
 556.833333333 1088 526.666666667 1075 492 1075 c 256
 457.333333333 1075 427.166666667 1087.83333333 401.5 1113.5 c 128
 375.833333333 1139.16666667 363 1169.33333333 363 1204 c 0
 363 1239.33333333 375.666666667 1269.66666667 401 1295 c 128
 426.333333333 1320.33333333 456.666666667 1333 492 1333 c 256
 527.333333333 1333 557.666666667 1320.33333333 583 1295 c 128
 608.333333333 1269.66666667 621 1239.33333333 621 1204 c 0
1061 254 m 0
 1061 172.666666667 1038 110 992 66 c 128
 946 22 883.666666667 0 805 0 c 0
 689.666666667 0 616.666666667 32.3333333333 586 97 c 1
 557.333333333 70.3333333333 519.5 47.5 472.5 28.5 c 128
 425.5 9.5 375.333333333 0 322 0 c 0
 258 0 202.333333333 10.3333333333 155 31 c 128
 107.666666667 51.6666666667 70 84.3333333333 42 129 c 128
 14 173.666666667 0 228.333333333 0 293 c 0
 0 365 20.5 422.5 61.5 465.5 c 128
 102.5 508.5 143 533 183 539 c 1
 183 922 l 1
 854 922 l 1
 854 828 l 1
 654 828 l 1
 654 543 l 1
 694.666666667 543 732.333333333 541.333333333 767 538 c 128
 801.666666667 534.666666667 834 529.666666667 864 523 c 0
 922 509.666666667 969.333333333 482.166666667 1006 440.5 c 128
 1042.66666667 398.833333333 1061 336.666666667 1061 254 c 0
482 543 m 1
 482 828 l 1
 275 828 l 1
 275 543 l 1
 482 543 l 1
897 250 m 0
 897 309.333333333 886.833333333 353.333333333 866.5 382 c 128
 846.166666667 410.666666667 819.333333333 429 786 437 c 128
 752.666666667 445 708.666666667 449 654 449 c 1
 654 223 l 2
 654 179.666666667 663 147 681 125 c 0
 699.666666667 104.333333333 729.333333333 94 770 94 c 0
 804 94 833.666666667 107.333333333 859 134 c 128
 884.333333333 160.666666667 897 199.333333333 897 250 c 0
482 217 m 2
 482 449 l 1
 232 449 l 2
 202 449 171.5 435.166666667 140.5 407.5 c 128
 109.5 379.833333333 94 336.333333333 94 277 c 0
 94 155 162.333333333 94 299 94 c 0
 335.666666667 94 375.333333333 107 418 133 c 128
 460.666666667 159 482 187 482 217 c 2
EndSplineSet
EndChar

StartChar: u0B99
Encoding: 60 2969 60
Width: 1426
Flags: HW
AnchorPoint: "V" 625 939 basechar 0
AnchorPoint: "N" 625 0 basechar 0
LayerCount: 2
Fore
SplineSet
1221 0 m 1
 299 0 l 1
 299 84 l 1
 539 84 l 1
 587.666666667 104 624.666666667 137.5 650 184.5 c 128
 675.333333333 231.5 688 284.666666667 688 344 c 0
 688 392 675.166666667 430 649.5 458 c 128
 623.833333333 486 594.333333333 500 561 500 c 0
 515 500 485.666666667 476.666666667 473 430 c 1
 473 260 l 1
 299 260 l 1
 299 828 l 1
 94 828 l 1
 94 0 l 1
 0 0 l 1
 0 922 l 1
 672 922 l 1
 672 828 l 1
 473 828 l 1
 473 576 l 1
 507.666666667 603.333333333 548.666666667 617 596 617 c 0
 638 617 678.666666667 606.333333333 718 585 c 128
 757.333333333 563.666666667 789.5 531.5 814.5 488.5 c 128
 839.5 445.5 852 394.666666667 852 336 c 0
 852 216.666666667 815.333333333 132.666666667 742 84 c 1
 1057 84 l 1
 1057 922 l 1
 1221 922 l 1
 1221 0 l 1
EndSplineSet
EndChar

StartChar: u0B99_u0BBF
Encoding: 61 -1 61
Width: 1616
Flags: HW
AnchorPoint: "V" 625 939 basechar 0
AnchorPoint: "N" 625 0 basechar 0
LayerCount: 2
Fore
SplineSet
1411 0 m 1
 1327 0 l 1
 1327 1020 l 2
 1327 1108 1309.16666667 1173 1273.5 1215 c 128
 1237.83333333 1257 1178.66666667 1278 1096 1278 c 0
 1036 1278 985.5 1259.66666667 944.5 1223 c 128
 903.5 1186.33333333 883 1134.33333333 883 1067 c 0
 883 1011 896 968 922 938 c 0
 935.333333333 923.333333333 950.833333333 911.833333333 968.5 903.5 c 128
 986.166666667 895.166666667 1006 891 1028 891 c 1
 1028 922 l 1
 1190 922 l 1
 1190 0 l 1
 299 0 l 1
 299 84 l 1
 539 84 l 1
 587.666666667 104 624.666666667 137.5 650 184.5 c 128
 675.333333333 231.5 688 284.666666667 688 344 c 0
 688 392 675.166666667 430 649.5 458 c 128
 623.833333333 486 594.333333333 500 561 500 c 0
 515 500 485.666666667 476.666666667 473 430 c 1
 473 260 l 1
 299 260 l 1
 299 828 l 1
 94 828 l 1
 94 0 l 1
 0 0 l 1
 0 922 l 1
 672 922 l 1
 672 828 l 1
 473 828 l 1
 473 576 l 1
 507.666666667 603.333333333 548.666666667 617 596 617 c 0
 638 617 678.666666667 606.333333333 718 585 c 128
 757.333333333 563.666666667 789.5 531.5 814.5 488.5 c 128
 839.5 445.5 852 394.666666667 852 336 c 0
 852 216.666666667 815.333333333 132.666666667 742 84 c 1
 1028 84 l 1
 1028 797 l 1
 992 797 959.166666667 803.833333333 929.5 817.5 c 128
 899.833333333 831.166666667 872.666666667 851 848 877 c 0
 801.333333333 927.666666667 778 1000 778 1094 c 0
 778 1204.66666667 806 1290 862 1350 c 128
 918 1410 996.666666667 1440 1098 1440 c 0
 1207.33333333 1440 1286.83333333 1406.33333333 1336.5 1339 c 128
 1386.16666667 1271.66666667 1411 1173 1411 1043 c 2
 1411 0 l 1
EndSplineSet
EndChar

StartChar: u0B99_u0BC0
Encoding: 62 -1 62
Width: 1610
Flags: HW
AnchorPoint: "V" 625 939 basechar 0
AnchorPoint: "N" 625 0 basechar 0
LayerCount: 2
Fore
SplineSet
1630 1188 m 0
 1630 1123.33333333 1607.83333333 1069.33333333 1563.5 1026 c 128
 1519.16666667 982.666666667 1461 961 1389 961 c 0
 1320.33333333 961 1266.33333333 980.833333333 1227 1020.5 c 128
 1187.66666667 1060.16666667 1168 1108.66666667 1168 1166 c 0
 1168 1235.33333333 1189.66666667 1289.66666667 1233 1329 c 1
 1190 1331 l 2
 1144.66666667 1331 1104 1318.66666667 1068 1294 c 128
 1032 1269.33333333 1003.5 1236.33333333 982.5 1195 c 128
 961.5 1153.66666667 951 1112.33333333 951 1071 c 0
 951 1012.33333333 961.166666667 964.666666667 981.5 928 c 128
 1001.83333333 891.333333333 1027 870.333333333 1057 865 c 1
 1057 922 l 1
 1231 922 l 1
 1231 0 l 1
 299 0 l 1
 299 84 l 1
 539 84 l 1
 587.666666667 104 624.666666667 137.5 650 184.5 c 128
 675.333333333 231.5 688 284.666666667 688 344 c 0
 688 392 675.166666667 430 649.5 458 c 128
 623.833333333 486 594.333333333 500 561 500 c 0
 515 500 485.666666667 476.666666667 473 430 c 1
 473 260 l 1
 299 260 l 1
 299 828 l 1
 94 828 l 1
 94 0 l 1
 0 0 l 1
 0 922 l 1
 672 922 l 1
 672 828 l 1
 473 828 l 1
 473 576 l 1
 507.666666667 603.333333333 548.666666667 617 596 617 c 0
 638 617 678.666666667 606.333333333 718 585 c 128
 757.333333333 563.666666667 789.5 531.5 814.5 488.5 c 128
 839.5 445.5 852 394.666666667 852 336 c 0
 852 216.666666667 815.333333333 132.666666667 742 84 c 1
 1057 84 l 1
 1057 791 l 1
 1040.33333333 791 1024.16666667 794.166666667 1008.5 800.5 c 128
 992.833333333 806.833333333 976 816.666666667 958 830 c 0
 926 854 899.666666667 889 879 935 c 128
 858.333333333 981 848 1034.66666667 848 1096 c 0
 848 1183.33333333 868.666666667 1255.5 910 1312.5 c 128
 951.333333333 1369.5 1002.83333333 1410.5 1064.5 1435.5 c 128
 1126.16666667 1460.5 1186.33333333 1473 1245 1473 c 0
 1347.66666667 1473 1437.5 1451.5 1514.5 1408.5 c 128
 1591.5 1365.5 1630 1292 1630 1188 c 0
1489 1166 m 0
 1489 1200 1477 1229.66666667 1453 1255 c 128
 1429 1280.33333333 1398.66666667 1293 1362 1293 c 1
 1331.33333333 1287 1306.33333333 1272.16666667 1287 1248.5 c 128
 1267.66666667 1224.83333333 1258 1196.66666667 1258 1164 c 0
 1258 1132.66666667 1268.5 1105.33333333 1289.5 1082 c 128
 1310.5 1058.66666667 1336.66666667 1047 1368 1047 c 0
 1401.33333333 1047 1429.83333333 1058.66666667 1453.5 1082 c 128
 1477.16666667 1105.33333333 1489 1133.33333333 1489 1166 c 0
EndSplineSet
EndChar

StartChar: u0B99_u0BC1
Encoding: 63 -1 63
Width: 1426
Flags: HW
AnchorPoint: "V" 625 939 basechar 0
AnchorPoint: "N" 625 0 basechar 0
LayerCount: 2
Fore
SplineSet
1221 -269 m 1
 1057 -269 l 1
 1057 0 l 1
 299 0 l 1
 299 84 l 1
 539 84 l 1
 587.666666667 104 624.666666667 137.5 650 184.5 c 128
 675.333333333 231.5 688 284.666666667 688 344 c 0
 688 392 675.166666667 430 649.5 458 c 128
 623.833333333 486 594.333333333 500 561 500 c 0
 515 500 485.666666667 476.666666667 473 430 c 1
 473 260 l 1
 299 260 l 1
 299 828 l 1
 94 828 l 1
 94 0 l 1
 0 0 l 1
 0 922 l 1
 672 922 l 1
 672 828 l 1
 473 828 l 1
 473 576 l 1
 507.666666667 603.333333333 548.666666667 617 596 617 c 0
 638 617 678.666666667 606.333333333 718 585 c 128
 757.333333333 563.666666667 789.5 531.5 814.5 488.5 c 128
 839.5 445.5 852 394.666666667 852 336 c 0
 852 216.666666667 815.333333333 132.666666667 742 84 c 1
 1057 84 l 1
 1057 922 l 1
 1221 922 l 1
 1221 -269 l 1
EndSplineSet
EndChar

StartChar: u0B99_u0BC2
Encoding: 64 -1 64
Width: 1874
Flags: HW
AnchorPoint: "V" 625 939 basechar 0
AnchorPoint: "N" 625 0 basechar 0
LayerCount: 2
Fore
SplineSet
1669 219 m 0
 1669 109 1651.83333333 10.8333333333 1617.5 -75.5 c 128
 1583.16666667 -161.833333333 1529.33333333 -236.666666667 1456 -300 c 128
 1382.66666667 -363.333333333 1289 -412 1175 -446 c 0
 1117 -463.333333333 1055 -476.333333333 989 -485 c 128
 923 -493.666666667 850.666666667 -498 772 -498 c 0
 644 -498 544.166666667 -476 472.5 -432 c 128
 400.833333333 -388 365 -326.666666667 365 -248 c 0
 365 -180.666666667 384 -128.666666667 422 -92 c 128
 460 -55.3333333333 514 -37 584 -37 c 0
 652.666666667 -37 707 -56.6666666667 747 -96 c 128
 787 -135.333333333 807 -185.333333333 807 -246 c 0
 807 -307.333333333 780.333333333 -359.333333333 727 -402 c 1
 741 -406 757.333333333 -408 776 -408 c 0
 944.666666667 -408 1083.16666667 -378.5 1191.5 -319.5 c 128
 1299.83333333 -260.5 1377.83333333 -183.5 1425.5 -88.5 c 128
 1473.16666667 6.5 1497 107.666666667 1497 215 c 0
 1497 247 1492.33333333 280.333333333 1483 315 c 128
 1473.66666667 349.666666667 1456 379.666666667 1430 405 c 128
 1404 430.333333333 1370.33333333 443 1329 443 c 0
 1275.66666667 443 1239.66666667 425.666666667 1221 391 c 1
 1221 -219 l 1
 1057 -219 l 1
 1057 0 l 1
 299 0 l 1
 299 84 l 1
 539 84 l 1
 587.666666667 104 624.666666667 137.5 650 184.5 c 128
 675.333333333 231.5 688 284.666666667 688 344 c 0
 688 392 675.166666667 430 649.5 458 c 128
 623.833333333 486 594.333333333 500 561 500 c 0
 515 500 485.666666667 476.666666667 473 430 c 1
 473 260 l 1
 299 260 l 1
 299 828 l 1
 94 828 l 1
 94 0 l 1
 0 0 l 1
 0 922 l 1
 672 922 l 1
 672 828 l 1
 473 828 l 1
 473 576 l 1
 507.666666667 603.333333333 548.666666667 617 596 617 c 0
 638 617 678.666666667 606.333333333 718 585 c 128
 757.333333333 563.666666667 789.5 531.5 814.5 488.5 c 128
 839.5 445.5 852 394.666666667 852 336 c 0
 852 216.666666667 815.333333333 132.666666667 742 84 c 1
 1057 84 l 1
 1057 922 l 1
 1221 922 l 1
 1221 512 l 1
 1257 546 1303.33333333 563 1360 563 c 0
 1427.33333333 563 1484.5 545.833333333 1531.5 511.5 c 128
 1578.5 477.166666667 1613.16666667 433.833333333 1635.5 381.5 c 128
 1657.83333333 329.166666667 1669 275 1669 219 c 0
686 -242 m 0
 686 -208 675.5 -179.666666667 654.5 -157 c 128
 633.5 -134.333333333 607.333333333 -123 576 -123 c 0
 542.666666667 -123 514.166666667 -135.166666667 490.5 -159.5 c 128
 466.833333333 -183.833333333 455 -212 455 -244 c 0
 455 -280 466.666666667 -310 490 -334 c 0
 501.333333333 -345.333333333 514.666666667 -354.333333333 530 -361 c 128
 545.333333333 -367.666666667 562 -371 580 -371 c 1
 611.333333333 -365 636.833333333 -349.833333333 656.5 -325.5 c 128
 676.166666667 -301.166666667 686 -273.333333333 686 -242 c 0
EndSplineSet
EndChar

StartChar: u0B99_u0BCD
Encoding: 65 -1 65
Width: 1426
Flags: HW
AnchorPoint: "N" 625 0 basechar 0
LayerCount: 2
Fore
SplineSet
754 1204 m 0
 754 1170 741.166666667 1140 715.5 1114 c 128
 689.833333333 1088 659.666666667 1075 625 1075 c 256
 590.333333333 1075 560.166666667 1087.83333333 534.5 1113.5 c 128
 508.833333333 1139.16666667 496 1169.33333333 496 1204 c 0
 496 1239.33333333 508.666666667 1269.66666667 534 1295 c 128
 559.333333333 1320.33333333 589.666666667 1333 625 1333 c 256
 660.333333333 1333 690.666666667 1320.33333333 716 1295 c 128
 741.333333333 1269.66666667 754 1239.33333333 754 1204 c 0
1221 0 m 1
 299 0 l 1
 299 84 l 1
 539 84 l 1
 587.666666667 104 624.666666667 137.5 650 184.5 c 128
 675.333333333 231.5 688 284.666666667 688 344 c 0
 688 392 675.166666667 430 649.5 458 c 128
 623.833333333 486 594.333333333 500 561 500 c 0
 515 500 485.666666667 476.666666667 473 430 c 1
 473 260 l 1
 299 260 l 1
 299 828 l 1
 94 828 l 1
 94 0 l 1
 0 0 l 1
 0 922 l 1
 672 922 l 1
 672 828 l 1
 473 828 l 1
 473 576 l 1
 507.666666667 603.333333333 548.666666667 617 596 617 c 0
 638 617 678.666666667 606.333333333 718 585 c 128
 757.333333333 563.666666667 789.5 531.5 814.5 488.5 c 128
 839.5 445.5 852 394.666666667 852 336 c 0
 852 216.666666667 815.333333333 132.666666667 742 84 c 1
 1057 84 l 1
 1057 922 l 1
 1221 922 l 1
 1221 0 l 1
EndSplineSet
EndChar

StartChar: u0B99_u0BCD.alt
Encoding: 66 -1 66
Width: 1419
Flags: HW
AnchorPoint: "N" 625 0 basechar 0
LayerCount: 2
Fore
SplineSet
835 1193 m 0
 835 1133 814.333333333 1082.33333333 773 1041 c 128
 731.666666667 999.666666667 681.666666667 979 623 979 c 0
 563 979 512.333333333 999.666666667 471 1041 c 128
 429.666666667 1082.33333333 409 1133 409 1193 c 0
 409 1250.33333333 430 1300 472 1342 c 128
 514 1384 564.333333333 1405 623 1405 c 256
 681.666666667 1405 731.666666667 1384.33333333 773 1343 c 128
 814.333333333 1301.66666667 835 1251.66666667 835 1193 c 0
1222 -7 m 1
 291 -7 l 1
 291 89 l 1
 534 89 l 1
 581.333333333 107.666666667 616.833333333 140.166666667 640.5 186.5 c 128
 664.166666667 232.833333333 676 284.666666667 676 342 c 0
 676 386.666666667 663.833333333 422.5 639.5 449.5 c 128
 615.166666667 476.5 587.333333333 490 556 490 c 0
 514 490 487.666666667 468.333333333 477 425 c 1
 477 249 l 1
 291 249 l 1
 291 814 l 1
 101 814 l 1
 101 -9 l 1
 -5 -9 l 1
 -5 922 l 1
 676 922 l 1
 676 814 l 1
 478 814 l 1
 478 583 l 1
 512 605.666666667 550 617 592 617 c 0
 658.666666667 617 717 593.333333333 767 546 c 0
 824.333333333 492 853 421.333333333 853 334 c 0
 853 278.666666667 844.5 230 827.5 188 c 128
 810.5 146 787 113.666666667 757 91 c 1
 1043 91 l 1
 1043 926 l 1
 1221 926 l 1
 1222 -7 l 1
744 1200 m 0
 744 1231.33333333 731.833333333 1259.16666667 707.5 1283.5 c 128
 683.166666667 1307.83333333 654.666666667 1320 622 1320 c 256
 589.333333333 1320 560.833333333 1308.5 536.5 1285.5 c 128
 512.166666667 1262.5 500 1234 500 1200 c 256
 500 1166 511.833333333 1137.16666667 535.5 1113.5 c 128
 559.166666667 1089.83333333 588 1078 622 1078 c 0
 654.666666667 1078 683.166666667 1090.16666667 707.5 1114.5 c 128
 731.833333333 1138.83333333 744 1167.33333333 744 1200 c 0
EndSplineSet
EndChar

StartChar: u0B95_u0BB7
Encoding: 67 -1 67
Width: 3011
Flags: HW
AnchorPoint: "V" 492 939 basechar 0
AnchorPoint: "N" 492 0.897883 basechar 0
LayerCount: 2
Fore
SplineSet
2806 219 m 0
 2806 155.666666667 2788.33333333 103.333333333 2753 62 c 128
 2717.66666667 20.6666666667 2660.33333333 0 2581 0 c 2
 2468 0 l 1
 2468 -428 l 1
 2304 -428 l 1
 2304 0 l 1
 1436 0 l 1
 1562.66666667 126.666666667 1626 267.333333333 1626 422 c 0
 1626 498 1612.33333333 566.666666667 1585 628 c 128
 1557.66666667 689.333333333 1517.66666667 738 1465 774 c 128
 1412.33333333 810 1352 828 1284 828 c 0
 1208.66666667 828 1144.33333333 813.166666667 1091 783.5 c 128
 1037.66666667 753.833333333 997.5 717.166666667 970.5 673.5 c 128
 943.5 629.833333333 928 586.333333333 924 543 c 1
 1118 543 l 2
 1292 543 1379 468.666666667 1379 320 c 0
 1379 225.333333333 1357.33333333 148.333333333 1314 89 c 128
 1270.66666667 29.6666666667 1213 0 1141 0 c 0
 932.333333333 0 828 149.666666667 828 449 c 1
 654 449 l 1
 654 223 l 2
 654 185.666666667 637.166666667 149.666666667 603.5 115 c 128
 569.833333333 80.3333333333 527.666666667 52.6666666667 477 32 c 0
 451 21.3333333333 425.666666667 13.3333333333 401 8 c 128
 376.333333333 2.66666666667 350 0 322 0 c 0
 258 0 202.333333333 10.3333333333 155 31 c 128
 107.666666667 51.6666666667 70 84.3333333333 42 129 c 128
 14 173.666666667 0 228.333333333 0 293 c 0
 0 365 20.5 422.5 61.5 465.5 c 128
 102.5 508.5 143 533 183 539 c 1
 183 922 l 1
 854 922 l 1
 854 828 l 1
 654 828 l 1
 654 543 l 1
 836 543 l 1
 856.666666667 661 905.666666667 753.666666667 983 821 c 128
 1060.33333333 888.333333333 1161.33333333 922 1286 922 c 0
 1402 922 1497.66666667 899.833333333 1573 855.5 c 128
 1648.33333333 811.166666667 1703.33333333 752 1738 678 c 128
 1772.66666667 604 1790 520.666666667 1790 428 c 0
 1790 304.666666667 1753.33333333 193.333333333 1680 94 c 1
 2304 94 l 1
 2304 385 l 1
 2069.33333333 431.666666667 1952 526 1952 668 c 0
 1952 748 1973.5 810.333333333 2016.5 855 c 128
 2059.5 899.666666667 2123.33333333 922 2208 922 c 0
 2291.33333333 922 2355.5 905 2400.5 871 c 128
 2445.5 837 2468 793.333333333 2468 740 c 2
 2468 457 l 1
 2565.33333333 440.333333333 2646 412.666666667 2710 374 c 128
 2774 335.333333333 2806 283.666666667 2806 219 c 0
2304 484 m 1
 2304 715 l 2
 2304 747.666666667 2291.5 773.5 2266.5 792.5 c 128
 2241.5 811.5 2207 821 2163 821 c 0
 2123 821 2091.83333333 807.333333333 2069.5 780 c 128
 2047.16666667 752.666666667 2036 716 2036 670 c 0
 2036 582 2125.33333333 520 2304 484 c 1
2700 228 m 0
 2700 261.333333333 2679.5 288 2638.5 308 c 128
 2597.5 328 2540.66666667 345 2468 359 c 1
 2468 94 l 1
 2583 94 l 2
 2661 94 2700 138.666666667 2700 228 c 0
1204 316 m 0
 1204 404.666666667 1154.33333333 449 1055 449 c 2
 920 449 l 1
 920 404.333333333 922.166666667 365.5 926.5 332.5 c 128
 930.833333333 299.5 936.666666667 272.666666667 944 252 c 0
 956 220 973.666666667 193.666666667 997 173 c 0
 1021.66666667 153.666666667 1049.33333333 144 1080 144 c 0
 1121.33333333 144 1152.33333333 160.666666667 1173 194 c 128
 1193.66666667 227.333333333 1204 268 1204 316 c 0
482 543 m 1
 482 828 l 1
 275 828 l 1
 275 543 l 1
 482 543 l 1
482 217 m 2
 482 449 l 1
 232 449 l 2
 202 449 171.5 435.166666667 140.5 407.5 c 128
 109.5 379.833333333 94 336.333333333 94 277 c 0
 94 155 162.333333333 94 299 94 c 0
 335.666666667 94 375.333333333 107 418 133 c 128
 460.666666667 159 482 187 482 217 c 2
EndSplineSet
EndChar

StartChar: u0B95_u0BB7_u0BBF
Encoding: 68 -1 68
Width: 3232
Flags: HW
AnchorPoint: "V" 492 939 basechar 0
AnchorPoint: "N" 492 0.897883 basechar 0
LayerCount: 2
Fore
SplineSet
3027 0 m 1
 2943 0 l 1
 2943 1049 l 2
 2943 1225 2829 1313 2601 1313 c 0
 2384.33333333 1313 2276 1221.66666667 2276 1039 c 0
 2276 987.666666667 2291 944 2321 908 c 1
 2369 896 2405.5 874.666666667 2430.5 844 c 128
 2455.5 813.333333333 2468 778.666666667 2468 740 c 2
 2468 457 l 1
 2565.33333333 440.333333333 2646 412.666666667 2710 374 c 128
 2774 335.333333333 2806 283.666666667 2806 219 c 0
 2806 155.666666667 2788.33333333 103.333333333 2753 62 c 128
 2717.66666667 20.6666666667 2660.33333333 0 2581 0 c 2
 2468 0 l 1
 2468 -428 l 1
 2304 -428 l 1
 2304 0 l 1
 1436 0 l 1
 1562.66666667 126.666666667 1626 267.333333333 1626 422 c 0
 1626 498 1612.33333333 566.666666667 1585 628 c 128
 1557.66666667 689.333333333 1517.66666667 738 1465 774 c 128
 1412.33333333 810 1352 828 1284 828 c 0
 1208.66666667 828 1144.33333333 813.166666667 1091 783.5 c 128
 1037.66666667 753.833333333 997.5 717.166666667 970.5 673.5 c 128
 943.5 629.833333333 928 586.333333333 924 543 c 1
 1118 543 l 2
 1292 543 1379 468.666666667 1379 320 c 0
 1379 225.333333333 1357.33333333 148.333333333 1314 89 c 128
 1270.66666667 29.6666666667 1213 0 1141 0 c 0
 932.333333333 0 828 149.666666667 828 449 c 1
 654 449 l 1
 654 223 l 2
 654 185.666666667 637.166666667 149.666666667 603.5 115 c 128
 569.833333333 80.3333333333 527.666666667 52.6666666667 477 32 c 0
 451 21.3333333333 425.666666667 13.3333333333 401 8 c 128
 376.333333333 2.66666666667 350 0 322 0 c 0
 258 0 202.333333333 10.3333333333 155 31 c 128
 107.666666667 51.6666666667 70 84.3333333333 42 129 c 128
 14 173.666666667 0 228.333333333 0 293 c 0
 0 365 20.5 422.5 61.5 465.5 c 128
 102.5 508.5 143 533 183 539 c 1
 183 922 l 1
 854 922 l 1
 854 828 l 1
 654 828 l 1
 654 543 l 1
 836 543 l 1
 856.666666667 661 905.666666667 753.666666667 983 821 c 128
 1060.33333333 888.333333333 1161.33333333 922 1286 922 c 0
 1402 922 1497.66666667 899.833333333 1573 855.5 c 128
 1648.33333333 811.166666667 1703.33333333 752 1738 678 c 128
 1772.66666667 604 1790 520.666666667 1790 428 c 0
 1790 304.666666667 1753.33333333 193.333333333 1680 94 c 1
 2304 94 l 1
 2304 385 l 1
 2069.33333333 431.666666667 1952 526 1952 668 c 0
 1952 748 1973.5 810.333333333 2016.5 855 c 128
 2059.5 899.666666667 2123.33333333 922 2208 922 c 2
 2216 922 l 1
 2188.66666667 974.666666667 2175 1040 2175 1118 c 0
 2175 1234 2212 1322.16666667 2286 1382.5 c 128
 2360 1442.83333333 2465.66666667 1473 2603 1473 c 0
 2769 1473 2881.16666667 1432.83333333 2939.5 1352.5 c 128
 2997.83333333 1272.16666667 3027 1171.66666667 3027 1051 c 2
 3027 0 l 1
2304 484 m 1
 2304 715 l 2
 2304 747.666666667 2291.5 773.5 2266.5 792.5 c 128
 2241.5 811.5 2207 821 2163 821 c 0
 2123 821 2091.83333333 807.333333333 2069.5 780 c 128
 2047.16666667 752.666666667 2036 716 2036 670 c 0
 2036 582 2125.33333333 520 2304 484 c 1
2700 228 m 0
 2700 261.333333333 2679.5 288 2638.5 308 c 128
 2597.5 328 2540.66666667 345 2468 359 c 1
 2468 94 l 1
 2583 94 l 2
 2661 94 2700 138.666666667 2700 228 c 0
1204 316 m 0
 1204 404.666666667 1154.33333333 449 1055 449 c 2
 920 449 l 1
 920 404.333333333 922.166666667 365.5 926.5 332.5 c 128
 930.833333333 299.5 936.666666667 272.666666667 944 252 c 0
 956 220 973.666666667 193.666666667 997 173 c 0
 1021.66666667 153.666666667 1049.33333333 144 1080 144 c 0
 1121.33333333 144 1152.33333333 160.666666667 1173 194 c 128
 1193.66666667 227.333333333 1204 268 1204 316 c 0
482 543 m 1
 482 828 l 1
 275 828 l 1
 275 543 l 1
 482 543 l 1
482 217 m 2
 482 449 l 1
 232 449 l 2
 202 449 171.5 435.166666667 140.5 407.5 c 128
 109.5 379.833333333 94 336.333333333 94 277 c 0
 94 155 162.333333333 94 299 94 c 0
 335.666666667 94 375.333333333 107 418 133 c 128
 460.666666667 159 482 187 482 217 c 2
EndSplineSet
EndChar

StartChar: u0B95_u0BB7_u0BC0
Encoding: 69 -1 69
Width: 3011
Flags: HW
AnchorPoint: "V" 492 939 basechar 0
AnchorPoint: "N" 492 0.897883 basechar 0
LayerCount: 2
Fore
SplineSet
2806 219 m 0
 2806 155.666666667 2788.33333333 103.333333333 2753 62 c 128
 2717.66666667 20.6666666667 2660.33333333 0 2581 0 c 2
 2468 0 l 1
 2468 -428 l 1
 2304 -428 l 1
 2304 0 l 1
 1436 0 l 1
 1562.66666667 126.666666667 1626 267.333333333 1626 422 c 0
 1626 498 1612.33333333 566.666666667 1585 628 c 128
 1557.66666667 689.333333333 1517.66666667 738 1465 774 c 128
 1412.33333333 810 1352 828 1284 828 c 0
 1208.66666667 828 1144.33333333 813.166666667 1091 783.5 c 128
 1037.66666667 753.833333333 997.5 717.166666667 970.5 673.5 c 128
 943.5 629.833333333 928 586.333333333 924 543 c 1
 1118 543 l 2
 1292 543 1379 468.666666667 1379 320 c 0
 1379 225.333333333 1357.33333333 148.333333333 1314 89 c 128
 1270.66666667 29.6666666667 1213 0 1141 0 c 0
 932.333333333 0 828 149.666666667 828 449 c 1
 654 449 l 1
 654 223 l 2
 654 185.666666667 637.166666667 149.666666667 603.5 115 c 128
 569.833333333 80.3333333333 527.666666667 52.6666666667 477 32 c 0
 451 21.3333333333 425.666666667 13.3333333333 401 8 c 128
 376.333333333 2.66666666667 350 0 322 0 c 0
 258 0 202.333333333 10.3333333333 155 31 c 128
 107.666666667 51.6666666667 70 84.3333333333 42 129 c 128
 14 173.666666667 0 228.333333333 0 293 c 0
 0 365 20.5 422.5 61.5 465.5 c 128
 102.5 508.5 143 533 183 539 c 1
 183 922 l 1
 854 922 l 1
 854 828 l 1
 654 828 l 1
 654 543 l 1
 836 543 l 1
 856.666666667 661 905.666666667 753.666666667 983 821 c 128
 1060.33333333 888.333333333 1161.33333333 922 1286 922 c 0
 1402 922 1497.66666667 899.833333333 1573 855.5 c 128
 1648.33333333 811.166666667 1703.33333333 752 1738 678 c 128
 1772.66666667 604 1790 520.666666667 1790 428 c 0
 1790 304.666666667 1753.33333333 193.333333333 1680 94 c 1
 2304 94 l 1
 2304 385 l 1
 2069.33333333 431.666666667 1952 526 1952 668 c 0
 1952 738.666666667 1969.33333333 795.5 2004 838.5 c 128
 2038.66666667 881.5 2087.66666667 908 2151 918 c 1
 2079.66666667 988 2044 1063 2044 1143 c 0
 2044 1232.33333333 2063 1305.33333333 2101 1362 c 128
 2139 1418.66666667 2187.16666667 1459.16666667 2245.5 1483.5 c 128
 2303.83333333 1507.83333333 2362.33333333 1520 2421 1520 c 0
 2521.66666667 1520 2611 1498.66666667 2689 1456 c 128
 2767 1413.33333333 2806 1339.66666667 2806 1235 c 0
 2806 1171 2784.16666667 1117.16666667 2740.5 1073.5 c 128
 2696.83333333 1029.83333333 2638.66666667 1008 2566 1008 c 0
 2518.66666667 1008 2478.16666667 1017.66666667 2444.5 1037 c 128
 2410.83333333 1056.33333333 2385.5 1081.5 2368.5 1112.5 c 128
 2351.5 1143.5 2343 1177 2343 1213 c 0
 2343 1243.66666667 2348.83333333 1273.83333333 2360.5 1303.5 c 128
 2372.16666667 1333.16666667 2389 1357.66666667 2411 1377 c 1
 2368 1379 l 2
 2323.33333333 1379 2284 1366 2250 1340 c 128
 2216 1314 2190.33333333 1281 2173 1241 c 128
 2155.66666667 1201 2147 1161 2147 1121 c 0
 2147 1047 2177.66666667 980.666666667 2239 922 c 1
 2273 922 2304.16666667 916.833333333 2332.5 906.5 c 128
 2360.83333333 896.166666667 2385.66666667 882 2407 864 c 0
 2447.66666667 830 2468 788.666666667 2468 740 c 2
 2468 457 l 1
 2565.33333333 440.333333333 2646 412.666666667 2710 374 c 128
 2774 335.333333333 2806 283.666666667 2806 219 c 0
2665 1213 m 0
 2665 1247.66666667 2653.16666667 1277.83333333 2629.5 1303.5 c 128
 2605.83333333 1329.16666667 2576 1342 2540 1342 c 1
 2508.66666667 1336 2483 1320.83333333 2463 1296.5 c 128
 2443 1272.16666667 2433 1243.66666667 2433 1211 c 0
 2433 1180.33333333 2444 1153.16666667 2466 1129.5 c 128
 2488 1105.83333333 2514.66666667 1094 2546 1094 c 0
 2578.66666667 1094 2606.66666667 1105.66666667 2630 1129 c 128
 2653.33333333 1152.33333333 2665 1180.33333333 2665 1213 c 0
2304 484 m 1
 2304 715 l 2
 2304 747.666666667 2291.5 773.5 2266.5 792.5 c 128
 2241.5 811.5 2207 821 2163 821 c 0
 2123 821 2091.83333333 807.333333333 2069.5 780 c 128
 2047.16666667 752.666666667 2036 716 2036 670 c 0
 2036 582 2125.33333333 520 2304 484 c 1
2700 228 m 0
 2700 261.333333333 2679.5 288 2638.5 308 c 128
 2597.5 328 2540.66666667 345 2468 359 c 1
 2468 94 l 1
 2583 94 l 2
 2661 94 2700 138.666666667 2700 228 c 0
1204 316 m 0
 1204 404.666666667 1154.33333333 449 1055 449 c 2
 920 449 l 1
 920 404.333333333 922.166666667 365.5 926.5 332.5 c 128
 930.833333333 299.5 936.666666667 272.666666667 944 252 c 0
 956 220 973.666666667 193.666666667 997 173 c 0
 1021.66666667 153.666666667 1049.33333333 144 1080 144 c 0
 1121.33333333 144 1152.33333333 160.666666667 1173 194 c 128
 1193.66666667 227.333333333 1204 268 1204 316 c 0
482 543 m 1
 482 828 l 1
 275 828 l 1
 275 543 l 1
 482 543 l 1
482 217 m 2
 482 449 l 1
 232 449 l 2
 202 449 171.5 435.166666667 140.5 407.5 c 128
 109.5 379.833333333 94 336.333333333 94 277 c 0
 94 155 162.333333333 94 299 94 c 0
 335.666666667 94 375.333333333 107 418 133 c 128
 460.666666667 159 482 187 482 217 c 2
EndSplineSet
EndChar

StartChar: u0B95_u0BB7_u0BCD
Encoding: 70 -1 70
Width: 3011
Flags: HW
AnchorPoint: "N" 492 0.897883 basechar 0
LayerCount: 2
Fore
SplineSet
2806 219 m 0
 2806 155.666666667 2788.33333333 103.333333333 2753 62 c 128
 2717.66666667 20.6666666667 2660.33333333 0 2581 0 c 2
 2468 0 l 1
 2468 -428 l 1
 2304 -428 l 1
 2304 0 l 1
 1436 0 l 1
 1562.66666667 126.666666667 1626 267.333333333 1626 422 c 0
 1626 498 1612.33333333 566.666666667 1585 628 c 128
 1557.66666667 689.333333333 1517.66666667 738 1465 774 c 128
 1412.33333333 810 1352 828 1284 828 c 0
 1208.66666667 828 1144.33333333 813.166666667 1091 783.5 c 128
 1037.66666667 753.833333333 997.5 717.166666667 970.5 673.5 c 128
 943.5 629.833333333 928 586.333333333 924 543 c 1
 1118 543 l 2
 1292 543 1379 468.666666667 1379 320 c 0
 1379 225.333333333 1357.33333333 148.333333333 1314 89 c 128
 1270.66666667 29.6666666667 1213 0 1141 0 c 0
 932.333333333 0 828 149.666666667 828 449 c 1
 654 449 l 1
 654 223 l 2
 654 185.666666667 637.166666667 149.666666667 603.5 115 c 128
 569.833333333 80.3333333333 527.666666667 52.6666666667 477 32 c 0
 451 21.3333333333 425.666666667 13.3333333333 401 8 c 128
 376.333333333 2.66666666667 350 0 322 0 c 0
 258 0 202.333333333 10.3333333333 155 31 c 128
 107.666666667 51.6666666667 70 84.3333333333 42 129 c 128
 14 173.666666667 0 228.333333333 0 293 c 0
 0 365 20.5 422.5 61.5 465.5 c 128
 102.5 508.5 143 533 183 539 c 1
 183 922 l 1
 854 922 l 1
 854 828 l 1
 654 828 l 1
 654 543 l 1
 836 543 l 1
 856.666666667 661 905.666666667 753.666666667 983 821 c 128
 1060.33333333 888.333333333 1161.33333333 922 1286 922 c 0
 1402 922 1497.66666667 899.833333333 1573 855.5 c 128
 1648.33333333 811.166666667 1703.33333333 752 1738 678 c 128
 1772.66666667 604 1790 520.666666667 1790 428 c 0
 1790 304.666666667 1753.33333333 193.333333333 1680 94 c 1
 2304 94 l 1
 2304 385 l 1
 2069.33333333 431.666666667 1952 526 1952 668 c 0
 1952 748 1973.5 810.333333333 2016.5 855 c 128
 2059.5 899.666666667 2123.33333333 922 2208 922 c 0
 2291.33333333 922 2355.5 905 2400.5 871 c 128
 2445.5 837 2468 793.333333333 2468 740 c 2
 2468 457 l 1
 2565.33333333 440.333333333 2646 412.666666667 2710 374 c 128
 2774 335.333333333 2806 283.666666667 2806 219 c 0
2304 484 m 1
 2304 715 l 2
 2304 747.666666667 2291.5 773.5 2266.5 792.5 c 128
 2241.5 811.5 2207 821 2163 821 c 0
 2123 821 2091.83333333 807.333333333 2069.5 780 c 128
 2047.16666667 752.666666667 2036 716 2036 670 c 0
 2036 582 2125.33333333 520 2304 484 c 1
2700 228 m 0
 2700 261.333333333 2679.5 288 2638.5 308 c 128
 2597.5 328 2540.66666667 345 2468 359 c 1
 2468 94 l 1
 2583 94 l 2
 2661 94 2700 138.666666667 2700 228 c 0
1204 316 m 0
 1204 404.666666667 1154.33333333 449 1055 449 c 2
 920 449 l 1
 920 404.333333333 922.166666667 365.5 926.5 332.5 c 128
 930.833333333 299.5 936.666666667 272.666666667 944 252 c 0
 956 220 973.666666667 193.666666667 997 173 c 0
 1021.66666667 153.666666667 1049.33333333 144 1080 144 c 0
 1121.33333333 144 1152.33333333 160.666666667 1173 194 c 128
 1193.66666667 227.333333333 1204 268 1204 316 c 0
482 543 m 1
 482 828 l 1
 275 828 l 1
 275 543 l 1
 482 543 l 1
482 217 m 2
 482 449 l 1
 232 449 l 2
 202 449 171.5 435.166666667 140.5 407.5 c 128
 109.5 379.833333333 94 336.333333333 94 277 c 0
 94 155 162.333333333 94 299 94 c 0
 335.666666667 94 375.333333333 107 418 133 c 128
 460.666666667 159 482 187 482 217 c 2
1471 1204 m 0
 1471 1170 1458.16666667 1140 1432.5 1114 c 128
 1406.83333333 1088 1376.66666667 1075 1342 1075 c 256
 1307.33333333 1075 1277.16666667 1087.83333333 1251.5 1113.5 c 128
 1225.83333333 1139.16666667 1213 1169.33333333 1213 1204 c 0
 1213 1239.33333333 1225.66666667 1269.66666667 1251 1295 c 128
 1276.33333333 1320.33333333 1306.66666667 1333 1342 1333 c 256
 1377.33333333 1333 1407.66666667 1320.33333333 1433 1295 c 128
 1458.33333333 1269.66666667 1471 1239.33333333 1471 1204 c 0
EndSplineSet
EndChar

StartChar: u0B9A
Encoding: 71 2970 71
Width: 1059
Flags: HW
AnchorPoint: "V" 492 939 basechar 0
AnchorPoint: "N" 492 0.935258 basechar 0
LayerCount: 2
Fore
SplineSet
854 449 m 1
 654 449 l 1
 654 223 l 2
 654 185.666666667 637.166666667 149.666666667 603.5 115 c 128
 569.833333333 80.3333333333 527.666666667 52.6666666667 477 32 c 0
 451 21.3333333333 425.666666667 13.3333333333 401 8 c 128
 376.333333333 2.66666666667 350 0 322 0 c 0
 258 0 202.333333333 10.3333333333 155 31 c 128
 107.666666667 51.6666666667 70 84.3333333333 42 129 c 128
 14 173.666666667 0 228.333333333 0 293 c 0
 0 365 20.5 422.5 61.5 465.5 c 128
 102.5 508.5 143 533 183 539 c 1
 183 922 l 1
 854 922 l 1
 854 828 l 1
 654 828 l 1
 654 543 l 1
 854 543 l 1
 854 449 l 1
482 543 m 1
 482 828 l 1
 275 828 l 1
 275 543 l 1
 482 543 l 1
482 217 m 2
 482 449 l 1
 232 449 l 2
 202 449 171.5 435.166666667 140.5 407.5 c 128
 109.5 379.833333333 94 336.333333333 94 277 c 0
 94 155 162.333333333 94 299 94 c 0
 335.666666667 94 375.333333333 107 418 133 c 128
 460.666666667 159 482 187 482 217 c 2
EndSplineSet
EndChar

StartChar: u0B9A_u0BBF
Encoding: 72 -1 72
Width: 1286
Flags: HW
AnchorPoint: "V" 492 1468.66 basechar 0
AnchorPoint: "N" 492 0.935258 basechar 0
LayerCount: 2
Fore
SplineSet
1082 0 m 1
 998 0 l 1
 998 914 l 2
 998 985.333333333 978.166666667 1050.5 938.5 1109.5 c 128
 898.833333333 1168.5 844.833333333 1214.5 776.5 1247.5 c 128
 708.166666667 1280.5 634.333333333 1297 555 1297 c 0
 397.666666667 1297 281.5 1259.16666667 206.5 1183.5 c 128
 131.5 1107.83333333 94 1009.66666667 94 889 c 0
 94 834.333333333 101.5 780.5 116.5 727.5 c 128
 131.5 674.5 153.666666667 631.333333333 183 598 c 1
 183 922 l 1
 854 922 l 1
 854 828 l 1
 654 828 l 1
 654 543 l 1
 854 543 l 1
 854 449 l 1
 654 449 l 1
 654 223 l 2
 654 185.666666667 637.166666667 149.666666667 603.5 115 c 128
 569.833333333 80.3333333333 527.666666667 52.6666666667 477 32 c 0
 451 21.3333333333 425.666666667 13.3333333333 401 8 c 128
 376.333333333 2.66666666667 350 0 322 0 c 0
 258 0 202.333333333 10.3333333333 155 31 c 128
 107.666666667 51.6666666667 70 84.3333333333 42 129 c 128
 14 173.666666667 0 228.333333333 0 293 c 0
 0 349 13 396.666666667 39 436 c 128
 65 475.333333333 95.6666666667 504 131 522 c 1
 43.6666666667 604 0 723 0 879 c 0
 0 954.333333333 10.1666666667 1026.5 30.5 1095.5 c 128
 50.8333333333 1164.5 83.1666666667 1227.5 127.5 1284.5 c 128
 171.833333333 1341.5 229.5 1386.83333333 300.5 1420.5 c 128
 371.5 1454.16666667 455.666666667 1471 553 1471 c 0
 663 1471 757.833333333 1449.5 837.5 1406.5 c 128
 917.166666667 1363.5 977.833333333 1299 1019.5 1213 c 128
 1061.16666667 1127 1082 1022.33333333 1082 899 c 2
 1082 0 l 1
482 543 m 1
 482 828 l 1
 275 828 l 1
 275 543 l 1
 482 543 l 1
482 217 m 2
 482 449 l 1
 232 449 l 2
 202 449 171.5 435.166666667 140.5 407.5 c 128
 109.5 379.833333333 94 336.333333333 94 277 c 0
 94 155 162.333333333 94 299 94 c 0
 335.666666667 94 375.333333333 107 418 133 c 128
 460.666666667 159 482 187 482 217 c 2
EndSplineSet
EndChar

StartChar: u0B9A_u0BC0
Encoding: 73 -1 73
Width: 1057
Flags: HW
AnchorPoint: "V" 492 1503.25 basechar 0
AnchorPoint: "N" 492 0.935258 basechar 0
LayerCount: 2
Fore
SplineSet
1037 1235 m 0
 1037 1171 1014.83333333 1117.16666667 970.5 1073.5 c 128
 926.166666667 1029.83333333 868.333333333 1008 797 1008 c 0
 750.333333333 1008 710.5 1017.33333333 677.5 1036 c 128
 644.5 1054.66666667 619.333333333 1079.66666667 602 1111 c 128
 584.666666667 1142.33333333 576 1176.33333333 576 1213 c 0
 576 1285 597.666666667 1339.66666667 641 1377 c 1
 598 1379 l 1
 500.666666667 1379 413.166666667 1354.5 335.5 1305.5 c 128
 257.833333333 1256.5 198.166666667 1194.16666667 156.5 1118.5 c 128
 114.833333333 1042.83333333 94 966.333333333 94 889 c 0
 94 834.333333333 101.5 780.5 116.5 727.5 c 128
 131.5 674.5 153.666666667 631.333333333 183 598 c 1
 183 922 l 1
 852 922 l 1
 852 828 l 1
 654 828 l 1
 654 543 l 1
 852 543 l 1
 852 449 l 1
 654 449 l 1
 654 223 l 2
 654 185.666666667 637.166666667 149.666666667 603.5 115 c 128
 569.833333333 80.3333333333 527.666666667 52.6666666667 477 32 c 0
 451 21.3333333333 425.666666667 13.3333333333 401 8 c 128
 376.333333333 2.66666666667 350 0 322 0 c 0
 258 0 202.333333333 10.3333333333 155 31 c 128
 107.666666667 51.6666666667 70 84.3333333333 42 129 c 128
 14 173.666666667 0 228.333333333 0 293 c 0
 0 349 13 396.666666667 39 436 c 128
 65 475.333333333 95.6666666667 504 131 522 c 1
 43.6666666667 604 0 723 0 879 c 0
 0 1003 27.6666666667 1113.66666667 83 1211 c 128
 138.333333333 1308.33333333 215.833333333 1384.16666667 315.5 1438.5 c 128
 415.166666667 1492.83333333 528 1520 654 1520 c 0
 754.666666667 1520 843.666666667 1498.66666667 921 1456 c 128
 998.333333333 1413.33333333 1037 1339.66666667 1037 1235 c 0
895 1213 m 0
 895 1248.33333333 883.333333333 1278.66666667 860 1304 c 128
 836.666666667 1329.33333333 806.666666667 1342 770 1342 c 1
 738 1336 712.333333333 1320.66666667 693 1296 c 128
 673.666666667 1271.33333333 664 1243 664 1211 c 0
 664 1179.66666667 674.833333333 1152.33333333 696.5 1129 c 128
 718.166666667 1105.66666667 744.666666667 1094 776 1094 c 0
 809.333333333 1094 837.5 1105.66666667 860.5 1129 c 128
 883.5 1152.33333333 895 1180.33333333 895 1213 c 0
482 543 m 1
 482 828 l 1
 275 828 l 1
 275 543 l 1
 482 543 l 1
482 217 m 2
 482 449 l 1
 232 449 l 2
 202 449 171.5 435.166666667 140.5 407.5 c 128
 109.5 379.833333333 94 336.333333333 94 277 c 0
 94 155 162.333333333 94 299 94 c 0
 335.666666667 94 375.333333333 107 418 133 c 128
 460.666666667 159 482 187 482 217 c 2
EndSplineSet
EndChar

StartChar: u0B9A_u0BC1
Encoding: 74 -1 74
Width: 1387
Flags: HW
AnchorPoint: "V" 492 939 basechar 0
AnchorPoint: "N" 492 0.935258 basechar 0
LayerCount: 2
Fore
SplineSet
1182 449 m 1
 1002 449 l 1
 1002 0 l 1
 828 0 l 1
 828 449 l 1
 654 449 l 1
 654 223 l 2
 654 185.666666667 637.166666667 149.666666667 603.5 115 c 128
 569.833333333 80.3333333333 527.666666667 52.6666666667 477 32 c 0
 451 21.3333333333 425.666666667 13.3333333333 401 8 c 128
 376.333333333 2.66666666667 350 0 322 0 c 0
 258 0 202.333333333 10.3333333333 155 31 c 128
 107.666666667 51.6666666667 70 84.3333333333 42 129 c 128
 14 173.666666667 0 228.333333333 0 293 c 0
 0 365 20.5 422.5 61.5 465.5 c 128
 102.5 508.5 143 533 183 539 c 1
 183 922 l 1
 854 922 l 1
 854 828 l 1
 654 828 l 1
 654 543 l 1
 1182 543 l 1
 1182 449 l 1
482 543 m 1
 482 828 l 1
 275 828 l 1
 275 543 l 1
 482 543 l 1
482 217 m 2
 482 449 l 1
 232 449 l 2
 202 449 171.5 435.166666667 140.5 407.5 c 128
 109.5 379.833333333 94 336.333333333 94 277 c 0
 94 155 162.333333333 94 299 94 c 0
 335.666666667 94 375.333333333 107 418 133 c 128
 460.666666667 159 482 187 482 217 c 2
EndSplineSet
EndChar

StartChar: u0B9A_u0BC2
Encoding: 75 -1 75
Width: 1575
Flags: HW
AnchorPoint: "V" 492 939 basechar 0
AnchorPoint: "N" 492 0.935258 basechar 0
LayerCount: 2
Fore
SplineSet
1370 45 m 0
 1370 -36.3333333333 1353.66666667 -110.166666667 1321 -176.5 c 128
 1288.33333333 -242.833333333 1242.33333333 -300 1183 -348 c 128
 1123.66666667 -396 1053.66666667 -433 973 -459 c 128
 892.333333333 -485 805 -498 711 -498 c 0
 595.666666667 -498 496.333333333 -487.5 413 -466.5 c 128
 329.666666667 -445.5 266.333333333 -414.666666667 223 -374 c 128
 179.666666667 -333.333333333 158 -285.333333333 158 -230 c 0
 158 -170 183.666666667 -124.166666667 235 -92.5 c 128
 286.333333333 -60.8333333333 349.333333333 -45 424 -45 c 0
 477.333333333 -45 529.833333333 -54.6666666667 581.5 -74 c 128
 633.166666667 -93.3333333333 676.333333333 -118.666666667 711 -150 c 1
 678 -207 l 1
 606.666666667 -149.666666667 519.333333333 -121 416 -121 c 0
 363.333333333 -121 322.166666667 -130.166666667 292.5 -148.5 c 128
 262.833333333 -166.833333333 248 -192.666666667 248 -226 c 0
 248 -269.333333333 267.333333333 -304.333333333 306 -331 c 128
 344.666666667 -357.666666667 394.833333333 -376.833333333 456.5 -388.5 c 128
 518.166666667 -400.166666667 583.333333333 -406 652 -406 c 0
 757.333333333 -406 851.5 -384.833333333 934.5 -342.5 c 128
 1017.5 -300.166666667 1082 -245 1128 -177 c 0
 1150.66666667 -143 1167.66666667 -108.5 1179 -73.5 c 128
 1190.33333333 -38.5 1196 -1.66666666667 1196 37 c 0
 1196 114.333333333 1181.33333333 172.666666667 1152 212 c 128
 1122.66666667 251.333333333 1089 271 1051 271 c 0
 1033 271 1016.66666667 265.333333333 1002 254 c 1
 1002 0 l 1
 828 0 l 1
 828 449 l 1
 654 449 l 1
 654 223 l 2
 654 185.666666667 637.166666667 149.666666667 603.5 115 c 128
 569.833333333 80.3333333333 527.666666667 52.6666666667 477 32 c 0
 451 21.3333333333 425.666666667 13.3333333333 401 8 c 128
 376.333333333 2.66666666667 350 0 322 0 c 0
 258 0 202.333333333 10.3333333333 155 31 c 128
 107.666666667 51.6666666667 70 84.3333333333 42 129 c 128
 14 173.666666667 0 228.333333333 0 293 c 0
 0 365 20.5 422.5 61.5 465.5 c 128
 102.5 508.5 143 533 183 539 c 1
 183 922 l 1
 854 922 l 1
 854 828 l 1
 654 828 l 1
 654 543 l 1
 1182 543 l 1
 1182 449 l 1
 1002 449 l 1
 1002 355 l 1
 1032 375 1067.33333333 385 1108 385 c 0
 1154 385 1196.83333333 372 1236.5 346 c 128
 1276.16666667 320 1308.33333333 281.166666667 1333 229.5 c 128
 1357.66666667 177.833333333 1370 116.333333333 1370 45 c 0
482 543 m 1
 482 828 l 1
 275 828 l 1
 275 543 l 1
 482 543 l 1
482 217 m 2
 482 449 l 1
 232 449 l 2
 202 449 171.5 435.166666667 140.5 407.5 c 128
 109.5 379.833333333 94 336.333333333 94 277 c 0
 94 155 162.333333333 94 299 94 c 0
 335.666666667 94 375.333333333 107 418 133 c 128
 460.666666667 159 482 187 482 217 c 2
EndSplineSet
EndChar

StartChar: u0B9A_u0BCD
Encoding: 76 -1 76
Width: 1059
Flags: HW
AnchorPoint: "N" 492 0.935258 basechar 0
LayerCount: 2
Fore
SplineSet
621 1204 m 0
 621 1170 608.166666667 1140 582.5 1114 c 128
 556.833333333 1088 526.666666667 1075 492 1075 c 256
 457.333333333 1075 427.166666667 1087.83333333 401.5 1113.5 c 128
 375.833333333 1139.16666667 363 1169.33333333 363 1204 c 0
 363 1239.33333333 375.666666667 1269.66666667 401 1295 c 128
 426.333333333 1320.33333333 456.666666667 1333 492 1333 c 256
 527.333333333 1333 557.666666667 1320.33333333 583 1295 c 128
 608.333333333 1269.66666667 621 1239.33333333 621 1204 c 0
854 449 m 1
 654 449 l 1
 654 223 l 2
 654 185.666666667 637.166666667 149.666666667 603.5 115 c 128
 569.833333333 80.3333333333 527.666666667 52.6666666667 477 32 c 0
 451 21.3333333333 425.666666667 13.3333333333 401 8 c 128
 376.333333333 2.66666666667 350 0 322 0 c 0
 258 0 202.333333333 10.3333333333 155 31 c 128
 107.666666667 51.6666666667 70 84.3333333333 42 129 c 128
 14 173.666666667 0 228.333333333 0 293 c 0
 0 365 20.5 422.5 61.5 465.5 c 128
 102.5 508.5 143 533 183 539 c 1
 183 922 l 1
 854 922 l 1
 854 828 l 1
 654 828 l 1
 654 543 l 1
 854 543 l 1
 854 449 l 1
482 543 m 1
 482 828 l 1
 275 828 l 1
 275 543 l 1
 482 543 l 1
482 217 m 2
 482 449 l 1
 232 449 l 2
 202 449 171.5 435.166666667 140.5 407.5 c 128
 109.5 379.833333333 94 336.333333333 94 277 c 0
 94 155 162.333333333 94 299 94 c 0
 335.666666667 94 375.333333333 107 418 133 c 128
 460.666666667 159 482 187 482 217 c 2
EndSplineSet
EndChar

StartChar: u0B9C
Encoding: 77 2972 77
Width: 1325
Flags: HW
AnchorPoint: "V" 584 939 basechar 0
AnchorPoint: "N" 584 -322.459 basechar 0
LayerCount: 2
Fore
SplineSet
1121 594 m 0
 1121 554 1115.66666667 510.333333333 1105 463 c 128
 1094.33333333 415.666666667 1077 372 1053 332 c 128
 1029 292 998.333333333 262 961 242 c 0
 940.333333333 231.333333333 917.666666667 222 893 214 c 128
 868.333333333 206 840.666666667 199.333333333 810 194 c 128
 779.333333333 188.666666667 749.833333333 184.333333333 721.5 181 c 128
 693.166666667 177.666666667 661.333333333 176 626 176 c 0
 592 176 562.5 175 537.5 173 c 128
 512.5 171 479.666666667 168 439 164 c 128
 398.333333333 160 359.333333333 150.333333333 322 135 c 1
 293.333333333 126.333333333 266.333333333 107.5 241 78.5 c 128
 215.666666667 49.5 203 9.66666666667 203 -41 c 0
 203 -171 247.333333333 -236 336 -236 c 0
 371.333333333 -236 402.666666667 -230.5 430 -219.5 c 128
 457.333333333 -208.5 480.666666667 -193.666666667 500 -175 c 0
 517.333333333 -159.666666667 535.666666667 -139 555 -113 c 2
 606 -43 l 1
 652 18 l 2
 666 37.3333333333 682.666666667 54.8333333333 702 70.5 c 128
 721.333333333 86.1666666667 746 99 776 109 c 0
 807.333333333 118.333333333 843.666666667 123 885 123 c 0
 957.666666667 123 1014.66666667 105 1056 69 c 128
 1097.33333333 33 1118 -18.6666666667 1118 -86 c 256
 1118 -153.333333333 1097.33333333 -209.166666667 1056 -253.5 c 128
 1014.66666667 -297.833333333 953 -320 871 -320 c 0
 811.666666667 -320 760.333333333 -307.666666667 717 -283 c 1
 742 -209 l 1
 772.666666667 -220.333333333 809.333333333 -226 852 -226 c 0
 886.666666667 -226 912.833333333 -214.333333333 930.5 -191 c 128
 948.166666667 -167.666666667 957 -138.333333333 957 -103 c 0
 957 -57.6666666667 948.5 -25.6666666667 931.5 -7 c 128
 914.5 11.6666666667 882.666666667 21 836 21 c 0
 818.666666667 21 801.333333333 14.3333333333 784 1 c 0
 778.666666667 -3 769.833333333 -11.5 757.5 -24.5 c 128
 745.166666667 -37.5 736 -47.6666666667 730 -55 c 2
 682 -117 l 2
 642 -168.333333333 610.5 -206.333333333 587.5 -231 c 128
 564.5 -255.666666667 533.166666667 -279 493.5 -301 c 128
 453.833333333 -323 409 -334 359 -334 c 0
 245 -334 163.166666667 -309.333333333 113.5 -260 c 128
 63.8333333333 -210.666666667 39 -137.666666667 39 -41 c 0
 39 30.3333333333 54.5 84.1666666667 85.5 120.5 c 128
 116.5 156.833333333 158.333333333 185 211 205 c 0
 277.666666667 231.666666667 352.333333333 248.666666667 435 256 c 2
 674 277 l 1
 711.333333333 277 744.333333333 280.666666667 773 288 c 128
 801.666666667 295.333333333 828.666666667 305.333333333 854 318 c 0
 893.333333333 336 920.666666667 376.5 936 439.5 c 128
 951.333333333 502.5 959 559.666666667 959 611 c 0
 959 673.666666667 944.833333333 725.5 916.5 766.5 c 128
 888.166666667 807.5 846.333333333 828 791 828 c 0
 754.333333333 828 727 812.333333333 709 781 c 128
 691 749.666666667 682 719.333333333 682 690 c 2
 682 428 l 1
 518 428 l 1
 518 680 l 2
 518 700 512.166666667 721.333333333 500.5 744 c 128
 488.833333333 766.666666667 469.166666667 786.333333333 441.5 803 c 128
 413.833333333 819.666666667 379.333333333 828 338 828 c 0
 286.666666667 828 238.5 815.666666667 193.5 791 c 128
 148.5 766.333333333 119 736.333333333 105 701 c 1
 137 735 180 752 234 752 c 0
 272.666666667 752 307.333333333 741.833333333 338 721.5 c 128
 368.666666667 701.166666667 392.333333333 674.166666667 409 640.5 c 128
 425.666666667 606.833333333 434 569.666666667 434 529 c 0
 434 461 414.166666667 407.833333333 374.5 369.5 c 128
 334.833333333 331.166666667 281.666666667 312 215 312 c 0
 71.6666666667 312 0 414.333333333 0 619 c 0
 0 671 14.1666666667 720.333333333 42.5 767 c 128
 70.8333333333 813.666666667 113 851.166666667 169 879.5 c 128
 225 907.833333333 290.333333333 922 365 922 c 0
 494.333333333 922 579.666666667 889.333333333 621 824 c 1
 658.333333333 889.333333333 721 922 809 922 c 0
 911.666666667 922 989.333333333 893.333333333 1042 836 c 128
 1094.66666667 778.666666667 1121 698 1121 594 c 0
285 533 m 0
 285 546.333333333 282.666666667 559.666666667 278 573 c 0
 271.333333333 591 261.666666667 605 249 615 c 0
 232.333333333 628.333333333 213 635 191 635 c 0
 151 635 118.666666667 614.666666667 94 574 c 1
 94 531.333333333 103.5 495.666666667 122.5 467 c 128
 141.5 438.333333333 167 424 199 424 c 0
 225.666666667 424 246.666666667 435 262 457 c 0
 269.333333333 467.666666667 275 479.333333333 279 492 c 128
 283 504.666666667 285 518.333333333 285 533 c 0
EndSplineSet
EndChar

StartChar: u0B9C_u0BBF
Encoding: 78 -1 78
Width: 1585
Flags: HW
AnchorPoint: "V" 584 939 basechar 0
AnchorPoint: "N" 584 -322.459 basechar 0
LayerCount: 2
Fore
SplineSet
1381 0 m 1
 1297 0 l 1
 1297 1049 l 2
 1297 1122.33333333 1278 1184.66666667 1240 1236 c 128
 1202 1287.33333333 1140.33333333 1313 1055 1313 c 0
 973.666666667 1313 912.333333333 1289.33333333 871 1242 c 128
 829.666666667 1194.66666667 809 1127 809 1039 c 0
 809 993 822 954 848 922 c 1
 937.333333333 914 1005.16666667 881.833333333 1051.5 825.5 c 128
 1097.83333333 769.166666667 1121 692 1121 594 c 0
 1121 554 1115.66666667 510.333333333 1105 463 c 128
 1094.33333333 415.666666667 1077 372 1053 332 c 128
 1029 292 998.333333333 262 961 242 c 0
 940.333333333 231.333333333 917.666666667 222 893 214 c 128
 868.333333333 206 840.666666667 199.333333333 810 194 c 128
 779.333333333 188.666666667 749.833333333 184.333333333 721.5 181 c 128
 693.166666667 177.666666667 661.333333333 176 626 176 c 0
 592 176 562.5 175 537.5 173 c 128
 512.5 171 479.666666667 168 439 164 c 128
 398.333333333 160 359.333333333 150.333333333 322 135 c 1
 293.333333333 126.333333333 266.333333333 107.5 241 78.5 c 128
 215.666666667 49.5 203 9.66666666667 203 -41 c 0
 203 -171 247.333333333 -236 336 -236 c 0
 371.333333333 -236 402.666666667 -230.5 430 -219.5 c 128
 457.333333333 -208.5 480.666666667 -193.666666667 500 -175 c 0
 517.333333333 -159.666666667 535.666666667 -139 555 -113 c 2
 606 -43 l 1
 652 18 l 2
 666 37.3333333333 682.666666667 54.8333333333 702 70.5 c 128
 721.333333333 86.1666666667 746 99 776 109 c 0
 807.333333333 118.333333333 843.666666667 123 885 123 c 0
 957.666666667 123 1014.66666667 105 1056 69 c 128
 1097.33333333 33 1118 -18.6666666667 1118 -86 c 256
 1118 -153.333333333 1097.33333333 -209.166666667 1056 -253.5 c 128
 1014.66666667 -297.833333333 953 -320 871 -320 c 0
 811.666666667 -320 760.333333333 -307.666666667 717 -283 c 1
 742 -209 l 1
 772.666666667 -220.333333333 809.333333333 -226 852 -226 c 0
 886.666666667 -226 912.833333333 -214.333333333 930.5 -191 c 128
 948.166666667 -167.666666667 957 -138.333333333 957 -103 c 0
 957 -57.6666666667 948.5 -25.6666666667 931.5 -7 c 128
 914.5 11.6666666667 882.666666667 21 836 21 c 0
 818.666666667 21 801.333333333 14.3333333333 784 1 c 0
 778.666666667 -3 769.833333333 -11.5 757.5 -24.5 c 128
 745.166666667 -37.5 736 -47.6666666667 730 -55 c 2
 682 -117 l 2
 642 -168.333333333 610.5 -206.333333333 587.5 -231 c 128
 564.5 -255.666666667 533.166666667 -279 493.5 -301 c 128
 453.833333333 -323 409 -334 359 -334 c 0
 245 -334 163.166666667 -309.333333333 113.5 -260 c 128
 63.8333333333 -210.666666667 39 -137.666666667 39 -41 c 0
 39 30.3333333333 54.5 84.1666666667 85.5 120.5 c 128
 116.5 156.833333333 158.333333333 185 211 205 c 0
 277.666666667 231.666666667 352.333333333 248.666666667 435 256 c 2
 674 277 l 1
 711.333333333 277 744.333333333 280.666666667 773 288 c 128
 801.666666667 295.333333333 828.666666667 305.333333333 854 318 c 0
 893.333333333 336 920.666666667 376.5 936 439.5 c 128
 951.333333333 502.5 959 559.666666667 959 611 c 0
 959 673.666666667 944.833333333 725.5 916.5 766.5 c 128
 888.166666667 807.5 846.333333333 828 791 828 c 0
 754.333333333 828 727 812.333333333 709 781 c 128
 691 749.666666667 682 719.333333333 682 690 c 2
 682 428 l 1
 518 428 l 1
 518 680 l 2
 518 700 512.166666667 721.333333333 500.5 744 c 128
 488.833333333 766.666666667 469.166666667 786.333333333 441.5 803 c 128
 413.833333333 819.666666667 379.333333333 828 338 828 c 0
 286.666666667 828 238.5 815.666666667 193.5 791 c 128
 148.5 766.333333333 119 736.333333333 105 701 c 1
 137 735 180 752 234 752 c 0
 272.666666667 752 307.333333333 741.833333333 338 721.5 c 128
 368.666666667 701.166666667 392.333333333 674.166666667 409 640.5 c 128
 425.666666667 606.833333333 434 569.666666667 434 529 c 0
 434 461 414.166666667 407.833333333 374.5 369.5 c 128
 334.833333333 331.166666667 281.666666667 312 215 312 c 0
 71.6666666667 312 0 414.333333333 0 619 c 0
 0 671 14.1666666667 720.333333333 42.5 767 c 128
 70.8333333333 813.666666667 113 851.166666667 169 879.5 c 128
 225 907.833333333 290.333333333 922 365 922 c 0
 494.333333333 922 579.666666667 889.333333333 621 824 c 1
 647 872.666666667 690.666666667 903.333333333 752 916 c 1
 723.333333333 977.333333333 709 1044.66666667 709 1118 c 0
 709 1184 721 1243.66666667 745 1297 c 128
 769 1350.33333333 807.166666667 1393 859.5 1425 c 128
 911.833333333 1457 977.666666667 1473 1057 1473 c 0
 1273 1473 1381 1332.33333333 1381 1051 c 2
 1381 0 l 1
249 615 m 0
 232.333333333 628.333333333 213 635 191 635 c 0
 151 635 118.666666667 614.666666667 94 574 c 1
 94 531.333333333 103.5 495.666666667 122.5 467 c 128
 141.5 438.333333333 167 424 199 424 c 0
 225.666666667 424 246.666666667 435 262 457 c 0
 269.333333333 467.666666667 275 479.333333333 279 492 c 128
 283 504.666666667 285 518.333333333 285 533 c 0
 285 546.333333333 282.666666667 559.666666667 278 573 c 0
 271.333333333 591 261.666666667 605 249 615 c 0
EndSplineSet
EndChar

StartChar: u0B9C_u0BC0
Encoding: 79 -1 79
Width: 1391
Flags: HW
AnchorPoint: "V" 584 939 basechar 0
AnchorPoint: "N" 584 -322.459 basechar 0
LayerCount: 2
Fore
SplineSet
1411 1235 m 0
 1411 1171 1388.66666667 1117.16666667 1344 1073.5 c 128
 1299.33333333 1029.83333333 1241.33333333 1008 1170 1008 c 0
 1123.33333333 1008 1083.5 1017.33333333 1050.5 1036 c 128
 1017.5 1054.66666667 992.166666667 1079.83333333 974.5 1111.5 c 128
 956.833333333 1143.16666667 948 1177 948 1213 c 0
 948 1283 970 1337.66666667 1014 1377 c 1
 971 1379 l 1
 905.666666667 1379 852.5 1352.5 811.5 1299.5 c 128
 770.5 1246.5 750 1187 750 1121 c 0
 750 1049.66666667 780.666666667 983.333333333 842 922 c 1
 886 922 925 913.666666667 959 897 c 128
 993 880.333333333 1023 856.666666667 1049 826 c 0
 1097 770 1121 692.666666667 1121 594 c 0
 1121 554 1115.66666667 510.333333333 1105 463 c 128
 1094.33333333 415.666666667 1077 372 1053 332 c 128
 1029 292 998.333333333 262 961 242 c 0
 940.333333333 231.333333333 917.666666667 222 893 214 c 128
 868.333333333 206 840.666666667 199.333333333 810 194 c 128
 779.333333333 188.666666667 749.833333333 184.333333333 721.5 181 c 128
 693.166666667 177.666666667 661.333333333 176 626 176 c 0
 592 176 562.5 175 537.5 173 c 128
 512.5 171 479.666666667 168 439 164 c 128
 398.333333333 160 359.333333333 150.333333333 322 135 c 1
 293.333333333 126.333333333 266.333333333 107.5 241 78.5 c 128
 215.666666667 49.5 203 9.66666666667 203 -41 c 0
 203 -171 247.333333333 -236 336 -236 c 0
 371.333333333 -236 402.666666667 -230.5 430 -219.5 c 128
 457.333333333 -208.5 480.666666667 -193.666666667 500 -175 c 0
 517.333333333 -159.666666667 535.666666667 -139 555 -113 c 2
 606 -43 l 1
 652 18 l 2
 666 37.3333333333 682.666666667 54.8333333333 702 70.5 c 128
 721.333333333 86.1666666667 746 99 776 109 c 0
 807.333333333 118.333333333 843.666666667 123 885 123 c 0
 957.666666667 123 1014.66666667 105 1056 69 c 128
 1097.33333333 33 1118 -18.6666666667 1118 -86 c 256
 1118 -153.333333333 1097.33333333 -209.166666667 1056 -253.5 c 128
 1014.66666667 -297.833333333 953 -320 871 -320 c 0
 811.666666667 -320 760.333333333 -307.666666667 717 -283 c 1
 742 -209 l 1
 772.666666667 -220.333333333 809.333333333 -226 852 -226 c 0
 886.666666667 -226 912.833333333 -214.333333333 930.5 -191 c 128
 948.166666667 -167.666666667 957 -138.333333333 957 -103 c 0
 957 -57.6666666667 948.5 -25.6666666667 931.5 -7 c 128
 914.5 11.6666666667 882.666666667 21 836 21 c 0
 818.666666667 21 801.333333333 14.3333333333 784 1 c 0
 778.666666667 -3 769.833333333 -11.5 757.5 -24.5 c 128
 745.166666667 -37.5 736 -47.6666666667 730 -55 c 2
 682 -117 l 2
 642 -168.333333333 610.5 -206.333333333 587.5 -231 c 128
 564.5 -255.666666667 533.166666667 -279 493.5 -301 c 128
 453.833333333 -323 409 -334 359 -334 c 0
 245 -334 163.166666667 -309.333333333 113.5 -260 c 128
 63.8333333333 -210.666666667 39 -137.666666667 39 -41 c 0
 39 30.3333333333 54.5 84.1666666667 85.5 120.5 c 128
 116.5 156.833333333 158.333333333 185 211 205 c 0
 277.666666667 231.666666667 352.333333333 248.666666667 435 256 c 2
 674 277 l 1
 711.333333333 277 744.333333333 280.666666667 773 288 c 128
 801.666666667 295.333333333 828.666666667 305.333333333 854 318 c 0
 893.333333333 336 920.666666667 376.5 936 439.5 c 128
 951.333333333 502.5 959 559.666666667 959 611 c 0
 959 673.666666667 944.833333333 725.5 916.5 766.5 c 128
 888.166666667 807.5 846.333333333 828 791 828 c 0
 754.333333333 828 727 812.333333333 709 781 c 128
 691 749.666666667 682 719.333333333 682 690 c 2
 682 428 l 1
 518 428 l 1
 518 680 l 2
 518 700 512.166666667 721.333333333 500.5 744 c 128
 488.833333333 766.666666667 469.166666667 786.333333333 441.5 803 c 128
 413.833333333 819.666666667 379.333333333 828 338 828 c 0
 286.666666667 828 238.5 815.666666667 193.5 791 c 128
 148.5 766.333333333 119 736.333333333 105 701 c 1
 137 735 180 752 234 752 c 0
 272.666666667 752 307.333333333 741.833333333 338 721.5 c 128
 368.666666667 701.166666667 392.333333333 674.166666667 409 640.5 c 128
 425.666666667 606.833333333 434 569.666666667 434 529 c 0
 434 461 414.166666667 407.833333333 374.5 369.5 c 128
 334.833333333 331.166666667 281.666666667 312 215 312 c 0
 71.6666666667 312 0 414.333333333 0 619 c 0
 0 671 14.1666666667 720.333333333 42.5 767 c 128
 70.8333333333 813.666666667 113 851.166666667 169 879.5 c 128
 225 907.833333333 290.333333333 922 365 922 c 0
 494.333333333 922 579.666666667 889.333333333 621 824 c 1
 646.333333333 872 690.666666667 902.666666667 754 916 c 1
 684 988 649 1063.66666667 649 1143 c 0
 649 1273.66666667 687.666666667 1369.16666667 765 1429.5 c 128
 842.333333333 1489.83333333 929.333333333 1520 1026 1520 c 0
 1128.66666667 1520 1218.5 1498.5 1295.5 1455.5 c 128
 1372.5 1412.5 1411 1339 1411 1235 c 0
1268 1213 m 0
 1268 1247.66666667 1256.16666667 1277.83333333 1232.5 1303.5 c 128
 1208.83333333 1329.16666667 1179 1342 1143 1342 c 1
 1111 1336 1085.33333333 1320.66666667 1066 1296 c 128
 1046.66666667 1271.33333333 1037 1243 1037 1211 c 0
 1037 1179.66666667 1047.83333333 1152.33333333 1069.5 1129 c 128
 1091.16666667 1105.66666667 1117.66666667 1094 1149 1094 c 0
 1181.66666667 1094 1209.66666667 1105.5 1233 1128.5 c 128
 1256.33333333 1151.5 1268 1179.66666667 1268 1213 c 0
249 615 m 0
 232.333333333 628.333333333 213 635 191 635 c 0
 151 635 118.666666667 614.666666667 94 574 c 1
 94 531.333333333 103.5 495.666666667 122.5 467 c 128
 141.5 438.333333333 167 424 199 424 c 0
 225.666666667 424 246.666666667 435 262 457 c 0
 269.333333333 467.666666667 275 479.333333333 279 492 c 128
 283 504.666666667 285 518.333333333 285 533 c 0
 285 546.333333333 282.666666667 559.666666667 278 573 c 0
 271.333333333 591 261.666666667 605 249 615 c 0
EndSplineSet
EndChar

StartChar: u0B9C_u0BCD
Encoding: 80 -1 80
Width: 1325
Flags: HW
AnchorPoint: "N" 584 -322.459 basechar 0
LayerCount: 2
Fore
SplineSet
1121 594 m 0
 1121 554 1115.66666667 510.333333333 1105 463 c 128
 1094.33333333 415.666666667 1077 372 1053 332 c 128
 1029 292 998.333333333 262 961 242 c 0
 940.333333333 231.333333333 917.666666667 222 893 214 c 128
 868.333333333 206 840.666666667 199.333333333 810 194 c 128
 779.333333333 188.666666667 749.833333333 184.333333333 721.5 181 c 128
 693.166666667 177.666666667 661.333333333 176 626 176 c 0
 592 176 562.5 175 537.5 173 c 128
 512.5 171 479.666666667 168 439 164 c 128
 398.333333333 160 359.333333333 150.333333333 322 135 c 1
 293.333333333 126.333333333 266.333333333 107.5 241 78.5 c 128
 215.666666667 49.5 203 9.66666666667 203 -41 c 0
 203 -171 247.333333333 -236 336 -236 c 0
 371.333333333 -236 402.666666667 -230.5 430 -219.5 c 128
 457.333333333 -208.5 480.666666667 -193.666666667 500 -175 c 0
 517.333333333 -159.666666667 535.666666667 -139 555 -113 c 2
 606 -43 l 1
 652 18 l 2
 666 37.3333333333 682.666666667 54.8333333333 702 70.5 c 128
 721.333333333 86.1666666667 746 99 776 109 c 0
 807.333333333 118.333333333 843.666666667 123 885 123 c 0
 957.666666667 123 1014.66666667 105 1056 69 c 128
 1097.33333333 33 1118 -18.6666666667 1118 -86 c 256
 1118 -153.333333333 1097.33333333 -209.166666667 1056 -253.5 c 128
 1014.66666667 -297.833333333 953 -320 871 -320 c 0
 811.666666667 -320 760.333333333 -307.666666667 717 -283 c 1
 742 -209 l 1
 772.666666667 -220.333333333 809.333333333 -226 852 -226 c 0
 886.666666667 -226 912.833333333 -214.333333333 930.5 -191 c 128
 948.166666667 -167.666666667 957 -138.333333333 957 -103 c 0
 957 -57.6666666667 948.5 -25.6666666667 931.5 -7 c 128
 914.5 11.6666666667 882.666666667 21 836 21 c 0
 818.666666667 21 801.333333333 14.3333333333 784 1 c 0
 778.666666667 -3 769.833333333 -11.5 757.5 -24.5 c 128
 745.166666667 -37.5 736 -47.6666666667 730 -55 c 2
 682 -117 l 2
 642 -168.333333333 610.5 -206.333333333 587.5 -231 c 128
 564.5 -255.666666667 533.166666667 -279 493.5 -301 c 128
 453.833333333 -323 409 -334 359 -334 c 0
 245 -334 163.166666667 -309.333333333 113.5 -260 c 128
 63.8333333333 -210.666666667 39 -137.666666667 39 -41 c 0
 39 30.3333333333 54.5 84.1666666667 85.5 120.5 c 128
 116.5 156.833333333 158.333333333 185 211 205 c 0
 277.666666667 231.666666667 352.333333333 248.666666667 435 256 c 2
 674 277 l 1
 711.333333333 277 744.333333333 280.666666667 773 288 c 128
 801.666666667 295.333333333 828.666666667 305.333333333 854 318 c 0
 893.333333333 336 920.666666667 376.5 936 439.5 c 128
 951.333333333 502.5 959 559.666666667 959 611 c 0
 959 673.666666667 944.833333333 725.5 916.5 766.5 c 128
 888.166666667 807.5 846.333333333 828 791 828 c 0
 754.333333333 828 727 812.333333333 709 781 c 128
 691 749.666666667 682 719.333333333 682 690 c 2
 682 428 l 1
 518 428 l 1
 518 680 l 2
 518 700 512.166666667 721.333333333 500.5 744 c 128
 488.833333333 766.666666667 469.166666667 786.333333333 441.5 803 c 128
 413.833333333 819.666666667 379.333333333 828 338 828 c 0
 286.666666667 828 238.5 815.666666667 193.5 791 c 128
 148.5 766.333333333 119 736.333333333 105 701 c 1
 137 735 180 752 234 752 c 0
 272.666666667 752 307.333333333 741.833333333 338 721.5 c 128
 368.666666667 701.166666667 392.333333333 674.166666667 409 640.5 c 128
 425.666666667 606.833333333 434 569.666666667 434 529 c 0
 434 461 414.166666667 407.833333333 374.5 369.5 c 128
 334.833333333 331.166666667 281.666666667 312 215 312 c 0
 71.6666666667 312 0 414.333333333 0 619 c 0
 0 671 14.1666666667 720.333333333 42.5 767 c 128
 70.8333333333 813.666666667 113 851.166666667 169 879.5 c 128
 225 907.833333333 290.333333333 922 365 922 c 0
 494.333333333 922 579.666666667 889.333333333 621 824 c 1
 658.333333333 889.333333333 721 922 809 922 c 0
 911.666666667 922 989.333333333 893.333333333 1042 836 c 128
 1094.66666667 778.666666667 1121 698 1121 594 c 0
281 563 m 0
 277 584.333333333 266.5 601.666666667 249.5 615 c 128
 232.5 628.333333333 213 635 191 635 c 0
 151 635 118.666666667 614.666666667 94 574 c 1
 94 531.333333333 103.5 495.666666667 122.5 467 c 128
 141.5 438.333333333 167 424 199 424 c 0
 225.666666667 424 246.666666667 435 262 457 c 0
 269.333333333 467.666666667 275 479.333333333 279 492 c 128
 283 504.666666667 285 518.333333333 285 533 c 0
 285 541.666666667 283.666666667 551.666666667 281 563 c 0
713 1204 m 0
 713 1170 700.166666667 1140 674.5 1114 c 128
 648.833333333 1088 618.666666667 1075 584 1075 c 256
 549.333333333 1075 519.166666667 1087.83333333 493.5 1113.5 c 128
 467.833333333 1139.16666667 455 1169.33333333 455 1204 c 0
 455 1239.33333333 467.666666667 1269.66666667 493 1295 c 128
 518.333333333 1320.33333333 548.666666667 1333 584 1333 c 256
 619.333333333 1333 649.666666667 1320.33333333 675 1295 c 128
 700.333333333 1269.66666667 713 1239.33333333 713 1204 c 0
EndSplineSet
EndChar

StartChar: u0B9E
Encoding: 81 2974 81
Width: 1794
Flags: HW
AnchorPoint: "V" 942 939 basechar 0
AnchorPoint: "N" 942 -399.974 basechar 0
LayerCount: 2
Fore
SplineSet
1589 219 m 0
 1589 173.666666667 1585.66666667 132 1579 94 c 128
 1572.33333333 56 1561 17.3333333333 1545 -22 c 0
 1515 -95.3333333333 1468.16666667 -160.5 1404.5 -217.5 c 128
 1340.83333333 -274.5 1257.16666667 -319.166666667 1153.5 -351.5 c 128
 1049.83333333 -383.833333333 929 -400 791 -400 c 0
 667.666666667 -400 557 -384 459 -352 c 128
 361 -320 278 -273.333333333 210 -212 c 128
 142 -150.666666667 90 -75.6666666667 54 13 c 128
 18 101.666666667 0 201.333333333 0 312 c 0
 0 396 8.83333333333 478.166666667 26.5 558.5 c 128
 44.1666666667 638.833333333 69 709.833333333 101 771.5 c 128
 133 833.166666667 171.666666667 884.666666667 217 926 c 1
 279 873 l 1
 237 831 202.166666667 780 174.5 720 c 128
 146.833333333 660 126.333333333 595 113 525 c 0
 107 490.333333333 102.333333333 454.833333333 99 418.5 c 128
 95.6666666667 382.166666667 94 344.333333333 94 305 c 0
 94 185 122.833333333 78.3333333333 180.5 -15 c 128
 238.166666667 -108.333333333 318.166666667 -180 420.5 -230 c 128
 522.833333333 -280 640.666666667 -305 774 -305 c 0
 922 -305 1044.16666667 -280.666666667 1140.5 -232 c 128
 1236.83333333 -183.333333333 1307 -119.333333333 1351 -40 c 128
 1395 39.3333333333 1417 124.333333333 1417 215 c 0
 1417 271.666666667 1404.33333333 323.833333333 1379 371.5 c 128
 1353.66666667 419.166666667 1310.66666667 443 1250 443 c 0
 1196 443 1159.66666667 425.666666667 1141 391 c 1
 1141 0 l 1
 967 0 l 1
 967 828 l 1
 697 828 l 2
 591.666666667 828 508.833333333 800.5 448.5 745.5 c 128
 388.166666667 690.5 352 627 340 555 c 1
 384 595 442.666666667 615 516 615 c 0
 568.666666667 615 616.166666667 602.333333333 658.5 577 c 128
 700.833333333 551.666666667 733.5 516.666666667 756.5 472 c 128
 779.5 427.333333333 791 376.666666667 791 320 c 0
 791 222.666666667 771.166666667 145 731.5 87 c 128
 691.833333333 29 632.333333333 0 553 0 c 0
 488.333333333 0 432.5 16.5 385.5 49.5 c 128
 338.5 82.5 302.5 130.833333333 277.5 194.5 c 128
 252.5 258.166666667 240 335.333333333 240 426 c 0
 240 502 250 570.5 270 631.5 c 128
 290 692.5 319.5 744.833333333 358.5 788.5 c 128
 397.5 832.166666667 444.333333333 865.333333333 499 888 c 128
 553.666666667 910.666666667 613.333333333 922 678 922 c 2
 1342 922 l 1
 1342 828 l 1
 1141 828 l 1
 1141 512 l 1
 1177 546 1223.33333333 563 1280 563 c 0
 1348 563 1405 546 1451 512 c 128
 1497 478 1531.5 434.5 1554.5 381.5 c 128
 1577.5 328.5 1589 274.333333333 1589 219 c 0
617 316 m 0
 617 360.666666667 602.5 401.5 573.5 438.5 c 128
 544.5 475.5 511 494 473 494 c 0
 437.666666667 494 407.666666667 483.833333333 383 463.5 c 128
 358.333333333 443.166666667 342 418.333333333 334 389 c 1
 334 319.666666667 347.5 261.5 374.5 214.5 c 128
 401.5 167.5 440.666666667 144 492 144 c 0
 531.333333333 144 562 161 584 195 c 128
 606 229 617 269.333333333 617 316 c 0
EndSplineSet
EndChar

StartChar: u0B9E_u0BBF
Encoding: 82 -1 82
Width: 1985
Flags: HW
AnchorPoint: "V" 942 939 basechar 0
AnchorPoint: "N" 942 -399.974 basechar 0
LayerCount: 2
Fore
SplineSet
1780 0 m 1
 1696 0 l 1
 1696 1049 l 2
 1696 1127 1675.66666667 1190.5 1635 1239.5 c 128
 1594.33333333 1288.5 1514.33333333 1313 1395 1313 c 0
 1291 1313 1214.16666667 1289.5 1164.5 1242.5 c 128
 1114.83333333 1195.5 1090 1127.66666667 1090 1039 c 0
 1090 993 1101.66666667 954 1125 922 c 1
 1342 922 l 1
 1342 828 l 1
 1141 828 l 1
 1141 545 l 1
 1179 579 1226 596 1282 596 c 0
 1310 596 1336.83333333 590.833333333 1362.5 580.5 c 128
 1388.16666667 570.166666667 1413.66666667 553 1439 529 c 0
 1475.66666667 495.666666667 1505.16666667 447.666666667 1527.5 385 c 128
 1549.83333333 322.333333333 1561 250 1561 168 c 0
 1561 89.3333333333 1545 15.3333333333 1513 -54 c 128
 1481 -123.333333333 1433.16666667 -183.5 1369.5 -234.5 c 128
 1305.83333333 -285.5 1223 -325.833333333 1121 -355.5 c 128
 1019 -385.166666667 902 -400 770 -400 c 0
 632 -400 504.166666667 -371.5 386.5 -314.5 c 128
 268.833333333 -257.5 175 -174.5 105 -65.5 c 128
 35 43.5 0 169.333333333 0 312 c 0
 0 396 8.83333333333 478.166666667 26.5 558.5 c 128
 44.1666666667 638.833333333 69 709.833333333 101 771.5 c 128
 133 833.166666667 171.666666667 884.666666667 217 926 c 1
 279 873 l 1
 237 831 202.166666667 780 174.5 720 c 128
 146.833333333 660 126.333333333 595 113 525 c 0
 107 490.333333333 102.333333333 454.833333333 99 418.5 c 128
 95.6666666667 382.166666667 94 344.333333333 94 305 c 0
 94 215.666666667 112.166666667 133.5 148.5 58.5 c 128
 184.833333333 -16.5 235.5 -81.5 300.5 -136.5 c 128
 365.5 -191.5 438.333333333 -233.333333333 519 -262 c 128
 599.666666667 -290.666666667 684.666666667 -305 774 -305 c 0
 918 -305 1036.5 -281.833333333 1129.5 -235.5 c 128
 1222.5 -189.166666667 1290.33333333 -128.5 1333 -53.5 c 128
 1375.66666667 21.5 1397 101 1397 185 c 0
 1397 255.666666667 1386.33333333 314.333333333 1365 361 c 0
 1349.66666667 394.333333333 1330.33333333 421 1307 441 c 128
 1283.66666667 461 1257.66666667 471 1229 471 c 0
 1193 471 1163.66666667 456.666666667 1141 428 c 1
 1141 0 l 1
 967 0 l 1
 967 828 l 1
 697 828 l 2
 591.666666667 828 508.833333333 800.5 448.5 745.5 c 128
 388.166666667 690.5 352 627 340 555 c 1
 384 595 442.666666667 615 516 615 c 0
 568.666666667 615 616.166666667 602.333333333 658.5 577 c 128
 700.833333333 551.666666667 733.5 516.666666667 756.5 472 c 128
 779.5 427.333333333 791 376.666666667 791 320 c 0
 791 222.666666667 771.166666667 145 731.5 87 c 128
 691.833333333 29 632.333333333 0 553 0 c 0
 488.333333333 0 432.5 16.5 385.5 49.5 c 128
 338.5 82.5 302.5 130.833333333 277.5 194.5 c 128
 252.5 258.166666667 240 335.333333333 240 426 c 0
 240 502 250 570.5 270 631.5 c 128
 290 692.5 319.5 744.833333333 358.5 788.5 c 128
 397.5 832.166666667 444.333333333 865.333333333 499 888 c 128
 553.666666667 910.666666667 613.333333333 922 678 922 c 2
 1028 922 l 1
 1000.66666667 984.666666667 987 1050 987 1118 c 0
 987 1194 1002 1258.33333333 1032 1311 c 128
 1062 1363.66666667 1107.83333333 1403.83333333 1169.5 1431.5 c 128
 1231.16666667 1459.16666667 1307 1473 1397 1473 c 0
 1509.66666667 1473 1594.5 1451.5 1651.5 1408.5 c 128
 1708.5 1365.5 1744.16666667 1314.16666667 1758.5 1254.5 c 128
 1772.83333333 1194.83333333 1780 1127 1780 1051 c 2
 1780 0 l 1
617 316 m 0
 617 360.666666667 602.5 401.5 573.5 438.5 c 128
 544.5 475.5 511 494 473 494 c 0
 437.666666667 494 407.666666667 483.833333333 383 463.5 c 128
 358.333333333 443.166666667 342 418.333333333 334 389 c 1
 334 319.666666667 347.5 261.5 374.5 214.5 c 128
 401.5 167.5 440.666666667 144 492 144 c 0
 531.333333333 144 562 161 584 195 c 128
 606 229 617 269.333333333 617 316 c 0
EndSplineSet
EndChar

StartChar: u0B9E_u0BC0
Encoding: 83 -1 83
Width: 1794
Flags: HW
AnchorPoint: "V" 942 1403.3 basechar 0
AnchorPoint: "N" 942 -399.974 basechar 0
LayerCount: 2
Fore
SplineSet
1616 1235 m 0
 1616 1171 1593.66666667 1117.16666667 1549 1073.5 c 128
 1504.33333333 1029.83333333 1446 1008 1374 1008 c 0
 1328 1008 1288.5 1017.33333333 1255.5 1036 c 128
 1222.5 1054.66666667 1197.16666667 1079.83333333 1179.5 1111.5 c 128
 1161.83333333 1143.16666667 1153 1177 1153 1213 c 0
 1153 1243.66666667 1159 1274 1171 1304 c 0
 1181.66666667 1333.33333333 1197.66666667 1357.66666667 1219 1377 c 1
 1178 1379 l 2
 1134 1379 1095.33333333 1366.66666667 1062 1342 c 128
 1028.66666667 1317.33333333 1002.83333333 1284.5 984.5 1243.5 c 128
 966.166666667 1202.5 957 1161.66666667 957 1121 c 0
 957 1045.66666667 985.666666667 979.333333333 1043 922 c 1
 1342 922 l 1
 1342 828 l 1
 1141 828 l 1
 1141 512 l 1
 1177 546 1223.33333333 563 1280 563 c 0
 1348 563 1405 546 1451 512 c 128
 1497 478 1531.5 434.5 1554.5 381.5 c 128
 1577.5 328.5 1589 274.333333333 1589 219 c 0
 1589 173.666666667 1585.66666667 132 1579 94 c 128
 1572.33333333 56 1561 17.3333333333 1545 -22 c 0
 1515 -95.3333333333 1468.16666667 -160.5 1404.5 -217.5 c 128
 1340.83333333 -274.5 1257.16666667 -319.166666667 1153.5 -351.5 c 128
 1049.83333333 -383.833333333 929 -400 791 -400 c 0
 667.666666667 -400 557 -384 459 -352 c 128
 361 -320 278 -273.333333333 210 -212 c 128
 142 -150.666666667 90 -75.6666666667 54 13 c 128
 18 101.666666667 0 201.333333333 0 312 c 0
 0 396 8.83333333333 478.166666667 26.5 558.5 c 128
 44.1666666667 638.833333333 69 709.833333333 101 771.5 c 128
 133 833.166666667 171.666666667 884.666666667 217 926 c 1
 279 873 l 1
 237 831 202.166666667 780 174.5 720 c 128
 146.833333333 660 126.333333333 595 113 525 c 0
 107 490.333333333 102.333333333 454.833333333 99 418.5 c 128
 95.6666666667 382.166666667 94 344.333333333 94 305 c 0
 94 185 122.833333333 78.3333333333 180.5 -15 c 128
 238.166666667 -108.333333333 318.166666667 -180 420.5 -230 c 128
 522.833333333 -280 640.666666667 -305 774 -305 c 0
 922 -305 1044.16666667 -280.666666667 1140.5 -232 c 128
 1236.83333333 -183.333333333 1307 -119.333333333 1351 -40 c 128
 1395 39.3333333333 1417 124.333333333 1417 215 c 0
 1417 271.666666667 1404.33333333 323.833333333 1379 371.5 c 128
 1353.66666667 419.166666667 1310.66666667 443 1250 443 c 0
 1196 443 1159.66666667 425.666666667 1141 391 c 1
 1141 0 l 1
 967 0 l 1
 967 828 l 1
 697 828 l 2
 591.666666667 828 508.833333333 800.5 448.5 745.5 c 128
 388.166666667 690.5 352 627 340 555 c 1
 384 595 442.666666667 615 516 615 c 0
 568.666666667 615 616.166666667 602.333333333 658.5 577 c 128
 700.833333333 551.666666667 733.5 516.666666667 756.5 472 c 128
 779.5 427.333333333 791 376.666666667 791 320 c 0
 791 222.666666667 771.166666667 145 731.5 87 c 128
 691.833333333 29 632.333333333 0 553 0 c 0
 488.333333333 0 432.5 16.5 385.5 49.5 c 128
 338.5 82.5 302.5 130.833333333 277.5 194.5 c 128
 252.5 258.166666667 240 335.333333333 240 426 c 0
 240 502 250 570.5 270 631.5 c 128
 290 692.5 319.5 744.833333333 358.5 788.5 c 128
 397.5 832.166666667 444.333333333 865.333333333 499 888 c 128
 553.666666667 910.666666667 613.333333333 922 678 922 c 2
 951 922 l 1
 886.333333333 990 854 1063.66666667 854 1143 c 0
 854 1273.66666667 892.666666667 1369.16666667 970 1429.5 c 128
 1047.33333333 1489.83333333 1134.33333333 1520 1231 1520 c 0
 1293.66666667 1520 1354.16666667 1511.5 1412.5 1494.5 c 128
 1470.83333333 1477.5 1519.33333333 1447.83333333 1558 1405.5 c 128
 1596.66666667 1363.16666667 1616 1306.33333333 1616 1235 c 0
1475 1213 m 0
 1475 1248.33333333 1462.83333333 1278.66666667 1438.5 1304 c 128
 1414.16666667 1329.33333333 1384 1342 1348 1342 c 1
 1316 1336 1290.5 1320.66666667 1271.5 1296 c 128
 1252.5 1271.33333333 1243 1243 1243 1211 c 0
 1243 1181 1253.66666667 1154 1275 1130 c 128
 1296.33333333 1106 1322.66666667 1094 1354 1094 c 0
 1388 1094 1416.66666667 1105.5 1440 1128.5 c 128
 1463.33333333 1151.5 1475 1179.66666667 1475 1213 c 0
617 316 m 0
 617 360.666666667 602.5 401.5 573.5 438.5 c 128
 544.5 475.5 511 494 473 494 c 0
 437.666666667 494 407.666666667 483.833333333 383 463.5 c 128
 358.333333333 443.166666667 342 418.333333333 334 389 c 1
 334 319.666666667 347.5 261.5 374.5 214.5 c 128
 401.5 167.5 440.666666667 144 492 144 c 0
 531.333333333 144 562 161 584 195 c 128
 606 229 617 269.333333333 617 316 c 0
EndSplineSet
EndChar

StartChar: u0B9E_u0BC1
Encoding: 84 -1 84
Width: 2173
Flags: HW
AnchorPoint: "V" 942 939 basechar 0
AnchorPoint: "N" 942 -399.974 basechar 0
LayerCount: 2
Fore
SplineSet
1968 -150 m 1
 1493 -150 l 1
 1452.33333333 -218 1398.66666667 -278.333333333 1332 -331 c 0
 1298 -357.666666667 1262.16666667 -380.833333333 1224.5 -400.5 c 128
 1186.83333333 -420.166666667 1144 -437.666666667 1096 -453 c 0
 1004.66666667 -483 903 -498 791 -498 c 0
 633.666666667 -498 500 -478.666666667 390 -440 c 128
 280 -401.333333333 195 -355.666666667 135 -303 c 0
 90.3333333333 -263.666666667 59 -232.666666667 41 -210 c 0
 15 -177.333333333 2 -147 2 -119 c 0
 2 -77 27.3333333333 -56 78 -56 c 2
 1352 -56 l 1
 1395.33333333 36 1417 126.333333333 1417 215 c 0
 1417 271.666666667 1404.33333333 323.833333333 1379 371.5 c 128
 1353.66666667 419.166666667 1310.66666667 443 1250 443 c 0
 1196 443 1159.66666667 425.666666667 1141 391 c 1
 1141 0 l 1
 967 0 l 1
 967 828 l 1
 697 828 l 2
 591.666666667 828 508.833333333 800.5 448.5 745.5 c 128
 388.166666667 690.5 352 627 340 555 c 1
 384 595 442.666666667 615 516 615 c 0
 568.666666667 615 616.166666667 602.333333333 658.5 577 c 128
 700.833333333 551.666666667 733.5 516.666666667 756.5 472 c 128
 779.5 427.333333333 791 376.666666667 791 320 c 0
 791 222.666666667 771.166666667 145 731.5 87 c 128
 691.833333333 29 632.333333333 0 553 0 c 0
 488.333333333 0 432.5 16.5 385.5 49.5 c 128
 338.5 82.5 302.5 130.833333333 277.5 194.5 c 128
 252.5 258.166666667 240 335.333333333 240 426 c 0
 240 502 250 570.5 270 631.5 c 128
 290 692.5 319.5 744.833333333 358.5 788.5 c 128
 397.5 832.166666667 444.333333333 865.333333333 499 888 c 128
 553.666666667 910.666666667 613.333333333 922 678 922 c 2
 1342 922 l 1
 1342 828 l 1
 1141 828 l 1
 1141 512 l 1
 1177 546 1223.33333333 563 1280 563 c 0
 1348 563 1405 546 1451 512 c 128
 1497 478 1531.5 434.5 1554.5 381.5 c 128
 1577.5 328.5 1589 274.333333333 1589 219 c 0
 1589 121 1572 29.3333333333 1538 -56 c 1
 1796 -56 l 1
 1796 922 l 1
 1968 922 l 1
 1968 -150 l 1
617 316 m 0
 617 360.666666667 602.5 401.5 573.5 438.5 c 128
 544.5 475.5 511 494 473 494 c 0
 437.666666667 494 407.666666667 483.833333333 383 463.5 c 128
 358.333333333 443.166666667 342 418.333333333 334 389 c 1
 334 319.666666667 347.5 261.5 374.5 214.5 c 128
 401.5 167.5 440.666666667 144 492 144 c 0
 531.333333333 144 562 161 584 195 c 128
 606 229 617 269.333333333 617 316 c 0
1299 -150 m 1
 150 -150 l 2
 130.666666667 -150 121 -154.666666667 121 -164 c 0
 121 -168 131.666666667 -181 153 -203 c 0
 178.333333333 -229 205.333333333 -251.666666667 234 -271 c 0
 286.666666667 -307 359.5 -338.5 452.5 -365.5 c 128
 545.5 -392.5 652.666666667 -406 774 -406 c 0
 892 -406 994.666666667 -382.833333333 1082 -336.5 c 128
 1169.33333333 -290.166666667 1241.66666667 -228 1299 -150 c 1
EndSplineSet
EndChar

StartChar: u0B9E_u0BC2
Encoding: 85 -1 85
Width: 2673
Flags: HW
AnchorPoint: "V" 942 939 basechar 0
AnchorPoint: "N" 942 -399.974 basechar 0
LayerCount: 2
Fore
SplineSet
2468 828 m 1
 2267 828 l 1
 2267 -150 l 1
 2095 -150 l 1
 2095 828 l 1
 1889 828 l 1
 1889 -150 l 1
 1491 -150 l 1
 1450.33333333 -218 1397.5 -278.166666667 1332.5 -330.5 c 128
 1267.5 -382.833333333 1188.83333333 -423.833333333 1096.5 -453.5 c 128
 1004.16666667 -483.166666667 902.333333333 -498 791 -498 c 0
 633.666666667 -498 500 -478.666666667 390 -440 c 128
 280 -401.333333333 195.5 -356.166666667 136.5 -304.5 c 128
 77.5 -252.833333333 36.3333333333 -203.333333333 13 -156 c 0
 5.66666666667 -144.666666667 2 -132.333333333 2 -119 c 0
 2 -77 27.3333333333 -56 78 -56 c 2
 1352 -56 l 1
 1395.33333333 36 1417 126.333333333 1417 215 c 0
 1417 271.666666667 1404.33333333 323.833333333 1379 371.5 c 128
 1353.66666667 419.166666667 1310.66666667 443 1250 443 c 0
 1196 443 1159.66666667 425.666666667 1141 391 c 1
 1141 0 l 1
 967 0 l 1
 967 828 l 1
 697 828 l 2
 591.666666667 828 508.833333333 800.5 448.5 745.5 c 128
 388.166666667 690.5 352 627 340 555 c 1
 384 595 442.666666667 615 516 615 c 0
 568.666666667 615 616.166666667 602.333333333 658.5 577 c 128
 700.833333333 551.666666667 733.5 516.666666667 756.5 472 c 128
 779.5 427.333333333 791 376.666666667 791 320 c 0
 791 222.666666667 771.166666667 145 731.5 87 c 128
 691.833333333 29 632.333333333 0 553 0 c 0
 488.333333333 0 432.5 16.5 385.5 49.5 c 128
 338.5 82.5 302.5 130.833333333 277.5 194.5 c 128
 252.5 258.166666667 240 335.333333333 240 426 c 0
 240 502 250 570.5 270 631.5 c 128
 290 692.5 319.5 744.833333333 358.5 788.5 c 128
 397.5 832.166666667 444.333333333 865.333333333 499 888 c 128
 553.666666667 910.666666667 613.333333333 922 678 922 c 2
 1342 922 l 1
 1342 828 l 1
 1141 828 l 1
 1141 512 l 1
 1177 546 1223.33333333 563 1280 563 c 0
 1348 563 1405 546 1451 512 c 128
 1497 478 1531.5 434.5 1554.5 381.5 c 128
 1577.5 328.5 1589 274.333333333 1589 219 c 0
 1589 115.666666667 1572 24 1538 -56 c 1
 1796 -56 l 1
 1796 922 l 1
 2468 922 l 1
 2468 828 l 1
617 316 m 0
 617 360.666666667 602.5 401.5 573.5 438.5 c 128
 544.5 475.5 511 494 473 494 c 0
 437.666666667 494 407.666666667 483.833333333 383 463.5 c 128
 358.333333333 443.166666667 342 418.333333333 334 389 c 1
 334 319.666666667 347.5 261.5 374.5 214.5 c 128
 401.5 167.5 440.666666667 144 492 144 c 0
 531.333333333 144 562 161 584 195 c 128
 606 229 617 269.333333333 617 316 c 0
1299 -150 m 1
 140 -150 l 2
 123.333333333 -150 115 -158 115 -174 c 1
 133.666666667 -202.666666667 170.5 -235 225.5 -271 c 128
 280.5 -307 355.5 -338.5 450.5 -365.5 c 128
 545.5 -392.5 653.333333333 -406 774 -406 c 0
 998 -406 1173 -320.666666667 1299 -150 c 1
EndSplineSet
EndChar

StartChar: u0B9E_u0BCD
Encoding: 86 -1 86
Width: 1794
Flags: HW
AnchorPoint: "N" 942 -399.974 basechar 0
LayerCount: 2
Fore
SplineSet
1071 1204 m 0
 1071 1169.33333333 1058.16666667 1139.16666667 1032.5 1113.5 c 128
 1006.83333333 1087.83333333 976.666666667 1075 942 1075 c 0
 908 1075 878 1087.83333333 852 1113.5 c 128
 826 1139.16666667 813 1169.33333333 813 1204 c 0
 813 1238 825.666666667 1268.33333333 851 1295 c 0
 877.666666667 1320.33333333 908 1333 942 1333 c 0
 977.333333333 1333 1007.66666667 1320.33333333 1033 1295 c 128
 1058.33333333 1269.66666667 1071 1239.33333333 1071 1204 c 0
1589 219 m 0
 1589 173.666666667 1585.66666667 132 1579 94 c 128
 1572.33333333 56 1561 17.3333333333 1545 -22 c 0
 1515 -95.3333333333 1468.16666667 -160.5 1404.5 -217.5 c 128
 1340.83333333 -274.5 1257.16666667 -319.166666667 1153.5 -351.5 c 128
 1049.83333333 -383.833333333 929 -400 791 -400 c 0
 667.666666667 -400 557 -384 459 -352 c 128
 361 -320 278 -273.333333333 210 -212 c 128
 142 -150.666666667 90 -75.6666666667 54 13 c 128
 18 101.666666667 0 201.333333333 0 312 c 0
 0 396 8.83333333333 478.166666667 26.5 558.5 c 128
 44.1666666667 638.833333333 69 709.833333333 101 771.5 c 128
 133 833.166666667 171.666666667 884.666666667 217 926 c 1
 279 873 l 1
 237 831 202.166666667 780 174.5 720 c 128
 146.833333333 660 126.333333333 595 113 525 c 0
 107 490.333333333 102.333333333 454.833333333 99 418.5 c 128
 95.6666666667 382.166666667 94 344.333333333 94 305 c 0
 94 185 122.833333333 78.3333333333 180.5 -15 c 128
 238.166666667 -108.333333333 318.166666667 -180 420.5 -230 c 128
 522.833333333 -280 640.666666667 -305 774 -305 c 0
 922 -305 1044.16666667 -280.666666667 1140.5 -232 c 128
 1236.83333333 -183.333333333 1307 -119.333333333 1351 -40 c 128
 1395 39.3333333333 1417 124.333333333 1417 215 c 0
 1417 271.666666667 1404.33333333 323.833333333 1379 371.5 c 128
 1353.66666667 419.166666667 1310.66666667 443 1250 443 c 0
 1196 443 1159.66666667 425.666666667 1141 391 c 1
 1141 0 l 1
 967 0 l 1
 967 828 l 1
 697 828 l 2
 591.666666667 828 508.833333333 800.5 448.5 745.5 c 128
 388.166666667 690.5 352 627 340 555 c 1
 384 595 442.666666667 615 516 615 c 0
 568.666666667 615 616.166666667 602.333333333 658.5 577 c 128
 700.833333333 551.666666667 733.5 516.666666667 756.5 472 c 128
 779.5 427.333333333 791 376.666666667 791 320 c 0
 791 222.666666667 771.166666667 145 731.5 87 c 128
 691.833333333 29 632.333333333 0 553 0 c 0
 488.333333333 0 432.5 16.5 385.5 49.5 c 128
 338.5 82.5 302.5 130.833333333 277.5 194.5 c 128
 252.5 258.166666667 240 335.333333333 240 426 c 0
 240 502 250 570.5 270 631.5 c 128
 290 692.5 319.5 744.833333333 358.5 788.5 c 128
 397.5 832.166666667 444.333333333 865.333333333 499 888 c 128
 553.666666667 910.666666667 613.333333333 922 678 922 c 2
 1342 922 l 1
 1342 828 l 1
 1141 828 l 1
 1141 512 l 1
 1177 546 1223.33333333 563 1280 563 c 0
 1348 563 1405 546 1451 512 c 128
 1497 478 1531.5 434.5 1554.5 381.5 c 128
 1577.5 328.5 1589 274.333333333 1589 219 c 0
617 316 m 0
 617 360.666666667 602.5 401.5 573.5 438.5 c 128
 544.5 475.5 511 494 473 494 c 0
 437.666666667 494 407.666666667 483.833333333 383 463.5 c 128
 358.333333333 443.166666667 342 418.333333333 334 389 c 1
 334 319.666666667 347.5 261.5 374.5 214.5 c 128
 401.5 167.5 440.666666667 144 492 144 c 0
 531.333333333 144 562 161 584 195 c 128
 606 229 617 269.333333333 617 316 c 0
EndSplineSet
EndChar

StartChar: u0B9F
Encoding: 87 2975 87
Width: 1467
Flags: HW
AnchorPoint: "V" 563 939 basechar 0
AnchorPoint: "N" 563 0 basechar 0
LayerCount: 2
Fore
SplineSet
1262 0 m 1
 0 0 l 1
 0 922 l 1
 164 922 l 1
 164 94 l 1
 1262 94 l 1
 1262 0 l 1
EndSplineSet
EndChar

StartChar: u0B9F_u0BBF
Encoding: 88 -1 88
Width: 1307
Flags: HW
AnchorPoint: "V" 563 939 basechar 0
AnchorPoint: "N" 563 0 basechar 0
LayerCount: 2
Fore
SplineSet
1102 0 m 1
 901 0 l 1
 901 -428 l 1
 738 -428 l 1
 738 0 l 1
 0 0 l 1
 0 922 l 1
 164 922 l 1
 164 84 l 1
 588 84 l 1
 516.666666667 146 460.666666667 225.333333333 420 322 c 1
 383.333333333 399.333333333 365 482.666666667 365 572 c 0
 365 678.666666667 393.5 763.666666667 450.5 827 c 128
 507.5 890.333333333 584 922 680 922 c 0
 751.333333333 922 806 899.333333333 844 854 c 128
 882 808.666666667 901 753.333333333 901 688 c 2
 901 84 l 1
 1102 84 l 1
 1102 0 l 1
738 90 m 1
 738 699 l 2
 738 726.333333333 729.5 747.5 712.5 762.5 c 128
 695.5 777.5 676.666666667 785 656 785 c 0
 629.333333333 785 605.666666667 779.833333333 585 769.5 c 128
 564.333333333 759.166666667 545.666666667 742.333333333 529 719 c 0
 507.666666667 689.666666667 493 661.166666667 485 633.5 c 128
 477 605.833333333 473 570.333333333 473 527 c 0
 473 455.666666667 488 390 518 330 c 0
 578 218 651.333333333 138 738 90 c 1
EndSplineSet
EndChar

StartChar: u0B9F_u0BC0
Encoding: 89 -1 89
Width: 1227
Flags: HW
AnchorPoint: "V" 563 939 basechar 0
AnchorPoint: "N" 563 0 basechar 0
LayerCount: 2
Fore
SplineSet
1026 410 m 0
 1026 345.333333333 1003.83333333 291.333333333 959.5 248 c 128
 915.166666667 204.666666667 857 183 785 183 c 0
 715.666666667 183 661.333333333 203 622 243 c 128
 582.666666667 283 563 331 563 387 c 0
 563 456.333333333 585 511 629 551 c 1
 586 553 l 1
 520 553 466.666666667 526.5 426 473.5 c 128
 385.333333333 420.5 365 360.333333333 365 293 c 0
 365 251.666666667 375.166666667 212 395.5 174 c 128
 415.833333333 136 440.333333333 106 469 84 c 1
 1022 84 l 1
 1022 0 l 1
 0 0 l 1
 0 922 l 1
 164 922 l 1
 164 84 l 1
 373 84 l 1
 343.666666667 110 318.166666667 144.333333333 296.5 187 c 128
 274.833333333 229.666666667 264 273.333333333 264 318 c 0
 264 406 282.833333333 478.333333333 320.5 535 c 128
 358.166666667 591.666666667 406.333333333 632.5 465 657.5 c 128
 523.666666667 682.5 582.333333333 695 641 695 c 0
 704.333333333 695 765 686.5 823 669.5 c 128
 881 652.5 929.333333333 622.666666667 968 580 c 128
 1006.66666667 537.333333333 1026 480.666666667 1026 410 c 0
883 387 m 0
 883 423 871.333333333 453.166666667 848 477.5 c 128
 824.666666667 501.833333333 794.666666667 514 758 514 c 1
 726.666666667 508.666666667 701.5 494.166666667 682.5 470.5 c 128
 663.5 446.833333333 654 418.333333333 654 385 c 0
 654 353.666666667 664.5 326.5 685.5 303.5 c 128
 706.5 280.5 732.666666667 269 764 269 c 0
 796.666666667 269 824.666666667 280.5 848 303.5 c 128
 871.333333333 326.5 883 354.333333333 883 387 c 0
EndSplineSet
EndChar

StartChar: u0B9F_u0BC1
Encoding: 90 -1 90
Width: 1520
Flags: HW
AnchorPoint: "V" 563 1332.73 basechar 0
AnchorPoint: "N" 563 0 basechar 0
LayerCount: 2
Fore
SplineSet
1264 2 m 1
 1178 2 l 1
 1209.33333333 121.333333333 1225 259.333333333 1225 416 c 0
 1225 596 1204.66666667 738 1164 842 c 0
 1118.66666667 953.333333333 1053.5 1033.33333333 968.5 1082 c 128
 883.5 1130.66666667 775 1155 643 1155 c 0
 527.666666667 1155 428.666666667 1125.66666667 346 1067 c 128
 263.333333333 1008.33333333 200.666666667 925.5 158 818.5 c 128
 115.333333333 711.5 94 590.333333333 94 455 c 0
 94 319 108.833333333 197.666666667 138.5 91 c 128
 168.166666667 -15.6666666667 216.833333333 -100.5 284.5 -163.5 c 128
 352.166666667 -226.5 440.333333333 -258 549 -258 c 0
 627.666666667 -258 694.833333333 -235 750.5 -189 c 128
 806.166666667 -143 847.333333333 -83 874 -9 c 128
 900.666666667 65 914 140.333333333 914 217 c 0
 914 247 908.5 279.666666667 897.5 315 c 128
 886.5 350.333333333 867.5 380.833333333 840.5 406.5 c 128
 813.5 432.166666667 779.333333333 445 738 445 c 0
 678 445 639 427 621 391 c 1
 621 0 l 1
 447 0 l 1
 447 922 l 1
 621 922 l 1
 621 514 l 1
 657.666666667 546.666666667 707.333333333 563 770 563 c 0
 837.333333333 563 895 546 943 512 c 128
 991 478 1027 434.333333333 1051 381 c 0
 1062.33333333 355.666666667 1071.33333333 329.166666667 1078 301.5 c 128
 1084.66666667 273.833333333 1088 247 1088 221 c 0
 1088 98.3333333333 1067.5 -6 1026.5 -92 c 128
 985.5 -178 925.833333333 -243 847.5 -287 c 128
 769.166666667 -331 675 -353 565 -353 c 0
 464.333333333 -353 378 -332.666666667 306 -292 c 128
 234 -251.333333333 175.333333333 -193.833333333 130 -119.5 c 128
 84.6666666667 -45.1666666667 51.6666666667 41.6666666667 31 141 c 0
 21 191 13.3333333333 243.666666667 8 299 c 128
 2.66666666667 354.333333333 0 412.333333333 0 473 c 0
 0 596.333333333 13 710.5 39 815.5 c 128
 65 920.5 104.333333333 1011.83333333 157 1089.5 c 128
 209.666666667 1167.16666667 277.833333333 1228 361.5 1272 c 128
 445.166666667 1316 542 1338 652 1338 c 0
 753.333333333 1338 844.666666667 1322.33333333 926 1291 c 128
 1007.33333333 1259.66666667 1076 1215 1132 1157 c 128
 1188 1099 1230 1031 1258 953 c 0
 1296 849 1315 700 1315 506 c 0
 1315 457.333333333 1314 411.666666667 1312 369 c 128
 1310 326.333333333 1306.33333333 281.666666667 1301 235 c 0
 1291.66666667 143 1279.33333333 65.3333333333 1264 2 c 1
EndSplineSet
EndChar

StartChar: u0B9F_u0BC2
Encoding: 91 -1 91
Width: 1561
Flags: HW
AnchorPoint: "V" 563 1327.34 basechar 0
AnchorPoint: "N" 563 0 basechar 0
LayerCount: 2
Fore
SplineSet
1356 766 m 0
 1356 697.333333333 1336.16666667 639.166666667 1296.5 591.5 c 128
 1256.83333333 543.833333333 1199 520 1123 520 c 0
 1042.33333333 520 979.833333333 540.666666667 935.5 582 c 128
 891.166666667 623.333333333 869 676.666666667 869 742 c 0
 869 802 889.5 853.833333333 930.5 897.5 c 128
 971.5 941.166666667 1036.33333333 963 1125 963 c 1
 1099.66666667 1005.66666667 1063.33333333 1044.66666667 1016 1080 c 128
 968.666666667 1115.33333333 913.333333333 1142.83333333 850 1162.5 c 128
 786.666666667 1182.16666667 721.333333333 1192 654 1192 c 0
 532.666666667 1192 430 1160 346 1096 c 128
 262 1032 199 944 157 832 c 128
 115 720 94 593.666666667 94 453 c 0
 94 317 108.833333333 195.666666667 138.5 89 c 128
 168.166666667 -17.6666666667 216.833333333 -102.5 284.5 -165.5 c 128
 352.166666667 -228.5 440.333333333 -260 549 -260 c 0
 627.666666667 -260 694.833333333 -237.166666667 750.5 -191.5 c 128
 806.166666667 -145.833333333 847.666666667 -86 875 -12 c 128
 902.333333333 62 916 137.666666667 916 215 c 0
 916 267 901.666666667 318 873 368 c 128
 844.333333333 418 799.333333333 443 738 443 c 0
 680 443 641 425 621 389 c 1
 621 0 l 1
 449 0 l 1
 449 922 l 1
 621 922 l 1
 621 512 l 1
 629 519.333333333 638.333333333 525.833333333 649 531.5 c 128
 659.666666667 537.166666667 672.666666667 542.666666667 688 548 c 0
 714.666666667 556.666666667 742 561 770 561 c 0
 838 561 896 544 944 510 c 128
 992 476 1028 432.666666667 1052 380 c 128
 1076 327.333333333 1088 273.666666667 1088 219 c 0
 1088 96.3333333333 1067.5 -8 1026.5 -94 c 128
 985.5 -180 925.833333333 -245 847.5 -289 c 128
 769.166666667 -333 675 -355 565 -355 c 0
 464.333333333 -355 378 -334.666666667 306 -294 c 128
 234 -253.333333333 175.333333333 -195.833333333 130 -121.5 c 128
 84.6666666667 -47.1666666667 51.6666666667 39.6666666667 31 139 c 0
 21 189 13.3333333333 241.666666667 8 297 c 128
 2.66666666667 352.333333333 0 410.333333333 0 471 c 0
 0 603.666666667 14.3333333333 722.333333333 43 827 c 0
 57 879 74.6666666667 927.666666667 96 973 c 128
 117.333333333 1018.33333333 142.333333333 1060.33333333 171 1099 c 0
 227.666666667 1175 299.166666667 1233.5 385.5 1274.5 c 128
 471.833333333 1315.5 570.666666667 1336 682 1336 c 0
 783.333333333 1336 876.166666667 1320.66666667 960.5 1290 c 128
 1044.83333333 1259.33333333 1116.5 1216.83333333 1175.5 1162.5 c 128
 1234.5 1108.16666667 1279.33333333 1047.16666667 1310 979.5 c 128
 1340.66666667 911.833333333 1356 840.666666667 1356 766 c 0
1182 692 m 0
 1190 712 1194 732 1194 752 c 0
 1194 790 1179.66666667 823.333333333 1151 852 c 1
 1144.33333333 854.666666667 1134.83333333 857 1122.5 859 c 128
 1110.16666667 861 1099.33333333 862 1090 862 c 0
 1057.33333333 862 1029.66666667 853.666666667 1007 837 c 0
 979 815.666666667 965 784 965 742 c 0
 965 689.333333333 984.666666667 655.666666667 1024 641 c 0
 1042 634.333333333 1057.66666667 631 1071 631 c 0
 1095 631 1117.5 636.5 1138.5 647.5 c 128
 1159.5 658.5 1174 673.333333333 1182 692 c 0
EndSplineSet
EndChar

StartChar: u0B9F_u0BCD
Encoding: 92 -1 92
Width: 1467
Flags: HW
AnchorPoint: "N" 563 0 basechar 0
LayerCount: 2
Fore
SplineSet
692 1204 m 0
 692 1170 679.166666667 1140 653.5 1114 c 128
 627.833333333 1088 597.666666667 1075 563 1075 c 256
 528.333333333 1075 498.166666667 1087.83333333 472.5 1113.5 c 128
 446.833333333 1139.16666667 434 1169.33333333 434 1204 c 0
 434 1239.33333333 446.666666667 1269.66666667 472 1295 c 128
 497.333333333 1320.33333333 527.666666667 1333 563 1333 c 256
 598.333333333 1333 628.666666667 1320.33333333 654 1295 c 128
 679.333333333 1269.66666667 692 1239.33333333 692 1204 c 0
1262 0 m 1
 0 0 l 1
 0 922 l 1
 164 922 l 1
 164 94 l 1
 1262 94 l 1
 1262 0 l 1
EndSplineSet
EndChar

StartChar: u0BA3
Encoding: 93 2979 93
Width: 2624
Flags: HW
AnchorPoint: "V" 1290.5 939 basechar 0
AnchorPoint: "N" 1290.5 57.9473 basechar 0
LayerCount: 2
Fore
SplineSet
2419 828 m 1
 2218 828 l 1
 2218 0 l 1
 2044 0 l 1
 2044 828 l 1
 1893 828 l 2
 1819 828 1751.33333333 815.666666667 1690 791 c 1
 1731.33333333 759.666666667 1766.16666667 723.333333333 1794.5 682 c 128
 1822.83333333 640.666666667 1843.5 597.5 1856.5 552.5 c 128
 1869.5 507.5 1876 462 1876 416 c 0
 1876 272 1854.66666667 166.666666667 1812 100 c 128
 1769.33333333 33.3333333333 1699.33333333 0 1602 0 c 0
 1418.66666667 0 1327 131 1327 393 c 0
 1327 549.666666667 1379 678 1483 778 c 1
 1412.33333333 811.333333333 1329.66666667 828 1235 828 c 0
 1160.33333333 828 1093.33333333 815.666666667 1034 791 c 1
 1094 745.666666667 1139.5 689.666666667 1170.5 623 c 128
 1201.5 556.333333333 1217 487.333333333 1217 416 c 0
 1217 272.666666667 1195.66666667 167.5 1153 100.5 c 128
 1110.33333333 33.5 1040.66666667 0 944 0 c 0
 760 0 668 131 668 393 c 0
 668 547.666666667 720 676 824 778 c 1
 753.333333333 811.333333333 670.666666667 828 576 828 c 0
 500 828 429 814.5 363 787.5 c 128
 297 760.5 241.833333333 726.666666667 197.5 686 c 128
 153.166666667 645.333333333 123 603.666666667 107 561 c 1
 154.333333333 597 211 615 277 615 c 0
 329.666666667 615 377 602.333333333 419 577 c 128
 461 551.666666667 493.5 516.833333333 516.5 472.5 c 128
 539.5 428.166666667 551 377.333333333 551 320 c 0
 551 221.333333333 530 143.333333333 488 86 c 128
 446 28.6666666667 381 0 293 0 c 0
 239.666666667 0 190.333333333 17 145 51 c 0
 123 67.6666666667 103.166666667 88.5 85.5 113.5 c 128
 67.8333333333 138.5 52.3333333333 167.333333333 39 200 c 0
 13 264 0 339.333333333 0 426 c 0
 0 501.333333333 15 570.5 45 633.5 c 128
 75 696.5 116.5 749.166666667 169.5 791.5 c 128
 222.5 833.833333333 282.5 866.166666667 349.5 888.5 c 128
 416.5 910.833333333 487 922 561 922 c 0
 703.666666667 922 826 899.333333333 928 854 c 1
 1013.33333333 899.333333333 1110.33333333 922 1219 922 c 0
 1365 922 1487 898.666666667 1585 852 c 1
 1668.33333333 898.666666667 1766 922 1878 922 c 2
 2419 922 l 1
 2419 828 l 1
1704 416 m 0
 1704 470.666666667 1693 524.833333333 1671 578.5 c 128
 1649 632.166666667 1615.66666667 678.333333333 1571 717 c 1
 1522.33333333 677.666666667 1485.33333333 629.833333333 1460 573.5 c 128
 1434.66666667 517.166666667 1422 457 1422 393 c 0
 1422 302.333333333 1434.5 229.833333333 1459.5 175.5 c 128
 1484.5 121.166666667 1519 94 1563 94 c 0
 1617 94 1654 120 1674 172 c 128
 1694 224 1704 305.333333333 1704 416 c 0
1045 416 m 0
 1045 471.333333333 1034 526 1012 580 c 128
 990 634 956.666666667 679.666666667 912 717 c 1
 863.333333333 677.666666667 826.166666667 630 800.5 574 c 128
 774.833333333 518 762 457.666666667 762 393 c 0
 762 304.333333333 774.666666667 232.333333333 800 177 c 128
 825.333333333 121.666666667 859.666666667 94 903 94 c 0
 957.666666667 94 995 119.833333333 1015 171.5 c 128
 1035 223.166666667 1045 304.666666667 1045 416 c 0
377 316 m 0
 377 360.666666667 362.833333333 401.5 334.5 438.5 c 128
 306.166666667 475.5 272.666666667 494 234 494 c 0
 198.666666667 494 169 484 145 464 c 0
 121 445.333333333 104 420.333333333 94 389 c 1
 94 319.666666667 107.5 261.5 134.5 214.5 c 128
 161.5 167.5 200.666666667 144 252 144 c 0
 293.333333333 144 324.5 160.666666667 345.5 194 c 128
 366.5 227.333333333 377 268 377 316 c 0
EndSplineSet
EndChar

StartChar: u0BA3_u0BBE.old
Encoding: 95 -1 95
Width: 2833
Flags: HW
AnchorPoint: "V" 1290.5 939 basechar 0
AnchorPoint: "N" 1290.5 57.9473 basechar 0
LayerCount: 2
Fore
SplineSet
2628 389 m 0
 2628 213.666666667 2578.66666667 58.8333333333 2480 -75.5 c 128
 2381.33333333 -209.833333333 2234.33333333 -313.833333333 2039 -387.5 c 128
 1843.66666667 -461.166666667 1610 -498 1338 -498 c 0
 1172 -498 1011.33333333 -484.333333333 856 -457 c 128
 700.666666667 -429.666666667 558 -384.333333333 428 -321 c 128
 298 -257.666666667 194.166666667 -171.5 116.5 -62.5 c 128
 38.8333333333 46.5 0 178 0 332 c 0
 0 415.333333333 8.66666666667 495.166666667 26 571.5 c 128
 43.3333333333 647.833333333 68.1666666667 715.833333333 100.5 775.5 c 128
 132.833333333 835.166666667 171.666666667 885.333333333 217 926 c 1
 279 873 l 1
 155.666666667 749.666666667 94 567.333333333 94 326 c 0
 94 188 132.166666667 70.5 208.5 -26.5 c 128
 284.833333333 -123.5 384 -199.5 506 -254.5 c 128
 628 -309.5 760.666666667 -348.5 904 -371.5 c 128
 1047.33333333 -394.5 1189 -406 1329 -406 c 0
 1497.66666667 -406 1651.5 -386 1790.5 -346 c 128
 1929.5 -306 2048.66666667 -249.333333333 2148 -176 c 128
 2247.33333333 -102.666666667 2323 -16 2375 84 c 0
 2401 134.666666667 2420.66666667 187 2434 241 c 128
 2447.33333333 295 2454 352 2454 412 c 0
 2454 488.666666667 2439.16666667 558.833333333 2409.5 622.5 c 128
 2379.83333333 686.166666667 2338.16666667 736.333333333 2284.5 773 c 128
 2230.83333333 809.666666667 2170.66666667 828 2104 828 c 0
 2044.66666667 828 1985.66666667 816.333333333 1927 793 c 1
 1989 745.666666667 2035.66666667 689 2067 623 c 128
 2098.33333333 557 2114 488 2114 416 c 0
 2114 272.666666667 2092.66666667 167.5 2050 100.5 c 128
 2007.33333333 33.5 1937.66666667 0 1841 0 c 0
 1658.33333333 0 1567 131 1567 393 c 0
 1567 473 1580.5 545.333333333 1607.5 610 c 128
 1634.5 674.666666667 1673 730 1723 776 c 1
 1651.66666667 810.666666667 1569 828 1475 828 c 0
 1401 828 1333.33333333 815.666666667 1272 791 c 1
 1394.66666667 700.333333333 1456 575.333333333 1456 416 c 0
 1456 272.666666667 1434.66666667 167.333333333 1392 100 c 0
 1370.66666667 66.6666666667 1343 41.6666666667 1309 25 c 128
 1275 8.33333333333 1233.33333333 0 1184 0 c 0
 1000 0 908 131 908 393 c 0
 908 551 959.666666667 679.333333333 1063 778 c 1
 993 811.333333333 910.333333333 828 815 828 c 0
 739 828 668.333333333 814.666666667 603 788 c 128
 537.666666667 761.333333333 482.666666667 727.5 438 686.5 c 128
 393.333333333 645.5 362.666666667 603.666666667 346 561 c 1
 393.333333333 597 450 615 516 615 c 0
 568.666666667 615 616.166666667 602.333333333 658.5 577 c 128
 700.833333333 551.666666667 733.5 516.666666667 756.5 472 c 128
 779.5 427.333333333 791 376.666666667 791 320 c 0
 791 256 782 200.166666667 764 152.5 c 128
 746 104.833333333 717.833333333 67.5 679.5 40.5 c 128
 641.166666667 13.5 592.333333333 0 533 0 c 0
 479 0 429.833333333 16.8333333333 385.5 50.5 c 128
 341.166666667 84.1666666667 305.833333333 133.666666667 279.5 199 c 128
 253.166666667 264.333333333 240 340 240 426 c 0
 240 503.333333333 255 572.833333333 285 634.5 c 128
 315 696.166666667 356.333333333 748.333333333 409 791 c 128
 461.666666667 833.666666667 521.5 866.166666667 588.5 888.5 c 128
 655.5 910.833333333 726.333333333 922 801 922 c 0
 943 922 1065.33333333 899.333333333 1168 854 c 1
 1253.33333333 899.333333333 1350 922 1458 922 c 0
 1600.66666667 922 1721.66666667 898.666666667 1821 852 c 1
 1906.33333333 898.666666667 1998.33333333 922 2097 922 c 0
 2205.66666667 922 2300.33333333 897.833333333 2381 849.5 c 128
 2461.66666667 801.166666667 2523 736 2565 654 c 128
 2607 572 2628 483.666666667 2628 389 c 0
1944 416 m 0
 1944 471.333333333 1932.66666667 526.166666667 1910 580.5 c 128
 1887.33333333 634.833333333 1853.66666667 681 1809 719 c 1
 1709 631 1659 522.333333333 1659 393 c 0
 1659 305 1671.83333333 233.166666667 1697.5 177.5 c 128
 1723.16666667 121.833333333 1758 94 1802 94 c 0
 1856 94 1893 120 1913 172 c 0
 1923 198 1930.66666667 231.166666667 1936 271.5 c 128
 1941.33333333 311.833333333 1944 360 1944 416 c 0
1284 416 m 0
 1284 471.333333333 1273.16666667 526 1251.5 580 c 128
 1229.83333333 634 1196.33333333 679.666666667 1151 717 c 1
 1102.33333333 677.666666667 1065.33333333 629.833333333 1040 573.5 c 128
 1014.66666667 517.166666667 1002 457 1002 393 c 0
 1002 302.333333333 1014.5 229.833333333 1039.5 175.5 c 128
 1064.5 121.166666667 1099 94 1143 94 c 0
 1197 94 1234 119.833333333 1254 171.5 c 128
 1274 223.166666667 1284 304.666666667 1284 416 c 0
617 316 m 0
 617 360.666666667 602.5 401.5 573.5 438.5 c 128
 544.5 475.5 511 494 473 494 c 0
 437.666666667 494 407.666666667 483.833333333 383 463.5 c 128
 358.333333333 443.166666667 342 418.333333333 334 389 c 1
 334 319.666666667 347.5 261.5 374.5 214.5 c 128
 401.5 167.5 440.666666667 144 492 144 c 0
 531.333333333 144 562 161 584 195 c 128
 606 229 617 269.333333333 617 316 c 0
EndSplineSet
EndChar

StartChar: u0BA3_u0BBF
Encoding: 96 -1 96
Width: 2843
Flags: HW
AnchorPoint: "V" 1290.5 939 basechar 0
AnchorPoint: "N" 1290.5 57.9473 basechar 0
LayerCount: 2
Fore
SplineSet
2638 0 m 1
 2554 0 l 1
 2554 1020 l 2
 2554 1109.33333333 2539.5 1174.66666667 2510.5 1216 c 128
 2481.5 1257.33333333 2428.33333333 1278 2351 1278 c 0
 2315 1278 2282.66666667 1269.83333333 2254 1253.5 c 128
 2225.33333333 1237.16666667 2202.33333333 1213 2185 1181 c 128
 2167.66666667 1149 2159 1111 2159 1067 c 0
 2159 1008.33333333 2172.66666667 960 2200 922 c 1
 2419 922 l 1
 2419 828 l 1
 2218 828 l 1
 2218 0 l 1
 2044 0 l 1
 2044 828 l 1
 1893 828 l 2
 1819 828 1751.33333333 815.666666667 1690 791 c 1
 1731.33333333 759.666666667 1766.16666667 723.333333333 1794.5 682 c 128
 1822.83333333 640.666666667 1843.5 597.5 1856.5 552.5 c 128
 1869.5 507.5 1876 462 1876 416 c 0
 1876 272 1854.66666667 166.666666667 1812 100 c 128
 1769.33333333 33.3333333333 1699.33333333 0 1602 0 c 0
 1418.66666667 0 1327 131 1327 393 c 0
 1327 549.666666667 1379 678 1483 778 c 1
 1412.33333333 811.333333333 1329.66666667 828 1235 828 c 0
 1160.33333333 828 1093.33333333 815.666666667 1034 791 c 1
 1094 745.666666667 1139.5 689.666666667 1170.5 623 c 128
 1201.5 556.333333333 1217 487.333333333 1217 416 c 0
 1217 272.666666667 1195.66666667 167.5 1153 100.5 c 128
 1110.33333333 33.5 1040.66666667 0 944 0 c 0
 760 0 668 131 668 393 c 0
 668 547.666666667 720 676 824 778 c 1
 753.333333333 811.333333333 670.666666667 828 576 828 c 0
 500 828 429 814.5 363 787.5 c 128
 297 760.5 241.833333333 726.666666667 197.5 686 c 128
 153.166666667 645.333333333 123 603.666666667 107 561 c 1
 154.333333333 597 211 615 277 615 c 0
 329.666666667 615 377 602.333333333 419 577 c 128
 461 551.666666667 493.5 516.833333333 516.5 472.5 c 128
 539.5 428.166666667 551 377.333333333 551 320 c 0
 551 221.333333333 530 143.333333333 488 86 c 128
 446 28.6666666667 381 0 293 0 c 0
 239.666666667 0 190.333333333 17 145 51 c 0
 123 67.6666666667 103.166666667 88.5 85.5 113.5 c 128
 67.8333333333 138.5 52.3333333333 167.333333333 39 200 c 0
 13 264 0 339.333333333 0 426 c 0
 0 501.333333333 15 570.5 45 633.5 c 128
 75 696.5 116.5 749.166666667 169.5 791.5 c 128
 222.5 833.833333333 282.5 866.166666667 349.5 888.5 c 128
 416.5 910.833333333 487 922 561 922 c 0
 703.666666667 922 826 899.333333333 928 854 c 1
 1013.33333333 899.333333333 1110.33333333 922 1219 922 c 0
 1365 922 1487 898.666666667 1585 852 c 1
 1668.33333333 898.666666667 1766 922 1878 922 c 2
 2108 922 l 1
 2079.33333333 981.333333333 2065 1036.66666667 2065 1088 c 0
 2065 1197.33333333 2090 1283.33333333 2140 1346 c 128
 2190 1408.66666667 2261 1440 2353 1440 c 0
 2423.66666667 1440 2480 1424.16666667 2522 1392.5 c 128
 2564 1360.83333333 2594 1316.33333333 2612 1259 c 0
 2620 1231.66666667 2626.33333333 1199.33333333 2631 1162 c 128
 2635.66666667 1124.66666667 2638 1085 2638 1043 c 2
 2638 0 l 1
1704 416 m 0
 1704 470.666666667 1693 524.833333333 1671 578.5 c 128
 1649 632.166666667 1615.66666667 678.333333333 1571 717 c 1
 1522.33333333 677.666666667 1485.33333333 629.833333333 1460 573.5 c 128
 1434.66666667 517.166666667 1422 457 1422 393 c 0
 1422 302.333333333 1434.5 229.833333333 1459.5 175.5 c 128
 1484.5 121.166666667 1519 94 1563 94 c 0
 1617 94 1654 120 1674 172 c 128
 1694 224 1704 305.333333333 1704 416 c 0
1045 416 m 0
 1045 471.333333333 1034 526 1012 580 c 128
 990 634 956.666666667 679.666666667 912 717 c 1
 863.333333333 677.666666667 826.166666667 630 800.5 574 c 128
 774.833333333 518 762 457.666666667 762 393 c 0
 762 304.333333333 774.666666667 232.333333333 800 177 c 128
 825.333333333 121.666666667 859.666666667 94 903 94 c 0
 957.666666667 94 995 119.833333333 1015 171.5 c 128
 1035 223.166666667 1045 304.666666667 1045 416 c 0
377 316 m 0
 377 360.666666667 362.833333333 401.5 334.5 438.5 c 128
 306.166666667 475.5 272.666666667 494 234 494 c 0
 198.666666667 494 169 484 145 464 c 0
 121 445.333333333 104 420.333333333 94 389 c 1
 94 319.666666667 107.5 261.5 134.5 214.5 c 128
 161.5 167.5 200.666666667 144 252 144 c 0
 293.333333333 144 324.5 160.666666667 345.5 194 c 128
 366.5 227.333333333 377 268 377 316 c 0
EndSplineSet
EndChar

StartChar: u0BA3_u0BC0
Encoding: 97 -1 97
Width: 2673
Flags: HW
AnchorPoint: "V" 1290.5 939 basechar 0
AnchorPoint: "N" 1290.5 57.9473 basechar 0
LayerCount: 2
Fore
SplineSet
2693 1235 m 0
 2693 1171 2670.66666667 1117.16666667 2626 1073.5 c 128
 2581.33333333 1029.83333333 2523.33333333 1008 2452 1008 c 0
 2383.33333333 1008 2329.33333333 1027.83333333 2290 1067.5 c 128
 2250.66666667 1107.16666667 2231 1155.66666667 2231 1213 c 0
 2231 1245 2236.83333333 1275.5 2248.5 1304.5 c 128
 2260.16666667 1333.5 2276 1357.66666667 2296 1377 c 1
 2255 1379 l 2
 2211 1379 2172.16666667 1366.66666667 2138.5 1342 c 128
 2104.83333333 1317.33333333 2079 1284.66666667 2061 1244 c 128
 2043 1203.33333333 2034 1162.33333333 2034 1121 c 0
 2034 1045.66666667 2062.66666667 979.333333333 2120 922 c 1
 2419 922 l 1
 2419 828 l 1
 2218 828 l 1
 2218 0 l 1
 2044 0 l 1
 2044 828 l 1
 1893 828 l 2
 1819 828 1751.33333333 815.666666667 1690 791 c 1
 1731.33333333 759.666666667 1766.16666667 723.333333333 1794.5 682 c 128
 1822.83333333 640.666666667 1843.5 597.5 1856.5 552.5 c 128
 1869.5 507.5 1876 462 1876 416 c 0
 1876 272 1854.66666667 166.666666667 1812 100 c 128
 1769.33333333 33.3333333333 1699.33333333 0 1602 0 c 0
 1418.66666667 0 1327 131 1327 393 c 0
 1327 549.666666667 1379 678 1483 778 c 1
 1412.33333333 811.333333333 1329.66666667 828 1235 828 c 0
 1160.33333333 828 1093.33333333 815.666666667 1034 791 c 1
 1094 745.666666667 1139.5 689.666666667 1170.5 623 c 128
 1201.5 556.333333333 1217 487.333333333 1217 416 c 0
 1217 272.666666667 1195.66666667 167.5 1153 100.5 c 128
 1110.33333333 33.5 1040.66666667 0 944 0 c 0
 760 0 668 131 668 393 c 0
 668 547.666666667 720 676 824 778 c 1
 753.333333333 811.333333333 670.666666667 828 576 828 c 0
 500 828 429 814.5 363 787.5 c 128
 297 760.5 241.833333333 726.666666667 197.5 686 c 128
 153.166666667 645.333333333 123 603.666666667 107 561 c 1
 154.333333333 597 211 615 277 615 c 0
 329.666666667 615 377 602.333333333 419 577 c 128
 461 551.666666667 493.5 516.833333333 516.5 472.5 c 128
 539.5 428.166666667 551 377.333333333 551 320 c 0
 551 221.333333333 530 143.333333333 488 86 c 128
 446 28.6666666667 381 0 293 0 c 0
 239.666666667 0 190.333333333 17 145 51 c 0
 123 67.6666666667 103.166666667 88.5 85.5 113.5 c 128
 67.8333333333 138.5 52.3333333333 167.333333333 39 200 c 0
 13 264 0 339.333333333 0 426 c 0
 0 501.333333333 15 570.5 45 633.5 c 128
 75 696.5 116.5 749.166666667 169.5 791.5 c 128
 222.5 833.833333333 282.5 866.166666667 349.5 888.5 c 128
 416.5 910.833333333 487 922 561 922 c 0
 703.666666667 922 826 899.333333333 928 854 c 1
 1013.33333333 899.333333333 1110.33333333 922 1219 922 c 0
 1365 922 1487 898.666666667 1585 852 c 1
 1668.33333333 898.666666667 1766 922 1878 922 c 2
 2028 922 l 1
 1964 989.333333333 1932 1063 1932 1143 c 0
 1932 1273.66666667 1970.5 1369.16666667 2047.5 1429.5 c 128
 2124.5 1489.83333333 2211.33333333 1520 2308 1520 c 0
 2410.66666667 1520 2500.5 1498.5 2577.5 1455.5 c 128
 2654.5 1412.5 2693 1339 2693 1235 c 0
2552 1213 m 0
 2552 1247.66666667 2540 1277.83333333 2516 1303.5 c 128
 2492 1329.16666667 2461.66666667 1342 2425 1342 c 1
 2394.33333333 1336 2369.33333333 1321 2350 1297 c 128
 2330.66666667 1273 2321 1244.33333333 2321 1211 c 0
 2321 1179.66666667 2331.5 1152.33333333 2352.5 1129 c 128
 2373.5 1105.66666667 2399.66666667 1094 2431 1094 c 0
 2464.33333333 1094 2492.83333333 1105.66666667 2516.5 1129 c 128
 2540.16666667 1152.33333333 2552 1180.33333333 2552 1213 c 0
1704 416 m 0
 1704 470.666666667 1693 524.833333333 1671 578.5 c 128
 1649 632.166666667 1615.66666667 678.333333333 1571 717 c 1
 1522.33333333 677.666666667 1485.33333333 629.833333333 1460 573.5 c 128
 1434.66666667 517.166666667 1422 457 1422 393 c 0
 1422 302.333333333 1434.5 229.833333333 1459.5 175.5 c 128
 1484.5 121.166666667 1519 94 1563 94 c 0
 1617 94 1654 120 1674 172 c 128
 1694 224 1704 305.333333333 1704 416 c 0
1045 416 m 0
 1045 471.333333333 1034 526 1012 580 c 128
 990 634 956.666666667 679.666666667 912 717 c 1
 863.333333333 677.666666667 826.166666667 630 800.5 574 c 128
 774.833333333 518 762 457.666666667 762 393 c 0
 762 304.333333333 774.666666667 232.333333333 800 177 c 128
 825.333333333 121.666666667 859.666666667 94 903 94 c 0
 957.666666667 94 995 119.833333333 1015 171.5 c 128
 1035 223.166666667 1045 304.666666667 1045 416 c 0
377 316 m 0
 377 360.666666667 362.833333333 401.5 334.5 438.5 c 128
 306.166666667 475.5 272.666666667 494 234 494 c 0
 198.666666667 494 169 484 145 464 c 0
 121 445.333333333 104 420.333333333 94 389 c 1
 94 319.666666667 107.5 261.5 134.5 214.5 c 128
 161.5 167.5 200.666666667 144 252 144 c 0
 293.333333333 144 324.5 160.666666667 345.5 194 c 128
 366.5 227.333333333 377 268 377 316 c 0
EndSplineSet
EndChar

StartChar: u0BA3_u0BC1
Encoding: 98 -1 98
Width: 2972
Flags: HW
AnchorPoint: "V" 1290.5 939 basechar 0
AnchorPoint: "N" 1290.5 57.9473 basechar 0
LayerCount: 2
Fore
SplineSet
2767 -150 m 1
 2216 -150 l 1
 2122.66666667 -264.666666667 1990.33333333 -351.333333333 1819 -410 c 0
 1732.33333333 -439.333333333 1637.33333333 -461.333333333 1534 -476 c 128
 1430.66666667 -490.666666667 1316 -498 1190 -498 c 0
 980 -498 791.833333333 -483 625.5 -453 c 128
 459.166666667 -423 324 -381.666666667 220 -329 c 0
 153.333333333 -296.333333333 101.666666667 -263.333333333 65 -230 c 0
 23 -192 2 -155 2 -119 c 0
 2 -77 27.3333333333 -56 78 -56 c 2
 2052 -56 l 1
 2160 80 2214 236 2214 412 c 0
 2214 490 2199.33333333 560.5 2170 623.5 c 128
 2140.66666667 686.5 2099.16666667 736.333333333 2045.5 773 c 128
 1991.83333333 809.666666667 1931.33333333 828 1864 828 c 0
 1805.33333333 828 1746.66666667 816.333333333 1688 793 c 1
 1750 746.333333333 1796.83333333 689.666666667 1828.5 623 c 128
 1860.16666667 556.333333333 1876 487.333333333 1876 416 c 0
 1876 272 1854.66666667 166.666666667 1812 100 c 128
 1769.33333333 33.3333333333 1699.33333333 0 1602 0 c 0
 1418.66666667 0 1327 131 1327 393 c 0
 1327 471 1340.66666667 543 1368 609 c 128
 1395.33333333 675 1433.66666667 730.666666667 1483 776 c 1
 1413.66666667 810.666666667 1331 828 1235 828 c 0
 1160.33333333 828 1093.33333333 815.666666667 1034 791 c 1
 1094 745.666666667 1139.5 689.666666667 1170.5 623 c 128
 1201.5 556.333333333 1217 487.333333333 1217 416 c 0
 1217 272.666666667 1195.66666667 167.5 1153 100.5 c 128
 1110.33333333 33.5 1040.66666667 0 944 0 c 0
 760 0 668 131 668 393 c 0
 668 547.666666667 720 676 824 778 c 1
 753.333333333 811.333333333 670.666666667 828 576 828 c 0
 465.333333333 828 366 800.333333333 278 745 c 128
 190 689.666666667 133 628.333333333 107 561 c 1
 154.333333333 597 211 615 277 615 c 0
 329.666666667 615 377 602.333333333 419 577 c 128
 461 551.666666667 493.5 516.833333333 516.5 472.5 c 128
 539.5 428.166666667 551 377.333333333 551 320 c 0
 551 221.333333333 530 143.333333333 488 86 c 128
 446 28.6666666667 381 0 293 0 c 0
 239.666666667 0 190.333333333 17 145 51 c 0
 123 67.6666666667 103.166666667 88.5 85.5 113.5 c 128
 67.8333333333 138.5 52.3333333333 167.333333333 39 200 c 0
 13 264 0 339.333333333 0 426 c 0
 0 501.333333333 15 570.5 45 633.5 c 128
 75 696.5 116.5 749.166666667 169.5 791.5 c 128
 222.5 833.833333333 282.5 866.166666667 349.5 888.5 c 128
 416.5 910.833333333 487 922 561 922 c 0
 703.666666667 922 826 899.333333333 928 854 c 1
 1013.33333333 899.333333333 1110.33333333 922 1219 922 c 0
 1362.33333333 922 1483 898.666666667 1581 852 c 1
 1666.33333333 898.666666667 1758.66666667 922 1858 922 c 0
 1966.66666667 922 2061.33333333 897.833333333 2142 849.5 c 128
 2222.66666667 801.166666667 2283.83333333 736 2325.5 654 c 128
 2367.16666667 572 2388 483.666666667 2388 389 c 0
 2388 217.666666667 2352 69.3333333333 2280 -56 c 1
 2593 -56 l 1
 2593 922 l 1
 2767 922 l 1
 2767 -150 l 1
1704 416 m 0
 1704 470.666666667 1693 524.833333333 1671 578.5 c 128
 1649 632.166666667 1615.66666667 679 1571 719 c 1
 1471.66666667 633 1422 524.333333333 1422 393 c 0
 1422 302.333333333 1434.5 229.833333333 1459.5 175.5 c 128
 1484.5 121.166666667 1519 94 1563 94 c 0
 1617 94 1654 120 1674 172 c 128
 1694 224 1704 305.333333333 1704 416 c 0
1045 416 m 0
 1045 471.333333333 1034 526 1012 580 c 128
 990 634 956.666666667 679.666666667 912 717 c 1
 863.333333333 677.666666667 826.166666667 630 800.5 574 c 128
 774.833333333 518 762 457.666666667 762 393 c 0
 762 304.333333333 774.666666667 232.333333333 800 177 c 128
 825.333333333 121.666666667 859.666666667 94 903 94 c 0
 957.666666667 94 995 119.833333333 1015 171.5 c 128
 1035 223.166666667 1045 304.666666667 1045 416 c 0
1964 -150 m 1
 160 -150 l 2
 138.666666667 -150 128 -154.333333333 128 -163 c 0
 128 -165.666666667 129.666666667 -168.666666667 133 -172 c 0
 173 -214 242.666666667 -252.833333333 342 -288.5 c 128
 441.333333333 -324.166666667 563.833333333 -352.666666667 709.5 -374 c 128
 855.166666667 -395.333333333 1010 -406 1174 -406 c 0
 1342 -406 1493 -383.5 1627 -338.5 c 128
 1761 -293.5 1873.33333333 -230.666666667 1964 -150 c 1
377 316 m 0
 377 360.666666667 362.833333333 401.5 334.5 438.5 c 128
 306.166666667 475.5 272.666666667 494 234 494 c 0
 198.666666667 494 169 484 145 464 c 0
 121 445.333333333 104 420.333333333 94 389 c 1
 94 319.666666667 107.5 261.5 134.5 214.5 c 128
 161.5 167.5 200.666666667 144 252 144 c 0
 293.333333333 144 324.5 160.666666667 345.5 194 c 128
 366.5 227.333333333 377 268 377 316 c 0
EndSplineSet
EndChar

